<?xml version="1.0" standalone="no"?><!DOCTYPE svg PUBLIC "-//W3C//DTD SVG 1.1//EN" "http://www.w3.org/Graphics/SVG/1.1/DTD/svg11.dtd"><svg class="icon" width="128px" height="128.00px" viewBox="0 0 1024 1024" version="1.1" xmlns="http://www.w3.org/2000/svg"><path d="M896 170.666667H298.666667a85.333333 85.333333 0 1 0 0 170.666666h597.333333v554.666667a42.666667 42.666667 0 0 1-42.666667 42.666667H298.666667a170.666667 170.666667 0 0 1-170.666667-170.666667V256a170.666667 170.666667 0 0 1 170.666667-170.666667h554.666666a42.666667 42.666667 0 0 1 42.666667 42.666667v42.666667zM213.333333 768a85.333333 85.333333 0 0 0 85.333334 85.333333h512V426.666667H298.666667a169.898667 169.898667 0 0 1-85.333334-22.826667V768zM853.333333 298.666667H298.666667a42.666667 42.666667 0 1 1 0-85.333334h554.666666v85.333334z" /></svg>