<?xml version="1.0" standalone="no"?><!DOCTYPE svg PUBLIC "-//W3C//DTD SVG 1.1//EN" "http://www.w3.org/Graphics/SVG/1.1/DTD/svg11.dtd"><svg class="icon" width="128px" height="128.00px" viewBox="0 0 1024 1024" version="1.1" xmlns="http://www.w3.org/2000/svg"><path d="M810.666667 938.666667H213.333333a128 128 0 0 1-128-128V128a42.666667 42.666667 0 0 1 42.666667-42.666667h597.333333a42.666667 42.666667 0 0 1 42.666667 42.666667v512h170.666667v170.666667a128 128 0 0 1-128 128z m-42.666667-213.333334v85.333334a42.666667 42.666667 0 0 0 85.333333 0v-85.333334h-85.333333zM256 298.666667v85.333333h341.333333V298.666667H256z m0 170.666666v85.333334h341.333333v-85.333334H256z m0 170.666667v85.333333h213.333333v-85.333333H256z" /></svg>