<?xml version="1.0" standalone="no"?><!DOCTYPE svg PUBLIC "-//W3C//DTD SVG 1.1//EN" "http://www.w3.org/Graphics/SVG/1.1/DTD/svg11.dtd"><svg class="icon" width="128px" height="128.00px" viewBox="0 0 1024 1024" version="1.1" xmlns="http://www.w3.org/2000/svg"><path d="M853.333333 938.666667H170.666667a42.666667 42.666667 0 0 1-42.666667-42.666667V128a42.666667 42.666667 0 0 1 42.666667-42.666667h682.666666a42.666667 42.666667 0 0 1 42.666667 42.666667v768a42.666667 42.666667 0 0 1-42.666667 42.666667z m-42.666666-85.333334V170.666667H213.333333v682.666666h597.333334z m-213.333334-341.333333v213.333333h-170.666666v-128h85.333333v-85.333333h85.333333z m-85.333333-341.333333h85.333333v85.333333h-85.333333V170.666667z m-85.333333 85.333333h85.333333v85.333333h-85.333333V256z m85.333333 85.333333h85.333333v85.333334h-85.333333V341.333333z m-85.333333 85.333334h85.333333v85.333333h-85.333333v-85.333333z" /></svg>