<?xml version="1.0" standalone="no"?><!DOCTYPE svg PUBLIC "-//W3C//DTD SVG 1.1//EN" "http://www.w3.org/Graphics/SVG/1.1/DTD/svg11.dtd"><svg class="icon" width="128px" height="128.00px" viewBox="0 0 1024 1024" version="1.1" xmlns="http://www.w3.org/2000/svg"><path d="M426.666667 85.333333v85.333334h85.333333V85.333333h341.632c23.381333 0 42.368 18.944 42.368 42.325334v768.682666a42.666667 42.666667 0 0 1-42.368 42.325334H170.368A42.368 42.368 0 0 1 128 896.341333V127.658667A42.666667 42.666667 0 0 1 170.368 85.333333H426.666667z m85.333333 85.333334v85.333333h85.333333V170.666667h-85.333333z m-85.333333 85.333333v85.333333h85.333333V256h-85.333333z m85.333333 85.333333v85.333334h85.333333V341.333333h-85.333333z m-85.333333 85.333334v85.333333h85.333333v-85.333333h-85.333333z m85.333333 85.333333v85.333333h-85.333333v128h170.666666v-213.333333h-85.333333z" /></svg>