<?xml version="1.0" standalone="no"?><!DOCTYPE svg PUBLIC "-//W3C//DTD SVG 1.1//EN" "http://www.w3.org/Graphics/SVG/1.1/DTD/svg11.dtd"><svg class="icon" width="128px" height="128.00px" viewBox="0 0 1024 1024" version="1.1" xmlns="http://www.w3.org/2000/svg"><path d="M640 170.666667H213.333333v682.666666h597.333334V341.333333h-170.666667V170.666667zM128 127.658667C128 104.277333 147.072 85.333333 170.624 85.333333H682.666667l213.333333 213.333334v597.034666A42.666667 42.666667 0 0 1 853.632 938.666667H170.368A42.666667 42.666667 0 0 1 128 896.341333V127.658667zM753.365333 512l-150.869333 150.869333-60.330667-60.373333L632.661333 512l-90.453333-90.496 60.288-60.373333L753.365333 512zM270.634667 512L421.546667 361.130667l60.330666 60.373333L391.338667 512l90.453333 90.496-60.288 60.373333L270.634667 512z" /></svg>