<?xml version="1.0" standalone="no"?><!DOCTYPE svg PUBLIC "-//W3C//DTD SVG 1.1//EN" "http://www.w3.org/Graphics/SVG/1.1/DTD/svg11.dtd"><svg class="icon" width="128px" height="128.00px" viewBox="0 0 1024 1024" version="1.1" xmlns="http://www.w3.org/2000/svg"><path d="M642.56 85.333333a53.610667 53.610667 0 0 1 53.525333 57.322667l-0.917333 14.058667a581.077333 581.077333 0 0 0-1.194667 33.28c0 99.626667 81.365333 180.48 181.845334 180.48 10.24 0 24.426667-1.557333 42.389333-4.757334 34.837333-6.144 66.474667 22.506667 62.848 58.005334a305.493333 305.493333 0 0 1-46.954667 133.845333 217.173333 217.173333 0 0 1 46.250667 114.944l0.469333 5.973333C989.248 808.234667 886.613333 917.333333 757.333333 917.333333H273.28c-120.213333 0-222.506667-91.221333-230.101333-209.152C34.730667 578.432 137.386667 469.333333 266.645333 469.333333h30.634667l0.853333-2.88a223.594667 223.594667 0 0 1 65.941334-101.354666c-0.042667-1.344 0-2.730667 0.128-4.138667 14.421333-143.744 128.064-258.517333 272.661333-275.328 1.984-0.192 3.712-0.298667 5.696-0.298667zM512 373.333333a160.085333 160.085333 0 0 0-155.093333 120.469334C350.933333 517.418667 329.386667 533.333333 305.365333 533.333333H266.666667c-92.330667 0-165.653333 77.909333-159.637334 170.709334C112.426667 787.626667 186.112 853.333333 273.237333 853.333333H757.333333c92.373333 0 165.674667-77.909333 159.658667-170.709333C911.573333 599.082667 837.845333 533.333333 750.72 533.333333h-32.149333c-23.936 0-45.482667-15.893333-51.456-39.466666a160.106667 160.106667 0 0 0-155.136-120.533334z m119.381333-222.314666c-93.077333 15.616-168.256 83.114667-194.602666 171.306666a223.338667 223.338667 0 0 1 69.034666-12.906666L512 309.333333c98.965333 0 184.96 64.725333 213.845333 157.12l0.832 2.88h24.042667c50.304 0 97.472 15.978667 135.893333 43.2a241.194667 241.194667 0 0 0 28.416-78.485333l0.469334-3.050667-1.408 0.234667c-12.224 1.792-23.082667 2.858667-32.661334 3.157333l-5.610666 0.085334c-135.722667 0-245.845333-109.418667-245.845334-244.48 0-8.469333 0.298667-18.368 0.896-29.76l0.512-9.216z" /></svg>