<?xml version="1.0" standalone="no"?><!DOCTYPE svg PUBLIC "-//W3C//DTD SVG 1.1//EN" "http://www.w3.org/Graphics/SVG/1.1/DTD/svg11.dtd"><svg class="icon" width="128px" height="128.00px" viewBox="0 0 1024 1024" version="1.1" xmlns="http://www.w3.org/2000/svg"><path d="M672 213.333333a170.666667 170.666667 0 0 1 128.746667 282.730667c95.445333 20.693333 170.538667 99.413333 179.626666 197.76l0.448 5.973333C989.248 829.589333 886.613333 938.666667 757.333333 938.666667H273.28c-120.213333 0-222.506667-91.221333-230.101333-209.152C34.730667 599.765333 137.386667 490.666667 266.645333 490.666667h30.634667l0.853333-2.88a224.128 224.128 0 0 1 207.68-157.034667l5.290667-0.064a32 32 0 0 1 2.154667-9.493333A170.688 170.688 0 0 1 672 213.333333zM512 394.666667a160.085333 160.085333 0 0 0-155.093333 120.469333C350.933333 538.752 329.386667 554.666667 305.365333 554.666667H266.666667c-92.330667 0-165.653333 77.909333-159.637334 170.709333C112.426667 808.96 186.112 874.666667 273.237333 874.666667H757.333333c92.373333 0 165.674667-77.909333 159.658667-170.709334C911.573333 620.416 837.845333 554.666667 750.72 554.666667h-32.149333c-23.936 0-45.482667-15.893333-51.456-39.466667a160.106667 160.106667 0 0 0-155.136-120.533333z m400.896 46.378666l39.829333 15.296a32 32 0 0 1-22.933333 59.733334l-39.829333-15.274667a32 32 0 1 1 22.933333-59.754667zM672 277.333333a106.709333 106.709333 0 0 0-97.066667 62.357334c67.84 19.84 123.093333 71.018667 147.584 138.261333l-0.853333 0.469333A106.666667 106.666667 0 0 0 672 277.333333z m317.653333 68.032a32 32 0 0 1-27.861333 35.648l-42.346667 5.205334a32 32 0 0 1-7.786666-63.530667l42.346666-5.184a32 32 0 0 1 35.648 27.861333z m-54.506666-143.445333a32 32 0 0 1-7.850667 44.586667L892.352 270.933333a32 32 0 0 1-36.714667-52.416l34.944-24.469333a32 32 0 0 1 44.586667 7.850667z m-481.728-7.850667l34.944 24.469334a32 32 0 0 1-36.693334 52.416l-34.965333-24.469334a32 32 0 1 1 36.693333-52.416z m367.552-93.290666a32 32 0 0 1 13.226666 43.306666l-20.032 37.653334a32 32 0 0 1-56.512-30.037334l20.053334-37.674666a32 32 0 0 1 43.264-13.226667z m-254.656 13.226666l20.032 37.696a32 32 0 1 1-56.512 30.037334l-20.032-37.674667a32 32 0 1 1 56.512-30.037333zM672 64A32 32 0 0 1 704 96v42.666667a32 32 0 0 1-64 0v-42.666667A32 32 0 0 1 672 64z" /></svg>