<?xml version="1.0" standalone="no"?><!DOCTYPE svg PUBLIC "-//W3C//DTD SVG 1.1//EN" "http://www.w3.org/Graphics/SVG/1.1/DTD/svg11.dtd"><svg class="icon" width="128px" height="128.00px" viewBox="0 0 1024 1024" version="1.1" xmlns="http://www.w3.org/2000/svg"><path d="M505.813333 74.752a224.128 224.128 0 0 0-207.658666 157.034667l-0.874667 2.88h-30.634667C137.386667 234.666667 34.773333 343.765333 43.157333 473.514667 50.773333 591.445333 153.045333 682.666667 273.237333 682.666667H757.333333c129.28 0 231.936-109.098667 223.509334-238.848l-0.469334-5.973334C969.749333 322.837333 868.906667 234.666667 750.72 234.666667h-24.042667l-0.853333-2.88A224.128 224.128 0 0 0 512 74.666667l-6.165333 0.085333zM512 138.666667a160.106667 160.106667 0 0 1 155.093333 120.533333c5.973333 23.573333 27.541333 39.466667 51.477334 39.466667h32.149333c87.125333 0 160.853333 65.749333 166.250667 149.290666 6.016 92.8-67.285333 170.709333-159.658667 170.709334H273.28c-87.146667 0-160.853333-65.728-166.250667-149.290667C100.992 376.576 174.314667 298.666667 266.666667 298.666667h38.741333c24 0 45.568-15.914667 51.498667-39.530667A160.085333 160.085333 0 0 1 512 138.666667z" /><path d="M800 874.666667a32 32 0 0 1 0 64h-320a32 32 0 0 1 0-64h320z m-448 0a32 32 0 0 1 0 64h-128a32 32 0 0 1 0-64h128z m192-128a32 32 0 0 1 0 64h-320a32 32 0 0 1 0-64h320z m256 0a32 32 0 0 1 0 64h-128a32 32 0 0 1 0-64h128z" /></svg>