<?xml version="1.0" standalone="no"?><!DOCTYPE svg PUBLIC "-//W3C//DTD SVG 1.1//EN" "http://www.w3.org/Graphics/SVG/1.1/DTD/svg11.dtd"><svg class="icon" width="128px" height="128.00px" viewBox="0 0 1024 1024" version="1.1" xmlns="http://www.w3.org/2000/svg"><path d="M482.56 735.786667l103.04 27.584 18.986667 94.08-63.146667 70.784-103.04-27.605334-19.413333-92.458666 63.573333-72.405334z m251.264 23.658666l80.149333 21.461334 15.36 70.869333-48.490666 52.778667-80.149334-21.461334-15.68-69.653333 48.810667-53.994667z m-490.666667 0l80.149334 21.461334 15.36 70.869333-48.490667 52.778667-80.149333-21.461334-15.68-69.653333 48.810666-53.994667zM512 74.666667c98.986667 0 185.002667 64.725333 213.866667 157.12l0.832 2.88h24.042666c118.165333 0 219.029333 88.170667 229.632 203.178666l0.469334 5.973334C989.248 573.568 886.613333 682.666667 757.333333 682.666667H273.28c-120.213333 0-222.506667-91.221333-230.101333-209.152C34.730667 343.765333 137.386667 234.666667 266.645333 234.666667h30.634667l0.853333-2.88a224.128 224.128 0 0 1 207.68-157.034667z m0 64a160.085333 160.085333 0 0 0-155.093333 120.469333C350.954667 282.752 329.386667 298.666667 305.386667 298.666667H266.666667c-92.330667 0-165.653333 77.909333-159.637334 170.709333C112.426667 552.96 186.112 618.666667 273.237333 618.666667H757.333333c92.373333 0 165.674667-77.909333 159.658667-170.709334C911.573333 364.416 837.845333 298.666667 750.72 298.666667h-32.149333c-23.936 0-45.482667-15.893333-51.456-39.466667a160.106667 160.106667 0 0 0-155.136-120.533333z" /></svg>