<?xml version="1.0" standalone="no"?><!DOCTYPE svg PUBLIC "-//W3C//DTD SVG 1.1//EN" "http://www.w3.org/Graphics/SVG/1.1/DTD/svg11.dtd"><svg class="icon" width="128px" height="128.00px" viewBox="0 0 1024 1024" version="1.1" xmlns="http://www.w3.org/2000/svg"><path d="M481.130667 729.685333a32 32 0 0 1 22.613333 39.210667l-49.685333 185.450667a32 32 0 0 1-61.824-16.576l49.706666-185.450667a32 32 0 0 1 39.189334-22.613333z m256.042666 0a32 32 0 0 1 22.613334 39.210667l-49.685334 185.450667a32 32 0 0 1-61.824-16.576l49.706667-185.450667a32 32 0 0 1 39.189333-22.613333z m-139.050666-1.450666a32 32 0 0 1 22.613333 39.189333l-27.584 103.04a32 32 0 1 1-61.824-16.554667l27.605333-103.04a32 32 0 0 1 39.189334-22.613333z m-256.042667 0a32 32 0 0 1 22.613333 39.189333l-27.584 103.04a32 32 0 1 1-61.824-16.554667l27.605334-103.04a32 32 0 0 1 39.189333-22.613333zM512 53.333333c98.986667 0 185.002667 64.725333 213.866667 157.12l0.832 2.88h24.042666c118.165333 0 219.029333 88.170667 229.632 203.178667l0.469334 5.973333C989.248 552.234667 886.613333 661.333333 757.333333 661.333333H273.28c-120.213333 0-222.506667-91.221333-230.101333-209.152C34.730667 322.432 137.386667 213.333333 266.645333 213.333333h30.634667l0.853333-2.88a224.128 224.128 0 0 1 207.68-157.034666z m0 64a160.085333 160.085333 0 0 0-155.093333 120.469334C350.954667 261.418667 329.386667 277.333333 305.386667 277.333333H266.666667c-92.330667 0-165.653333 77.909333-159.637334 170.709334C112.426667 531.626667 186.112 597.333333 273.237333 597.333333H757.333333c92.373333 0 165.674667-77.909333 159.658667-170.709333C911.573333 343.082667 837.845333 277.333333 750.72 277.333333h-32.149333c-23.936 0-45.482667-15.893333-51.456-39.466666a160.106667 160.106667 0 0 0-155.136-120.533334z" /></svg>