<?xml version="1.0" standalone="no"?><!DOCTYPE svg PUBLIC "-//W3C//DTD SVG 1.1//EN" "http://www.w3.org/Graphics/SVG/1.1/DTD/svg11.dtd"><svg class="icon" width="128px" height="128.00px" viewBox="0 0 1024 1024" version="1.1" xmlns="http://www.w3.org/2000/svg"><path d="M416.917333 64A405.632 405.632 0 0 0 405.333333 160.554667c0 223.850667 181.482667 405.333333 405.333334 405.333333 52.181333 0 102.058667-9.856 147.861333-27.818667C940.16 768.576 747.242667 949.888 512 949.888c-247.424 0-448-200.576-448-448C64 287.082667 215.168 107.605333 416.917333 64z m-75.562666 93.717333l-1.856 0.938667C212.885333 222.336 128 353.472 128 501.909333c0 212.053333 171.925333 383.978667 384 383.978667 167.104 0 310.485333-107.178667 362.816-257.813333l0.896-2.709334-6.336 0.874667c-15.488 1.941333-31.125333 3.114667-46.869333 3.498667l-11.84 0.149333c-256.618667 0-465.130667-205.952-469.269334-461.568L341.333333 160.554667l0.021334-2.837334zM746.666667 139.221333a32 32 0 0 1 32 32v64h64a32 32 0 0 1 0 64h-64v64a32 32 0 0 1-64 0v-64h-64a32 32 0 0 1 0-64h64v-64a32 32 0 0 1 32-32z" /></svg>