<?xml version="1.0" standalone="no"?><!DOCTYPE svg PUBLIC "-//W3C//DTD SVG 1.1//EN" "http://www.w3.org/Graphics/SVG/1.1/DTD/svg11.dtd"><svg class="icon" width="128px" height="128.00px" viewBox="0 0 1024 1024" version="1.1" xmlns="http://www.w3.org/2000/svg"><path d="M597.333333 117.333333c92.288 0 173.525333 56.32 207.381334 139.178667l1.109333 2.837333 1.92 0.362667a213.397333 213.397333 0 0 1 173.504 203.648L981.333333 469.333333c0 35.136-8.533333 69.12-24.597333 99.52l-0.64 1.088a215.402667 215.402667 0 0 1 24.256 81.237334l0.469333 5.973333C989.248 786.901333 886.613333 896 757.333333 896H273.28c-120.213333 0-222.506667-91.221333-230.101333-209.152C34.730667 557.098667 137.386667 448 266.645333 448h30.634667l0.853333-2.88a223.744 223.744 0 0 1 75.242667-109.098667L373.333333 341.333333c0-123.712 100.288-224 224-224z m-85.333333 234.666667a160.085333 160.085333 0 0 0-155.093333 120.469333C350.933333 496.085333 329.386667 512 305.365333 512H266.666667c-92.330667 0-165.653333 77.909333-159.637334 170.709333C112.426667 766.293333 186.112 832 273.237333 832H757.333333c92.373333 0 165.674667-77.909333 159.658667-170.709333C911.573333 577.749333 837.845333 512 750.72 512h-32.149333c-23.936 0-45.482667-15.893333-51.456-39.466667a160.106667 160.106667 0 0 0-155.136-120.533333z m85.333333-170.666667a160.064 160.064 0 0 0-154.304 117.504 223.68 223.68 0 0 1 62.784-10.752L512 288c98.965333 0 184.96 64.725333 213.845333 157.12l0.832 2.88h24.042667c61.717333 0 118.698667 24.042667 160.597333 63.402667a149.333333 149.333333 0 0 0-131.754666-190.954667 32 32 0 0 1-28.352-23.125333A160.085333 160.085333 0 0 0 597.333333 181.333333z" /></svg>