<?xml version="1.0" standalone="no"?><!DOCTYPE svg PUBLIC "-//W3C//DTD SVG 1.1//EN" "http://www.w3.org/Graphics/SVG/1.1/DTD/svg11.dtd"><svg class="icon" width="128px" height="128.00px" viewBox="0 0 1024 1024" version="1.1" xmlns="http://www.w3.org/2000/svg"><path d="M832 746.666667a106.666667 106.666667 0 0 1 0 213.333333 32 32 0 0 1-3.072-63.850667L832 896a42.666667 42.666667 0 0 0 3.2-85.226667L832 810.666667h-128a32 32 0 0 1-3.072-63.850667L704 746.666667h128z m-320 0a16 16 0 0 1 16 16v30.698666l21.717333-21.696a16 16 0 1 1 22.613334 22.613334l-21.696 21.696 30.698666 0.021333a16 16 0 1 1 0 32h-30.677333l21.674667 21.717333a16 16 0 1 1-22.613334 22.613334L528 870.613333v30.72a16 16 0 1 1-32 0v-30.72l-21.717333 21.717334a16 16 0 1 1-22.613334-22.613334l21.674667-21.717333H442.666667a16 16 0 1 1 0-32h30.72l-21.717334-21.717333a16 16 0 1 1 22.613334-22.613334l21.717333 21.696V762.666667A16 16 0 0 1 512 746.666667z m-212.586667 2.901333a32 32 0 0 1 22.613334 39.189333l-27.584 103.04a32 32 0 1 1-61.824-16.554666l27.605333-103.04a32 32 0 0 1 39.189333-22.613334zM512 74.666667c98.986667 0 185.002667 64.725333 213.866667 157.12l0.832 2.88h24.042666c118.165333 0 219.029333 88.170667 229.632 203.178666l0.469334 5.973334a224 224 0 0 1-136.149334 221.184 32 32 0 1 1-24.96-58.944 160 160 0 0 0 97.258667-158.101334c-5.290667-81.813333-76.074667-146.56-160.810667-149.205333L750.72 298.666667h-32.149333c-23.936 0-45.482667-15.893333-51.456-39.466667a160.106667 160.106667 0 0 0-310.229334-0.064c-5.610667 22.4-25.28 37.845333-47.722666 39.402667l-3.776 0.128H266.666667c-92.330667 0-165.653333 77.909333-159.637334 170.709333 5.290667 81.813333 76.074667 146.56 160.810667 149.205333l5.418667 0.085334H618.666667a53.333333 53.333333 0 0 0 3.498666-106.56L618.666667 512a32 32 0 0 1 0-64 117.333333 117.333333 0 0 1 4.714666 234.581333L618.666667 682.666667H273.237333C153.045333 682.666667 50.773333 591.445333 43.157333 473.514667 34.858667 345.813333 134.186667 238.08 260.608 234.752L266.666667 234.666667h30.634666l0.853334-2.88a224.128 224.128 0 0 1 207.68-157.034667L512 74.666667z" /></svg>