<?xml version="1.0" standalone="no"?><!DOCTYPE svg PUBLIC "-//W3C//DTD SVG 1.1//EN" "http://www.w3.org/Graphics/SVG/1.1/DTD/svg11.dtd"><svg class="icon" width="128px" height="128.00px" viewBox="0 0 1024 1024" version="1.1" xmlns="http://www.w3.org/2000/svg"><path d="M512 42.666667a32 32 0 0 1 32 32v87.914666l57.216-57.216a32 32 0 0 1 47.445333 42.837334l-2.197333 2.432-102.485333 102.464 0.021333 181.632 128.426667-128.426667V161.365333a32 32 0 0 1 63.850666-3.264l0.170667 3.264v80.896l62.165333-62.144a32 32 0 0 1 45.248 45.248l-62.165333 62.165334h80.917333a32 32 0 0 1 3.264 63.829333l-3.264 0.170667h-144.917333L589.226667 480h181.653333l102.464-102.464a32 32 0 0 1 47.466667 42.816l-2.197334 2.432-57.216 57.194667 87.914667 0.021333a32 32 0 0 1 0 64h-87.914667l57.216 57.216a32 32 0 0 1-42.837333 47.445333l-2.432-2.197333-102.464-102.485333-181.653333 0.021333 128.469333 128.426667h144.896a32 32 0 0 1 3.264 63.850666l-3.264 0.170667h-80.896l62.144 62.165333a32 32 0 0 1-45.248 45.248l-62.165333-62.165333v80.917333a32 32 0 0 1-63.829334 3.264l-0.170666-3.264v-144.917333L544 589.226667l0.042667 181.653333 102.442666 102.464a32 32 0 0 1-42.816 47.466667l-2.432-2.197334-57.194666-57.216L544 949.333333a32 32 0 0 1-64 0v-87.914666l-57.216 57.216a32 32 0 0 1-47.445333-42.837334l2.197333-2.432 102.485333-102.464-0.042666-181.653333-128.426667 128.469333v144.896a32 32 0 0 1-63.829333 3.264l-0.170667-3.264v-80.896l-62.165333 62.144a32 32 0 0 1-45.248-45.248l62.165333-62.165333H161.386667a32 32 0 0 1-3.264-63.829333l3.264-0.170667h144.917333l128.426667-128.469333-181.632 0.042666-102.464 102.442667a32 32 0 0 1-47.466667-42.816l2.197333-2.432 57.216-57.194667L74.666667 544a32 32 0 0 1 0-64h87.914666l-57.216-57.216a32 32 0 0 1 42.837334-47.445333l2.432 2.197333 102.464 102.485333 181.632-0.042666-128.426667-128.426667H161.365333a32 32 0 0 1-3.264-63.829333l3.264-0.170667h80.896l-62.144-62.165333a32 32 0 0 1 45.248-45.248l62.165334 62.165333V161.386667a32 32 0 0 1 63.829333-3.264l0.170667 3.264v144.917333l128.448 128.426667v-181.632l-102.464-102.464a32 32 0 0 1 42.816-47.466667l2.432 2.197333 57.194666 57.216L480 74.666667A32 32 0 0 1 512 42.666667z" /></svg>