<?xml version="1.0" standalone="no"?><!DOCTYPE svg PUBLIC "-//W3C//DTD SVG 1.1//EN" "http://www.w3.org/Graphics/SVG/1.1/DTD/svg11.dtd"><svg class="icon" width="128px" height="128.00px" viewBox="0 0 1024 1024" version="1.1" xmlns="http://www.w3.org/2000/svg"><path d="M616.064 554.666667l-69.866667 173.546666 93.802667-0.64L423.893333 981.333333l74.88-211.285333-114.773333-0.576L466.56 554.666667h149.504z m152.746667 173.568a32 32 0 0 1 22.613333 39.189333l-27.605333 103.04a32 32 0 1 1-61.824-16.554667l27.605333-103.04a32 32 0 0 1 39.189333-22.613333z m-469.397334 0a32 32 0 0 1 22.613334 39.189333l-27.584 103.04a32 32 0 1 1-61.824-16.554667l27.605333-103.04a32 32 0 0 1 39.189333-22.613333zM512 53.333333c98.986667 0 185.002667 64.725333 213.866667 157.12l0.832 2.88h24.042666c118.165333 0 219.029333 88.170667 229.632 203.178667l0.469334 5.973333c8.298667 127.722667-91.029333 235.434667-217.450667 238.762667l-6.058667 0.085333h-74.069333a32 32 0 0 1-3.072-63.850666l3.072-0.149334H757.333333c92.373333 0 165.674667-77.909333 159.658667-170.709333-5.290667-81.813333-76.074667-146.56-160.810667-149.205333L750.72 277.333333h-32.149333c-23.936 0-45.482667-15.893333-51.456-39.466666a160.106667 160.106667 0 0 0-310.229334-0.064c-5.610667 22.4-25.28 37.845333-47.722666 39.402666l-3.776 0.128H266.666667c-92.330667 0-165.653333 77.909333-159.637334 170.709334 5.290667 81.813333 76.074667 146.56 160.810667 149.205333l5.418667 0.085333h69.376a32 32 0 0 1 3.072 63.850667L342.613333 661.333333h-69.376C153.045333 661.333333 50.773333 570.112 43.157333 452.181333 34.858667 324.48 134.186667 216.746667 260.608 213.418667L266.666667 213.333333h30.634666l0.853334-2.88a224.128 224.128 0 0 1 207.68-157.034666L512 53.333333z" /></svg>