<?xml version="1.0" standalone="no"?><!DOCTYPE svg PUBLIC "-//W3C//DTD SVG 1.1//EN" "http://www.w3.org/Graphics/SVG/1.1/DTD/svg11.dtd"><svg class="icon" width="128px" height="128.00px" viewBox="0 0 1024 1024" version="1.1" xmlns="http://www.w3.org/2000/svg"><path d="M674 480H544V350c0-17.7-14.3-32-32-32s-32 14.3-32 32v130H350c-17.7 0-32 14.3-32 32s14.3 32 32 32h130v130c0 17.7 14.3 32 32 32s32-14.3 32-32V544h130c17.7 0 32-14.3 32-32s-14.3-32-32-32zM800.3 124.3H223c-54.4 0-98.7 44.3-98.7 98.7v577.3c0 54.4 44.3 98.7 98.7 98.7h577.3c54.4 0 98.7-44.3 98.7-98.7V223c-0.1-54.4-44.3-98.7-98.7-98.7z m34.6 676c0 19.1-15.6 34.7-34.7 34.7H223c-19.1 0-34.7-15.6-34.7-34.7V223c0-19.1 15.6-34.7 34.7-34.7h577.3c19.1 0 34.7 15.6 34.7 34.7v577.3z" /></svg>