<?xml version="1.0" standalone="no"?><!DOCTYPE svg PUBLIC "-//W3C//DTD SVG 1.1//EN" "http://www.w3.org/Graphics/SVG/1.1/DTD/svg11.dtd"><svg class="icon" width="128px" height="128.00px" viewBox="0 0 1024 1024" version="1.1" xmlns="http://www.w3.org/2000/svg"><path d="M735.3 512.1H288.7c-17.7 0-32 14.3-32 32s14.3 32 32 32h446.6c17.7 0 32-14.3 32-32s-14.3-32-32-32zM544.5 640H288.7c-17.7 0-32 14.3-32 32s14.3 32 32 32h255.8c17.7 0 32-14.3 32-32s-14.4-32-32-32zM831.6 256H704.1v-32.3c0-17.7-14.3-32-32-32s-32 14.3-32 32V256h-256v-31.8c0-17.7-14.3-32-32-32s-32 14.3-32 32V256H193c-35.5 0-64.3 28.8-64.3 64.3v543.6c0 35.5 28.8 64.3 64.3 64.3h638.5c35.5 0 64.3-28.8 64.3-64.3V320.3c0.1-35.5-28.7-64.3-64.2-64.3z m0.3 607.9v0.1c0 0.1-0.2 0.2-0.2 0.2H192.9c-0.1 0-0.2-0.2-0.2-0.2V320.3v-0.1c0-0.1 0.2-0.2 0.2-0.2H320v32c0 17.7 14.3 32 32 32s32-14.3 32-32v-32h256v31.5c0 17.7 14.3 32 32 32s32-14.3 32-32V320h127.5c0.1 0 0.2 0.2 0.2 0.2v543.7z" /></svg>