<?xml version="1.0" standalone="no"?><!DOCTYPE svg PUBLIC "-//W3C//DTD SVG 1.1//EN" "http://www.w3.org/Graphics/SVG/1.1/DTD/svg11.dtd"><svg class="icon" width="128px" height="128.00px" viewBox="0 0 1024 1024" version="1.1" xmlns="http://www.w3.org/2000/svg"><path d="M455.9 162.2h110.8c17.7 0 32-14.3 32-32s-14.3-32-32-32H455.9c-17.7 0-32 14.3-32 32 0 17.6 14.3 32 32 32zM415.8 416c-17.7 0-32.1 14.4-32.1 32.1v255.8c0 17.7 14.4 32.1 32.1 32.1s32.1-14.4 32.1-32.1V448.1c0-17.7-14.4-32.1-32.1-32.1zM896 192.5H130c-17.7 0-32 14.3-32 32s14.3 32 32 32h62.5c-0.1 1.2-0.1 2.4-0.1 3.6v542.5c0 69.1 56 125.1 125.1 125.1h389c69.1 0 125.1-56 125.1-125.1V260.1c0-1.2 0-2.4-0.1-3.6H896c17.7 0 32-14.3 32-32s-14.3-32-32-32zM767.6 802.6c0 33.7-27.4 61.1-61.1 61.1h-389c-33.7 0-61.1-27.4-61.1-61.1V260.1c0-2 1.6-3.6 3.6-3.6h504c2 0 3.6 1.6 3.6 3.6v542.5zM608 416c-17.7 0-32.1 14.4-32.1 32.1v255.8c0 17.7 14.4 32.1 32.1 32.1s32.1-14.4 32.1-32.1V448.1C640 430.4 625.7 416 608 416z" /></svg>