<?xml version="1.0" standalone="no"?><!DOCTYPE svg PUBLIC "-//W3C//DTD SVG 1.1//EN" "http://www.w3.org/Graphics/SVG/1.1/DTD/svg11.dtd"><svg class="icon" width="128px" height="128.00px" viewBox="0 0 1024 1024" version="1.1" xmlns="http://www.w3.org/2000/svg"><path d="M535.3 489.1c6.2 6.2 14.4 9.4 22.6 9.4 8.2 0 16.4-3.1 22.6-9.4l292.7-292.7c12.5-12.5 12.5-32.8 0-45.3-6.2-6.2-14.4-9.4-22.6-9.4s-16.4 3.1-22.6 9.4L535.3 443.9c-12.5 12.5-12.5 32.7 0 45.2zM865.1 383.8c-17.7 0-32 14.3-32 32v385.3c0 17.7-14.3 32-32 32H225.4c-17.7 0-32-14.3-32-32V225.4c0-17.7 14.3-32 32-32h382.7c17.7 0 32-14.3 32-32s-14.3-32-32-32H208.8c-43.9 0-79.4 35.6-79.4 79.4v608.9c0 43.9 35.6 79.4 79.4 79.4h608.9c43.9 0 79.4-35.6 79.4-79.4V415.8c0-17.7-14.3-32-32-32z" /></svg>