<?xml version="1.0" standalone="no"?><!DOCTYPE svg PUBLIC "-//W3C//DTD SVG 1.1//EN" "http://www.w3.org/Graphics/SVG/1.1/DTD/svg11.dtd"><svg class="icon" width="128px" height="128.00px" viewBox="0 0 1024 1024" version="1.1" xmlns="http://www.w3.org/2000/svg"><path d="M853.9 161.3h-681c-41.2 0-74.5 33.4-74.5 74.5v585c0 41.2 33.4 74.5 74.5 74.5h146.5v-64H172.9c-5.8 0-10.5-4.7-10.5-10.5v-585c0-5.8 4.7-10.5 10.5-10.5h681c5.8 0 10.5 4.7 10.5 10.5v585c0 5.8-4.7 10.5-10.5 10.5H704.5v64h149.4c41.2 0 74.5-33.4 74.5-74.5v-585c0-41.2-33.4-74.5-74.5-74.5zM544.9 772.1V447.3h-64v325.9l-81.8-81.8-45.3 45.2 158.6 158.6 158.5-158.6-45.2-45.2z" /></svg>