<?xml version="1.0" standalone="no"?><!DOCTYPE svg PUBLIC "-//W3C//DTD SVG 1.1//EN" "http://www.w3.org/Graphics/SVG/1.1/DTD/svg11.dtd"><svg class="icon" width="128px" height="128.00px" viewBox="0 0 1024 1024" version="1.1" xmlns="http://www.w3.org/2000/svg"><path d="M801.2 570.4l-0.1-0.1c-0.2-0.4-0.5-0.7-0.8-1.1 40.1-25.4 79.1-56.7 116.8-93.7 13.7-13.5 14.5-36.9 1.7-51.5-12.1-13.8-31.9-14.6-44.9-1.8-151.6 149-319.9 192.7-500.7 130.1-75.3-26.1-137.8-66.3-176.9-95.5-18.7-14-34.1-26.8-45.5-36.8-13.2-11.7-32.3-10.3-43.9 3.2l-1.2 1.4 1.1-1.3c-13.1 15.2-11.6 39.4 3.2 52.5 26.5 23.5 71.7 59.8 130.7 93.3-0.1 0.2-0.2 0.3-0.4 0.5-0.1 0.1-0.2 0.3-0.3 0.4-0.4 0.6-0.8 1.1-1.2 1.7l-0.1 0.1c-0.3 0.5-0.7 1.1-1 1.7-0.1 0.2-0.2 0.3-0.3 0.5-0.3 0.6-0.7 1.3-1 1.9l-51.8 115.6c-1.8 4-2.7 8.2-2.8 12.4v1.6c0.1 3.6 0.8 7.2 2.1 10.5 0.3 0.7 0.6 1.5 0.9 2.2 0.3 0.7 0.7 1.4 1 2 0.2 0.4 0.5 0.9 0.8 1.3 3.2 5.2 8 9.6 14.1 12.3 0.5 0.2 1 0.4 1.6 0.7 0.2 0.1 0.3 0.1 0.5 0.2 0.4 0.1 0.7 0.3 1.1 0.4 0.2 0.1 0.4 0.1 0.6 0.2 0.3 0.1 0.6 0.2 1 0.3 0.2 0.1 0.5 0.1 0.7 0.2 0.3 0.1 0.6 0.2 0.9 0.2 0.2 0.1 0.5 0.1 0.7 0.1 0.3 0.1 0.6 0.1 0.9 0.2 0.2 0 0.5 0.1 0.7 0.1 0.3 0 0.6 0.1 0.9 0.1 0.2 0 0.5 0 0.7 0.1 0.3 0 0.6 0.1 0.9 0.1h2.2c0.6 0 1.2 0 1.8-0.1h0.2c0.7 0 1.3-0.1 2-0.2 0.2 0 0.3 0 0.5-0.1 0.6-0.1 1.1-0.2 1.7-0.3 0.1 0 0.2 0 0.3-0.1 0.7-0.1 1.3-0.3 1.9-0.5 0.2 0 0.3-0.1 0.4-0.1 0.5-0.2 1.1-0.3 1.6-0.5 0.1 0 0.2-0.1 0.4-0.1 0.6-0.2 1.2-0.5 1.9-0.8 0.1-0.1 0.3-0.1 0.4-0.2 0.5-0.2 1-0.5 1.5-0.8 0.1-0.1 0.2-0.1 0.4-0.2 0.6-0.3 1.2-0.7 1.7-1 0.1-0.1 0.2-0.1 0.3-0.2 0.5-0.3 1-0.6 1.4-1 0.1-0.1 0.2-0.2 0.4-0.3 0.5-0.4 1.1-0.8 1.6-1.3 0.1-0.1 0.2-0.2 0.3-0.2 0.4-0.4 0.9-0.8 1.3-1.2 0.1-0.1 0.2-0.2 0.4-0.3 0.5-0.5 0.9-1 1.4-1.5l0.2-0.2c0.4-0.5 0.8-0.9 1.2-1.4 0.1-0.1 0.2-0.3 0.3-0.4 0.4-0.6 0.8-1.1 1.2-1.7l0.1-0.1c0.3-0.5 0.7-1.1 1-1.7 0.1-0.2 0.2-0.3 0.3-0.5 0.3-0.6 0.7-1.3 1-1.9l16.1-35.8 35.8-79.8c0.7-1.5 1.2-3 1.6-4.5 17.4 7.9 35.7 15.4 54.7 22.1 14 4.9 28.1 9.3 42 13L369.9 776c-0.1 0.6-0.2 1.2-0.2 1.8-0.8 7.3 1 14.4 4.7 20.3l1.2 1.8 0.9 1.2c0.6 0.8 1.3 1.6 2 2.3l1.1 1.1c4.5 4.2 10.2 7.2 16.8 8.3 0.8 0.1 1.6 0.2 2.3 0.3h0.5c0.8 0.1 1.5 0.1 2.3 0.1h1.4c0.4 0 0.9 0 1.3-0.1h0.2c0.5 0 1-0.1 1.5-0.2 0.2 0 0.3 0 0.5-0.1 0.3-0.1 0.7-0.1 1-0.2 0.2 0 0.4-0.1 0.6-0.1 0.3-0.1 0.6-0.1 0.9-0.2 0.2 0 0.4-0.1 0.6-0.1 0.3-0.1 0.6-0.1 0.8-0.2 0.2-0.1 0.4-0.1 0.6-0.2 0.3-0.1 0.5-0.2 0.8-0.3 0.2-0.1 0.4-0.1 0.6-0.2 0.3-0.1 0.5-0.2 0.8-0.3 0.2-0.1 0.4-0.1 0.6-0.2 0.3-0.1 0.5-0.2 0.8-0.3 0.2-0.1 0.4-0.2 0.5-0.2 0.3-0.1 0.6-0.3 0.9-0.4 0.2-0.1 0.3-0.2 0.5-0.2 0.4-0.2 0.8-0.4 1.1-0.6 0.1 0 0.1-0.1 0.2-0.1 0.4-0.2 0.8-0.5 1.2-0.8 0.1-0.1 0.3-0.2 0.4-0.3 0.3-0.2 0.5-0.4 0.8-0.6 0.2-0.1 0.3-0.2 0.5-0.3 0.2-0.2 0.5-0.4 0.7-0.5 0.2-0.1 0.3-0.3 0.5-0.4 0.2-0.2 0.4-0.4 0.7-0.5 0.2-0.1 0.3-0.3 0.5-0.4l0.6-0.6c0.2-0.1 0.3-0.3 0.5-0.4l0.6-0.6 0.4-0.4c0.2-0.2 0.4-0.4 0.6-0.7l0.4-0.4c0.2-0.2 0.4-0.5 0.6-0.7 0.1-0.1 0.2-0.3 0.3-0.4 0.3-0.4 0.6-0.7 0.8-1.1l0.1-0.1c0.3-0.4 0.6-0.8 0.8-1.2 0.1-0.1 0.2-0.3 0.3-0.4 0.2-0.3 0.3-0.6 0.5-0.9 0.1-0.2 0.2-0.3 0.3-0.5 0.1-0.3 0.3-0.5 0.4-0.8l0.3-0.6c0.1-0.3 0.3-0.5 0.4-0.8l0.3-0.6c0.1-0.3 0.2-0.5 0.3-0.8 0.1-0.2 0.2-0.4 0.2-0.6 0.1-0.3 0.2-0.6 0.3-0.8 0.1-0.2 0.1-0.4 0.2-0.6l0.3-0.9c0.1-0.2 0.1-0.4 0.2-0.6 0.1-0.3 0.2-0.7 0.2-1 0-0.2 0.1-0.3 0.1-0.5l0.3-1.5 23.1-140.6c24.4 3.6 48.8 5.4 72.9 5.4 13.2 0 26.3-0.5 39.4-1.6l18.4 111.9 4 24.4 0.3 1.5c0 0.2 0.1 0.3 0.1 0.5 0.1 0.3 0.2 0.7 0.2 1 0.1 0.2 0.1 0.4 0.2 0.6l0.3 0.9c0.1 0.2 0.1 0.4 0.2 0.6 0.1 0.3 0.2 0.6 0.3 0.8 0.1 0.2 0.2 0.4 0.2 0.6 0.1 0.3 0.2 0.5 0.3 0.8l0.3 0.6c0.1 0.3 0.2 0.5 0.4 0.8l0.3 0.6c0.1 0.3 0.3 0.5 0.4 0.8 0.1 0.2 0.2 0.3 0.3 0.5 0.2 0.3 0.3 0.6 0.5 0.9 0.1 0.1 0.2 0.3 0.2 0.4 0.3 0.4 0.5 0.8 0.8 1.2v0.1c0.3 0.4 0.5 0.8 0.8 1.1 0.1 0.1 0.2 0.3 0.3 0.4 0.2 0.3 0.4 0.5 0.6 0.8l0.4 0.4c0.2 0.2 0.4 0.4 0.6 0.7l0.4 0.4 0.6 0.6 0.4 0.4 0.6 0.6c0.2 0.1 0.3 0.3 0.5 0.4 0.2 0.2 0.4 0.4 0.7 0.6 0.2 0.1 0.3 0.3 0.5 0.4 0.2 0.2 0.5 0.4 0.7 0.5 0.2 0.1 0.3 0.2 0.5 0.3 0.3 0.2 0.5 0.4 0.8 0.6 0.1 0.1 0.3 0.2 0.4 0.3 0.4 0.3 0.8 0.5 1.2 0.8 0 0 0.1 0 0.1 0.1 0.4 0.2 0.8 0.4 1.1 0.6 0.1 0.1 0.3 0.1 0.4 0.2 0.3 0.1 0.6 0.3 0.9 0.4 0.2 0.1 0.4 0.2 0.5 0.2 0.3 0.1 0.5 0.2 0.8 0.4 0.2 0.1 0.4 0.2 0.6 0.2 0.3 0.1 0.5 0.2 0.8 0.3 0.2 0.1 0.4 0.1 0.6 0.2 0.3 0.1 0.5 0.2 0.8 0.3 0.2 0.1 0.4 0.1 0.6 0.2 0.3 0.1 0.6 0.2 0.8 0.2 0.2 0.1 0.4 0.1 0.6 0.1 0.3 0.1 0.6 0.1 0.9 0.2 0.2 0 0.4 0.1 0.6 0.1 0.3 0.1 0.7 0.1 1 0.2 0.2 0 0.3 0.1 0.5 0.1 0.5 0.1 1 0.1 1.5 0.2h0.2c0.4 0 0.9 0.1 1.3 0.1H622.4c0.8 0 1.5 0 2.3-0.1h0.5c0.8-0.1 1.6-0.2 2.3-0.3 9.3-1.5 16.9-6.9 21.7-14.2 0.8-1.3 1.6-2.6 2.2-4 0.4-0.9 0.8-1.9 1.2-2.9 0.5-1.5 0.9-3 1.2-4.5s0.5-3.1 0.5-4.7v-1.6c0-1.1-0.1-2.2-0.2-3.2-0.1-0.5-0.1-1.1-0.2-1.6L631.7 640c38.5-8.4 76.2-21.7 113.1-39.7 0.1 0.2 0.1 0.3 0.2 0.5l51.8 115.6c0.3 0.7 0.6 1.3 1 1.9 0.1 0.2 0.2 0.3 0.3 0.5 0.3 0.6 0.6 1.1 1 1.7l0.1 0.1c0.4 0.6 0.8 1.2 1.2 1.7 0.1 0.1 0.2 0.3 0.3 0.4 0.4 0.5 0.8 1 1.1 1.4l0.2 0.2c0.5 0.5 0.9 1 1.4 1.5 0.1 0.1 0.2 0.2 0.4 0.3 0.4 0.4 0.9 0.8 1.3 1.2 0.1 0.1 0.2 0.2 0.3 0.2 0.5 0.4 1 0.9 1.6 1.3 0.1 0.1 0.2 0.2 0.4 0.3 0.5 0.3 0.9 0.7 1.4 1 0.1 0.1 0.2 0.1 0.3 0.2 0.6 0.4 1.1 0.7 1.7 1 0.1 0.1 0.2 0.1 0.4 0.2 0.5 0.3 1 0.5 1.5 0.8 0.1 0.1 0.3 0.1 0.4 0.2 0.6 0.3 1.2 0.5 1.9 0.8 0.1 0 0.2 0.1 0.4 0.1 0.5 0.2 1.1 0.4 1.6 0.5 0.2 0 0.3 0.1 0.5 0.1 0.6 0.2 1.3 0.3 1.9 0.5 0.1 0 0.2 0 0.3 0.1 0.6 0.1 1.1 0.2 1.7 0.3 0.2 0 0.3 0.1 0.5 0.1 0.7 0.1 1.3 0.2 2 0.2h0.2c0.6 0 1.2 0.1 1.8 0.1h2.2c0.3 0 0.6 0 0.9-0.1 0.2 0 0.5 0 0.7-0.1 0.3 0 0.6-0.1 0.9-0.1 0.2 0 0.5-0.1 0.7-0.1 0.3 0 0.6-0.1 0.9-0.2 0.2 0 0.5-0.1 0.7-0.1 0.3-0.1 0.6-0.1 0.9-0.2 0.2-0.1 0.5-0.1 0.7-0.2 0.3-0.1 0.6-0.2 1-0.3 0.2-0.1 0.4-0.1 0.6-0.2 0.4-0.1 0.7-0.2 1.1-0.4 0.2-0.1 0.3-0.1 0.5-0.2 0.5-0.2 1-0.4 1.6-0.7 16.1-7.2 23.3-26.2 16.1-42.3l-51.8-115.6c-0.3-0.7-0.6-1.3-1-1.9-0.1-0.2-0.2-0.3-0.3-0.5-0.4-0.5-0.7-1.1-1.1-1.7z" /></svg>