<?xml version="1.0" standalone="no"?><!DOCTYPE svg PUBLIC "-//W3C//DTD SVG 1.1//EN" "http://www.w3.org/Graphics/SVG/1.1/DTD/svg11.dtd"><svg class="icon" width="128px" height="128.00px" viewBox="0 0 1024 1024" version="1.1" xmlns="http://www.w3.org/2000/svg"><path d="M512 268.3C264.8 268.3 64.4 377.4 64.4 512S264.8 755.7 512 755.7 959.6 646.6 959.6 512 759.2 268.3 512 268.3z m361.8 299.3c-16.9 21.7-43.1 42.6-76 60.5-36 19.6-78.4 35.1-126 46.1-50.5 11.6-104.3 17.5-159.8 17.5s-109.4-5.9-159.8-17.5c-47.6-11-90-26.5-126-46.1-32.8-17.9-59.1-38.8-76-60.5-14.4-18.5-21.7-37.3-21.7-55.6 0-18.3 7.3-37 21.7-55.6 16.9-21.7 43.1-42.6 76-60.5 36-19.6 78.4-35.1 126-46.1 50.5-11.6 104.3-17.5 159.8-17.5s109.4 5.9 159.8 17.5c47.6 11 90 26.5 126 46.1 32.8 17.9 59.1 38.8 76 60.5 14.4 18.5 21.7 37.3 21.7 55.6 0.1 18.3-7.2 37-21.7 55.6zM617.7 430.4c-28.7-16.2-66.2-25.1-105.7-25.1s-77 8.9-105.7 25.1c-35 19.7-54.3 48.7-54.3 81.6 0 32.9 19.3 61.8 54.3 81.6 28.7 16.2 66.2 25.1 105.7 25.1s77-8.9 105.7-25.1c35-19.7 54.3-48.7 54.3-81.6 0-32.9-19.3-61.8-54.3-81.6zM593.6 536c-21 11.9-50.8 18.6-81.6 18.6-30.8 0-60.6-6.8-81.6-18.6-17.1-9.6-23.3-19.6-23.3-24 0-4.4 6.2-14.4 23.3-24 21-11.9 50.8-18.6 81.6-18.6 30.8 0 60.6 6.8 81.6 18.6 17.1 9.6 23.3 19.6 23.3 24-0.1 4.4-6.3 14.4-23.3 24z" /></svg>