<?xml version="1.0" standalone="no"?><!DOCTYPE svg PUBLIC "-//W3C//DTD SVG 1.1//EN" "http://www.w3.org/Graphics/SVG/1.1/DTD/svg11.dtd"><svg class="icon" width="128px" height="128.00px" viewBox="0 0 1024 1024" version="1.1" xmlns="http://www.w3.org/2000/svg"><path d="M480.1 639.9H224.3c-17.7 0-32 14.3-32 32s14.3 32 32 32h255.8c17.7 0 32-14.3 32-32s-14.3-32-32-32zM959.1 440.7c0.1-0.7 0.2-1.3 0.2-2V333.2c0-42.6-34.6-77.2-77.2-77.2H515.2c-1.1 0-2.2 0-3.2 0.1-0.5-35.6-29.5-64.3-65.2-64.3h-318c-36 0-65.2 29.2-65.2 65.2v605.8c0 36 29.2 65.2 65.2 65.2h765.7c36 0 65.2-29.2 65.2-65.2V449c0-2.8-0.2-5.6-0.6-8.3zM512 323.2c0-1.8 1.4-3.2 3.2-3.2h366.9c7.3 0 13.2 5.9 13.2 13.2v50.6H513.6c-1-0.5-1.6-1.6-1.6-2.8v-57.8z m383.7 539.6c0 0.7-0.5 1.2-1.2 1.2H128.8c-0.7 0-1.2-0.5-1.2-1.2V257c0-0.7 0.5-1.2 1.2-1.2h318c0.7 0 1.2 0.5 1.2 1.2v126.8h0.1c1.5 35.8 31 64.4 67.1 64.4h380.2c0.2 0.2 0.3 0.5 0.3 0.8v413.8z" /></svg>