<?xml version="1.0" standalone="no"?><!DOCTYPE svg PUBLIC "-//W3C//DTD SVG 1.1//EN" "http://www.w3.org/Graphics/SVG/1.1/DTD/svg11.dtd"><svg class="icon" width="128px" height="128.00px" viewBox="0 0 1024 1024" version="1.1" xmlns="http://www.w3.org/2000/svg"><path d="M694.5 266.7c46.6 0 90.5 18.2 123.4 51.1 33 33 51.1 76.8 51.1 123.4 0 25.1-5.6 48.6-17.2 71.6-11 22.1-27.5 43.9-50.3 66.6l-280.7 281c-3 3-6.4 3.6-8.7 3.6-2.3 0-5.7-0.6-8.7-3.6L220.3 577.2c-20.6-20.6-36.5-42.2-47.4-64.2-11.5-23.3-17.3-47.5-17.3-71.7 0-46.6 18.2-90.5 51.1-123.4 33-33 76.8-51.1 123.4-51.1 16.6 0 53.3 12.1 106.6 46.1 22.6 14.4 48.7 22 75.5 22 26.8 0 52.9-7.6 75.5-22 53.4-34.1 90.2-46.2 106.8-46.2m0-64c-44.4 0-102.6 31.6-141.1 56.1-12.5 8-26.8 12-41.1 12s-28.6-4-41.1-12c-38.5-24.6-96.7-56.1-141-56.1-131.7 0-238.5 106.8-238.5 238.5 0 72.5 35.9 133.7 83.4 181.2l283.1 283.1c14.9 14.9 34.4 22.3 53.9 22.3s39-7.4 53.9-22.3l280.8-280.8C897.9 573.6 933 515 933 441.2c0-131.7-106.8-238.5-238.5-238.5z" /></svg>