<?xml version="1.0" standalone="no"?><!DOCTYPE svg PUBLIC "-//W3C//DTD SVG 1.1//EN" "http://www.w3.org/Graphics/SVG/1.1/DTD/svg11.dtd"><svg class="icon" width="128px" height="128.00px" viewBox="0 0 1024 1024" version="1.1" xmlns="http://www.w3.org/2000/svg"><path d="M512 64.7C264.9 64.7 64.7 264.9 64.7 512S264.9 959.3 512 959.3 959.3 759.1 959.3 512 759.1 64.7 512 64.7z m271.1 718.4c-35.2 35.2-76.2 62.9-121.9 82.2-47.2 20-97.4 30.1-149.2 30.1s-102-10.1-149.2-30.1c-45.6-19.3-86.6-47-121.9-82.2-35.2-35.2-62.9-76.2-82.2-121.9-20-47.2-30.1-97.4-30.1-149.2s10.1-102 30.1-149.2c19.3-45.6 47-86.6 82.2-121.9 35.2-35.2 76.2-62.9 121.9-82.2 47.2-20 97.4-30.1 149.2-30.1s102 10.1 149.2 30.1c45.6 19.3 86.6 47 121.9 82.2 35.2 35.2 62.9 76.2 82.2 121.9 20 47.2 30.1 97.4 30.1 149.2s-10.1 102-30.1 149.2c-19.4 45.6-47 86.6-82.2 121.9zM512 304.2c-17.7 0-32 11.9-32 26.6v266.4c0 14.7 14.3 26.6 32 26.6s32-11.9 32-26.6V330.8c0-14.7-14.3-26.6-32-26.6zM512 687.8m-32 0a32 32 0 1 0 64 0 32 32 0 1 0-64 0Z" /></svg>