<?xml version="1.0" standalone="no"?><!DOCTYPE svg PUBLIC "-//W3C//DTD SVG 1.1//EN" "http://www.w3.org/Graphics/SVG/1.1/DTD/svg11.dtd"><svg class="icon" width="128px" height="128.00px" viewBox="0 0 1024 1024" version="1.1" xmlns="http://www.w3.org/2000/svg"><path d="M380.6 478.9h127.8c17.7 0 32-14.3 32-32s-14.3-32-32-32H380.6c-17.7 0-32 14.3-32 32s14.3 32 32 32zM636.4 542.7H380.6c-17.7 0-32 14.3-32 32s14.3 32 32 32h255.8c17.7 0 32-14.3 32-32s-14.3-32-32-32zM636.4 670.5H380.6c-17.7 0-32 14.3-32 32s14.3 32 32 32h255.8c17.7 0 32-14.3 32-32 0-17.6-14.3-32-32-32zM717.1 191.8h-47.5c-11.6-36.9-46-63.7-86.7-63.7H441.2c-40.7 0-75.2 26.8-86.7 63.7H307c-81 0-146.7 65.7-146.7 146.7v473c0 81 65.7 146.7 146.7 146.7h410.1c81 0 146.7-65.7 146.7-146.7v-473c-0.1-81-65.7-146.7-146.7-146.7zM414.3 219c0-14.8 12-26.9 26.9-26.9h141.7c14.8 0 26.9 12 26.9 26.9v10.3c0 14.8-12 26.9-26.9 26.9H441.2c-14.8 0-26.9-12-26.9-26.9V219z m385.4 592.4c0 45.6-37.1 82.7-82.7 82.7H306.9c-45.6 0-82.7-37.1-82.7-82.7v-473c0-45.6 37.1-82.7 82.7-82.7h47.3c11.3 37.2 46 64.3 86.9 64.3h141.7c40.9 0 75.6-27.1 86.9-64.3H717c45.6 0 82.7 37.1 82.7 82.7v473z" /></svg>