<?xml version="1.0" standalone="no"?><!DOCTYPE svg PUBLIC "-//W3C//DTD SVG 1.1//EN" "http://www.w3.org/Graphics/SVG/1.1/DTD/svg11.dtd"><svg class="icon" width="128px" height="128.00px" viewBox="0 0 1024 1024" version="1.1" xmlns="http://www.w3.org/2000/svg"><path d="M896 640c-17.7 0-32 14.3-32 32v191.7H162V672c0-17.7-14.3-32-32-32s-32 14.3-32 32v223.7c0 17.7 14.3 32 32 32h766c17.7 0 32-14.3 32-32V672c0-17.7-14.3-32-32-32zM489.3 757.7c6.3 6.3 14.5 9.4 22.7 9.4h1.6c0.3 0 0.5 0 0.7-0.1 0.3 0 0.5 0 0.8-0.1 0.3 0 0.6-0.1 0.9-0.1 0.2 0 0.4 0 0.6-0.1 0.3 0 0.7-0.1 1-0.2 0.2 0 0.4-0.1 0.5-0.1 0.3-0.1 0.7-0.1 1-0.2 0.2 0 0.3-0.1 0.5-0.1 0.3-0.1 0.6-0.2 1-0.3 0.2-0.1 0.4-0.1 0.5-0.2l0.9-0.3c0.2-0.1 0.4-0.1 0.6-0.2 0.3-0.1 0.5-0.2 0.8-0.3 0.2-0.1 0.5-0.2 0.7-0.3 0.2-0.1 0.5-0.2 0.7-0.3 0.3-0.1 0.5-0.2 0.8-0.3l0.6-0.3c0.3-0.1 0.6-0.3 0.8-0.4 0.2-0.1 0.3-0.2 0.5-0.3 0.3-0.2 0.6-0.3 0.9-0.5 0.1-0.1 0.3-0.2 0.4-0.3l0.9-0.6c0.1-0.1 0.3-0.2 0.4-0.3 0.3-0.2 0.6-0.4 0.8-0.6 0.2-0.1 0.3-0.2 0.5-0.4s0.5-0.4 0.7-0.6c0.2-0.2 0.4-0.4 0.6-0.5 0.2-0.2 0.4-0.3 0.6-0.5 0.4-0.4 0.8-0.7 1.1-1.1l231.1-231.1c12.5-12.5 12.5-32.8 0-45.3s-32.8-12.5-45.3 0L544 657.8V224.7c0-17.7-14.3-32-32-32s-32 14.3-32 32v433.2L303.4 481.3c-12.5-12.5-32.8-12.5-45.3 0s-12.5 32.8 0 45.3l231.2 231.1z" /></svg>