<?xml version="1.0" standalone="no"?><!DOCTYPE svg PUBLIC "-//W3C//DTD SVG 1.1//EN" "http://www.w3.org/Graphics/SVG/1.1/DTD/svg11.dtd"><svg class="icon" width="128px" height="128.00px" viewBox="0 0 1024 1024" version="1.1" xmlns="http://www.w3.org/2000/svg"><path d="M684.6 355.3H671v-31.6c0-88.2-71.5-159.6-159.6-159.6-88.2 0-159.6 71.5-159.6 159.6v31.6h-12.4c-81 0-146.7 65.7-146.7 146.7v246.6c0 81 65.7 146.7 146.7 146.7h345.3c81 0 146.7-65.7 146.7-146.7V502c-0.2-81-65.8-146.7-146.8-146.7z m-268.9-31.5c0-52.7 42.9-95.6 95.6-95.6 52.7 0 95.6 42.9 95.6 95.6v31.3H415.7v-31.3z m351.5 424.8c0 45.6-37.1 82.7-82.7 82.7H339.3c-45.6 0-82.7-37.1-82.7-82.7V502c0-45.6 37.1-82.7 82.7-82.7h345.3c45.6 0 82.7 37.1 82.7 82.7v246.6zM512 544.1c-17.7 0-32 14.3-32 32v127.7c0 17.7 14.3 32 32 32s32-14.3 32-32V576.1c0-17.6-14.3-32-32-32z" /></svg>