<?xml version="1.0" standalone="no"?><!DOCTYPE svg PUBLIC "-//W3C//DTD SVG 1.1//EN" "http://www.w3.org/Graphics/SVG/1.1/DTD/svg11.dtd"><svg class="icon" width="128px" height="128.00px" viewBox="0 0 1024 1024" version="1.1" xmlns="http://www.w3.org/2000/svg"><path d="M864.2 703.9h-96V418.5c0-130.7-97.9-238.6-224.5-254.2 0.2-1.5 0.3-2.9 0.3-4.4v-29.6c0-17.7-14.3-32-32-32s-32 14.3-32 32v29.6c0 1.5 0.1 3 0.3 4.4-126.5 15.6-224.4 123.5-224.4 254.2V704H160c-17.7 0-32 14.3-32 32s14.3 32 32 32h195.6c14.8 72.8 79.2 127.6 156.4 127.6S653.6 840.8 668.4 768h195.8c17.7 0 32-14.3 32-32s-14.4-32.1-32-32.1zM323.6 418.5c0-50.3 19.6-97.7 55.2-133.3C414.4 249.6 461.7 230 512 230c50.3 0 97.7 19.6 133.3 55.2 35.6 35.6 55.2 82.9 55.2 133.3v281.7H323.6V418.5zM512 831.6c-41.4 0-76.8-26.5-90-63.4h180c-13.2 36.9-48.6 63.4-90 63.4z" /></svg>