<?xml version="1.0" standalone="no"?><!DOCTYPE svg PUBLIC "-//W3C//DTD SVG 1.1//EN" "http://www.w3.org/Graphics/SVG/1.1/DTD/svg11.dtd"><svg class="icon" width="128px" height="128.00px" viewBox="0 0 1024 1024" version="1.1" xmlns="http://www.w3.org/2000/svg"><path d="M540.8 322.2c-128.5-18.7-237.3 90.1-218.6 218.6 12.1 83.1 77.8 148.8 160.9 160.9 128.5 18.7 237.3-90.1 218.6-218.6-12-83-77.8-148.8-160.9-160.9z m99.1 191.5c-0.4 32.7-13.4 64.1-36.2 87.5-24.7 25.3-58 39.1-93.3 38.7-32.7-0.4-64.1-13.4-87.5-36.2-25.3-24.7-39.1-58-38.7-93.3 0.4-32.7 13.5-64.1 36.2-87.5 24.7-25.3 58-39.1 93.3-38.7 32.7 0.4 64.1 13.4 87.5 36.2 25.3 24.7 39.1 57.9 38.7 93.3zM939.8 478.2L755.2 158.4c-12.1-20.9-34.4-33.8-58.5-33.8H327.4c-24.1 0-46.5 12.9-58.5 33.8L84.2 478.2a67.482 67.482 0 0 0 0 67.6l184.6 319.8c12.1 20.9 34.4 33.8 58.5 33.8h369.3c24.1 0 46.5-12.9 58.5-33.8l184.6-319.8c12.2-20.9 12.2-46.7 0.1-67.6z m-55.4 35.6L699.8 833.6c-0.6 1.1-1.8 1.8-3.1 1.8H327.4c-1.3 0-2.5-0.7-3.1-1.8L139.6 513.8c-0.6-1.1-0.6-2.5 0-3.6l184.6-319.8c0.6-1.1 1.8-1.8 3.1-1.8h369.3c1.3 0 2.5 0.7 3.1 1.8l184.6 319.8c0.7 1.1 0.7 2.5 0.1 3.6z" /></svg>