<?xml version="1.0" standalone="no"?><!DOCTYPE svg PUBLIC "-//W3C//DTD SVG 1.1//EN" "http://www.w3.org/Graphics/SVG/1.1/DTD/svg11.dtd"><svg class="icon" width="128px" height="128.00px" viewBox="0 0 1024 1024" version="1.1" xmlns="http://www.w3.org/2000/svg"><path d="M512 64.7C264.9 64.7 64.7 264.9 64.7 512S264.9 959.3 512 959.3 959.3 759.1 959.3 512 759.1 64.7 512 64.7z m271.1 718.4c-35.2 35.2-76.2 62.9-121.9 82.2-47.2 20-97.4 30.1-149.2 30.1s-102-10.1-149.2-30.1c-45.6-19.3-86.6-47-121.9-82.2-35.2-35.2-62.9-76.2-82.2-121.9-20-47.2-30.1-97.4-30.1-149.2s10.1-102 30.1-149.2c19.3-45.6 47-86.6 82.2-121.9 35.2-35.2 76.2-62.9 121.9-82.2 47.2-20 97.4-30.1 149.2-30.1s102 10.1 149.2 30.1c45.6 19.3 86.6 47 121.9 82.2 35.2 35.2 62.9 76.2 82.2 121.9 20 47.2 30.1 97.4 30.1 149.2s-10.1 102-30.1 149.2c-19.4 45.6-47 86.6-82.2 121.9zM697.6 387.5c-8.2 0-16.4 3.1-22.6 9.4L471.3 600.5 349 478.2c-6.2-6.2-14.4-9.4-22.6-9.4-8.2 0-16.4 3.1-22.6 9.4-12.5 12.5-12.5 32.8 0 45.3l144.9 144.9c6.2 6.2 14.4 9.4 22.6 9.4 1.6 0 3.2-0.1 4.9-0.4 0.8-0.1 1.6-0.3 2.4-0.5 0.2-0.1 0.5-0.1 0.7-0.2 5.4-1.4 10.4-4.2 14.6-8.3l226.3-226.3c12.5-12.5 12.5-32.8 0-45.3-6.2-6.2-14.4-9.3-22.6-9.3z" /></svg>