<?xml version="1.0" standalone="no"?><!DOCTYPE svg PUBLIC "-//W3C//DTD SVG 1.1//EN" "http://www.w3.org/Graphics/SVG/1.1/DTD/svg11.dtd"><svg class="icon" width="128px" height="128.00px" viewBox="0 0 1024 1024" version="1.1" xmlns="http://www.w3.org/2000/svg"><path d="M896 640c-17.7 0-32 14.3-32 32v191.7H162V672c0-17.7-14.3-32-32-32s-32 14.3-32 32v223.7c0 17.7 14.3 32 32 32h766c17.7 0 32-14.3 32-32V672c0-17.7-14.3-32-32-32zM258.2 478.4c12.5 12.5 32.8 12.5 45.3 0L480 301.8V735c0 17.7 14.3 32 32 32s32-14.3 32-32V301.9l176.5 176.5c12.5 12.5 32.8 12.5 45.3 0s12.5-32.8 0-45.3l-231.2-231c-0.4-0.4-0.8-0.7-1.1-1.1-0.2-0.2-0.4-0.3-0.6-0.5-0.2-0.2-0.4-0.4-0.6-0.5-0.2-0.2-0.5-0.4-0.7-0.6-0.2-0.1-0.3-0.3-0.5-0.4-0.3-0.2-0.6-0.4-0.8-0.6-0.1-0.1-0.3-0.2-0.4-0.3l-0.9-0.6c-0.1-0.1-0.3-0.2-0.4-0.3-0.3-0.2-0.6-0.3-0.9-0.5-0.2-0.1-0.3-0.2-0.5-0.3-0.3-0.1-0.6-0.3-0.8-0.4l-0.6-0.3c-0.3-0.1-0.5-0.2-0.8-0.3-0.2-0.1-0.5-0.2-0.7-0.3-0.2-0.1-0.5-0.2-0.7-0.3-0.3-0.1-0.5-0.2-0.8-0.3-0.2-0.1-0.4-0.1-0.6-0.2l-0.9-0.3c-0.2-0.1-0.4-0.1-0.5-0.2-0.3-0.1-0.6-0.2-1-0.3-0.2 0-0.3-0.1-0.5-0.1-0.3-0.1-0.7-0.2-1-0.2-0.2 0-0.4-0.1-0.5-0.1-0.3-0.1-0.7-0.1-1-0.2-0.2 0-0.4-0.1-0.6-0.1-0.3 0-0.6-0.1-0.9-0.1-0.3 0-0.5 0-0.8-0.1-0.2 0-0.5 0-0.7-0.1h-1.6c-8.2 0-16.4 3.1-22.7 9.4L258.2 433.1c-12.5 12.5-12.5 32.8 0 45.3z" /></svg>