<?xml version="1.0" standalone="no"?><!DOCTYPE svg PUBLIC "-//W3C//DTD SVG 1.1//EN" "http://www.w3.org/Graphics/SVG/1.1/DTD/svg11.dtd"><svg class="icon" width="128px" height="128.00px" viewBox="0 0 1024 1024" version="1.1" xmlns="http://www.w3.org/2000/svg"><path d="M907.7 162H118.3c-11.2 0-20.3 9.1-20.3 20.3v565.2c0 11.2 9.1 20.3 20.3 20.3H480v63.8H223.7c-17.7 0-32 14.3-32 32s14.3 32 32 32h575.5c17.7 0 32-14.3 32-32s-14.3-32-32-32H544v-63.8h363.7c11.2 0 20.3-9.1 20.3-20.3V182.3c0-11.2-9.1-20.3-20.3-20.3zM864 703.9H162V226h702v477.9zM352 576.1c17.7 0 32-14.3 32-32V416.3c0-17.7-14.3-32-32-32s-32 14.3-32 32v127.8c0 17.7 14.4 32 32 32zM511.7 576.1c17.7 0 32-14.3 32-32V352c0-17.7-14.3-32-32-32s-32 14.3-32 32v192.1c0 17.7 14.3 32 32 32zM672 576.1c17.7 0 32-14.3 32-32V480c0-17.7-14.3-32-32-32s-32 14.3-32 32v64.1c0 17.7 14.3 32 32 32z" /></svg>