<?xml version="1.0" standalone="no"?><!DOCTYPE svg PUBLIC "-//W3C//DTD SVG 1.1//EN" "http://www.w3.org/Graphics/SVG/1.1/DTD/svg11.dtd"><svg class="icon" width="128px" height="128.00px" viewBox="0 0 1024 1024" version="1.1" xmlns="http://www.w3.org/2000/svg"><path d="M914.005333 655.274667c-163.413333-49.194667-258.346667-78.506667-284.928-87.978667a529.493333 529.493333 0 0 0 56.32-141.653333H546.133333V378.538667h170.666667v-29.013334h-170.666667V270.677333h-65.536c-11.946667 0-13.312 10.581333-13.312 10.581334v67.925333H307.2v29.013333h160.085333v47.104H336.213333v26.282667h265.557334a468.138667 468.138667 0 0 1-37.888 92.842667c-60.074667-19.797333-93.525333-33.450667-166.912-40.277334-138.922667-13.312-171.008 63.146667-176.128 109.909334C213.333333 685.397333 276.48 743.424 370.688 743.424s157.013333-43.690667 216.746667-116.053333c49.792 23.808 142.421333 65.066667 277.930666 123.818666A426.24 426.24 0 0 1 512 938.666667C276.352 938.666667 85.333333 747.648 85.333333 512S276.352 85.333333 512 85.333333s426.666667 191.018667 426.666667 426.666667a425.941333 425.941333 0 0 1-24.661334 143.274667z m-554.24 43.093333c-99.669333 0-115.370667-63.146667-110.250666-89.429333 5.12-26.282667 34.133333-60.416 89.770666-60.416 63.829333 0 120.832 16.384 189.44 49.493333-48.469333 63.146667-107.52 100.352-168.96 100.352z" /></svg>