<?xml version="1.0" standalone="no"?><!DOCTYPE svg PUBLIC "-//W3C//DTD SVG 1.1//EN" "http://www.w3.org/Graphics/SVG/1.1/DTD/svg11.dtd"><svg class="icon" width="128px" height="128.00px" viewBox="0 0 1024 1024" version="1.1" xmlns="http://www.w3.org/2000/svg"><path d="M810.666667 554.666667H213.333333v298.666666h597.333334v-298.666666z m0-85.333334a298.666667 298.666667 0 0 0-597.333334 0h597.333334zM272.298667 169.301333A382.378667 382.378667 0 0 1 512 85.333333c90.666667 0 173.994667 31.402667 239.701333 83.968l61.994667-61.994666 60.330667 60.330666-61.994667 61.994667A382.378667 382.378667 0 0 1 896 469.333333v426.666667a42.666667 42.666667 0 0 1-42.666667 42.666667H170.666667a42.666667 42.666667 0 0 1-42.666667-42.666667V469.333333c0-90.666667 31.402667-173.994667 83.968-239.701333L149.973333 167.68l60.330667-60.330667 61.994667 61.994667zM384 384a42.666667 42.666667 0 1 1 0-85.333333 42.666667 42.666667 0 0 1 0 85.333333z m256 0a42.666667 42.666667 0 1 1 0-85.333333 42.666667 42.666667 0 0 1 0 85.333333z" /></svg>