<?xml version="1.0" standalone="no"?><!DOCTYPE svg PUBLIC "-//W3C//DTD SVG 1.1//EN" "http://www.w3.org/Graphics/SVG/1.1/DTD/svg11.dtd"><svg class="icon" width="128px" height="128.00px" viewBox="0 0 1024 1024" version="1.1" xmlns="http://www.w3.org/2000/svg"><path d="M419.285333 928.554667C228.266667 886.229333 85.333333 715.818667 85.333333 512c0-77.738667 20.778667-150.613333 57.130667-213.418667l182.741333 316.544a213.290667 213.290667 0 0 0 212.309334 108.714667l-118.186667 204.714667zM512 938.666667l182.912-316.8A212.352 212.352 0 0 0 725.333333 512a212.394667 212.394667 0 0 0-42.666666-128h236.458666A425.813333 425.813333 0 0 1 938.666667 512c0 235.648-191.018667 426.666667-426.666667 426.666667z m109.738667-360.746667a127.957333 127.957333 0 0 1-220.586667-1.92l-1.237333-2.133333a128 128 0 1 1 222.933333 2.133333l-1.109333 1.92z m-424.106667-354.389333A425.557333 425.557333 0 0 1 512 85.333333a426.496 426.496 0 0 1 369.578667 213.333334H512a213.376 213.376 0 0 0-196.224 129.493333L197.632 223.530667z" /></svg>