<?xml version="1.0" standalone="no"?><!DOCTYPE svg PUBLIC "-//W3C//DTD SVG 1.1//EN" "http://www.w3.org/Graphics/SVG/1.1/DTD/svg11.dtd"><svg class="icon" width="128px" height="128.00px" viewBox="0 0 1024 1024" version="1.1" xmlns="http://www.w3.org/2000/svg"><path d="M880.810667 366.336c-7.253333-30.336-18.816-61.781333-33.024-86.229333-32.896-56.704-62.464-95.445333-135.552-141.653334C639.146667 92.245333 557.909333 85.333333 519.253333 85.333333c-103.04 0-179.669333 36.693333-235.733333 80.512C142.677333 276.053333 128 469.333333 128 469.333333s52.096-87.253333 151.04-150.442666C338.901333 280.704 424.149333 256 493.568 256 677.76 256 682.666667 426.666667 682.666667 426.666667H384c0-85.333333 42.666667-128 42.666667-128s-213.333333 85.333333-213.333334 300.544c0 20.778667-0.128 58.538667 10.581334 97.408 9.898667 35.968 29.866667 72.746667 48.298666 100.394666 52.096 78.165333 129.92 111.530667 167.082667 123.904 42.496 14.165333 86.570667 17.749333 128.426667 17.749334 116.053333 0 208.085333-37.802667 242.944-54.4v-178.005334c-32.341333 19.370667-114.304 61.738667-213.333334 61.738667-213.333333 0-213.333333-170.666667-213.333333-170.666667h512v-106.24s-1.664-67.968-15.189333-124.757333z" /></svg>