<?xml version="1.0" standalone="no"?><!DOCTYPE svg PUBLIC "-//W3C//DTD SVG 1.1//EN" "http://www.w3.org/Graphics/SVG/1.1/DTD/svg11.dtd"><svg class="icon" width="128px" height="128.00px" viewBox="0 0 1024 1024" version="1.1" xmlns="http://www.w3.org/2000/svg"><path d="M938.666667 512c0 235.648-191.018667 426.666667-426.666667 426.666667S85.333333 747.648 85.333333 512c0-85.162667 24.96-164.48 67.925334-231.082667 0.554667-47.018667 24.618667-102.741333 57.130666-131.242666 1.962667 36.394667 14.933333 64.512 38.826667 84.309333a174.72 174.72 0 0 1 97.877333 8.277333c31.914667-38.4 85.888-43.690667 118.997334-30.762666-32.128 16.64-56.32 49.28-65.706667 74.88 4.48 19.584 20.352 34.517333 40.192 37.717333 56.32 5.546667 67.114667 9.984 68.778667 16.341333 0.085333 1.706667 0.085333 3.370667 0 5.034667-7.210667 32.938667-33.450667 41.685333-49.365334 47.957333-23.466667 9.216-39.808 18.645333-49.066666 28.288 5.376 25.301333-10.282667 53.802667-10.282667 53.802667-6.997333-8.106667-18.56-13.781333-34.688-16.896a38.272 38.272 0 0 0-16.64 15.786667c-6.144 13.909333-6.144 25.088 1.962667 43.264 4.906667 10.965333 40.32 41.045333 49.621333 46.336 40.789333 23.04 69.888-0.853333 101.248-5.290667a83.2 83.2 0 0 1 79.317333 30.762667c11.648 15.274667-1.109333 29.696-16.085333 24.96-15.530667-4.992-34.389333 7.808-65.706667 25.258666a156.416 156.416 0 0 1-99.584 11.648 184.96 184.96 0 0 1-24.96-6.656h-3.626666a199.68 199.68 0 0 0 58.794666 55.466667c15.488 7.850667 32 13.44 49.109334 16.64a198.016 198.016 0 0 0 242.389333-194.133333c0.170667-28.586667-1.408-93.184-45.226667-129.237334a233.813333 233.813333 0 0 1-77.909333-103.722666c-24.832-66.944-4.437333-132.352 18.986667-177.706667 2.133333-4.096 16.469333-34.901333 40.021333-60.629333-2.602667 29.184 45.312 78.848 57.216 85.162666C848.213333 208.810667 938.666667 349.866667 938.666667 512z" /></svg>