<?xml version="1.0" standalone="no"?><!DOCTYPE svg PUBLIC "-//W3C//DTD SVG 1.1//EN" "http://www.w3.org/Graphics/SVG/1.1/DTD/svg11.dtd"><svg class="icon" width="128px" height="128.00px" viewBox="0 0 1024 1024" version="1.1" xmlns="http://www.w3.org/2000/svg"><path d="M242.346667 312.064l-77.653334 252.330667L512 829.525333l347.306667-265.130666-77.653334-252.330667L710.101333 469.333333H313.856L242.389333 312.064zM655.232 384l123.221333-271.104a17.066667 17.066667 0 0 1 31.872 2.048l143.658667 466.986667a21.333333 21.333333 0 0 1-7.424 23.210666L512 936.874667 77.482667 605.141333a21.333333 21.333333 0 0 1-7.424-23.210666L213.717333 114.944a17.066667 17.066667 0 0 1 31.872-2.048L368.810667 384h286.378666z" /></svg>