<?xml version="1.0" standalone="no"?><!DOCTYPE svg PUBLIC "-//W3C//DTD SVG 1.1//EN" "http://www.w3.org/Graphics/SVG/1.1/DTD/svg11.dtd"><svg class="icon" width="128px" height="128.00px" viewBox="0 0 1024 1024" version="1.1" xmlns="http://www.w3.org/2000/svg"><path d="M367.445333 858.453333c-117.077333 63.573333-218.154667 76.757333-274.005333 20.906667-57.344-57.173333-26.794667-206.976 56.021333-357.248A990.037333 990.037333 0 0 1 304.085333 312.32c7.978667-7.978667 48-47.957333 50.645334-47.957333 0 0-21.333333 13.354667-23.978667 13.354666-83.2 46.72-156.288 131.413333-172.245333 150.4a384.170667 384.170667 0 0 1 403.968-299.050666c132.053333-59.818667 254.890667-73.642667 306.858666-21.76 48 47.914667 45.312 127.786667 5.333334 223.658666-0.426667 0.896-0.768 1.834667-1.152 2.730667A382.293333 382.293333 0 0 1 917.333333 512c0 16.213333-0.981333 32.128-2.944 47.786667h-34.304a175.104 175.104 0 0 1-6.058666 0.128H370.730667v7.978666c2.645333 85.205333 77.312 159.744 167.978666 159.744 64 0 125.312-34.602667 151.978667-85.205333h203.946667A384.128 384.128 0 0 1 367.445333 858.453333z m-25.898666-13.696a385.28 385.28 0 0 1-169.472-202.325333c-49.536 97.365333-62.293333 178.773333-20.010667 221.013333 34.688 34.645333 104.021333 26.624 189.354667-18.602666l0.128-0.085334zM860.672 311.125333a349.44 349.44 0 0 1 0.64-1.450666c32-69.205333 34.688-127.744 5.333333-162.389334-37.077333-37.034667-108.373333-32-192.938666 7.168a385.365333 385.365333 0 0 1 186.965333 156.672z m-153.984 147.626667v-2.602667c-5.333333-87.893333-74.666667-154.453333-160-154.453333-90.666667 0-167.936 71.893333-173.269333 154.453333v2.645334h333.269333z" /></svg>