<?xml version="1.0" standalone="no"?><!DOCTYPE svg PUBLIC "-//W3C//DTD SVG 1.1//EN" "http://www.w3.org/Graphics/SVG/1.1/DTD/svg11.dtd"><svg class="icon" width="128px" height="128.00px" viewBox="0 0 1024 1024" version="1.1" xmlns="http://www.w3.org/2000/svg"><path d="M849.621333 619.904a1364.352 1364.352 0 0 0-28.8-80.469333l-38.826666-95.829334c0-1.109333 0.512-19.968 0.512-29.696C782.506667 250.026667 704.298667 85.333333 512 85.333333S241.493333 250.026667 241.493333 413.866667c0 9.770667 0.469333 28.629333 0.512 29.738666l-38.826666 95.829334a1398.485333 1398.485333 0 0 0-28.8 80.469333c-36.693333 116.778667-24.789333 165.12-15.744 166.186667 19.413333 2.304 75.562667-87.893333 75.562666-87.893334 0 52.224 27.178667 120.405333 86.016 169.642667-21.973333 6.698667-48.938667 17.024-66.304 29.653333-15.573333 11.392-13.610667 23.04-10.794666 27.733334 12.330667 20.522667 211.413333 13.098667 268.928 6.698666 57.472 6.4 256.597333 13.824 268.885333-6.741333 2.816-4.693333 4.778667-16.298667-10.794667-27.690667-17.365333-12.629333-44.330667-22.954667-66.346666-29.696 58.837333-49.194667 86.016-117.376 86.016-169.642666 0 0 56.149333 90.24 75.562666 87.893333 9.045333-1.066667 20.906667-49.365333-15.786666-166.144" /></svg>