<?xml version="1.0" standalone="no"?><!DOCTYPE svg PUBLIC "-//W3C//DTD SVG 1.1//EN" "http://www.w3.org/Graphics/SVG/1.1/DTD/svg11.dtd"><svg class="icon" width="128px" height="128.00px" viewBox="0 0 1024 1024" version="1.1" xmlns="http://www.w3.org/2000/svg"><path d="M512 576a64 64 0 1 1 0-128 64 64 0 0 1 0 128z m-22.528 127.744c7.466667 8.96 14.976 17.664 22.528 25.984 7.552-8.32 15.061333-16.981333 22.528-25.984a1061.674667 1061.674667 0 0 1-45.056 0z m-85.12-5.333333a882.261333 882.261333 0 0 1-97.493333-15.701334c-3.2 14.933333-5.632 29.44-7.253334 43.349334-8.106667 67.541333 3.2 108.586667 20.394667 118.485333 17.194667 9.941333 58.368-0.810667 112.853333-41.557333 11.221333-8.405333 22.528-17.749333 33.877334-27.946667a882.261333 882.261333 0 0 1-62.378667-76.629333z m312.789333-15.701334a860.586667 860.586667 0 0 1-97.493333 15.701334 882.261333 882.261333 0 0 1-62.378667 76.629333c11.349333 10.24 22.656 19.541333 33.877334 27.946667 54.485333 40.746667 95.658667 51.498667 112.853333 41.557333 17.194667-9.898667 28.458667-50.944 20.437333-118.485333a484.693333 484.693333 0 0 0-7.253333-43.349334z m61.866667-16.512c24.618667 112.597333 11.690667 202.24-43.008 233.813334-54.698667 31.573333-138.794667-2.048-224-79.658667-85.205333 77.610667-169.301333 111.189333-224 79.616-54.698667-31.573333-67.626667-121.173333-43.050667-233.813333C135.125333 631.210667 64 575.146667 64 512s71.125333-119.168 180.949333-154.197333c-24.576-112.597333-11.648-202.24 43.050667-233.813334 54.698667-31.573333 138.794667 2.048 224 79.658667 85.205333-77.610667 169.301333-111.189333 224-79.616 54.698667 31.573333 67.626667 121.173333 43.050667 233.813333C888.874667 392.789333 960 448.853333 960 512s-71.125333 119.168-180.949333 154.197333z m-312.32-417.237333a484.693333 484.693333 0 0 0-33.834667-27.946667C378.368 180.266667 337.194667 169.514667 320 179.456c-17.194667 9.898667-28.458667 50.944-20.437333 118.485333 1.706667 13.952 4.096 28.416 7.253333 43.349334a882.261333 882.261333 0 0 1 97.536-15.701334c20.266667-27.861333 41.173333-53.504 62.378667-76.629333z m152.96 76.629333c34.218667 3.584 66.901333 8.917333 97.493333 15.701334 3.2-14.933333 5.632-29.44 7.253334-43.349334 8.106667-67.541333-3.2-108.586667-20.394667-118.485333-17.194667-9.941333-58.368 0.810667-112.853333 41.557333a484.693333 484.693333 0 0 0-33.877334 27.946667c21.205333 23.125333 42.112 48.768 62.378667 76.629333z m-85.12-5.333333c-7.466667-8.96-14.976-17.664-22.528-25.984-7.552 8.32-15.061333 16.981333-22.528 25.984a1061.717333 1061.717333 0 0 1 45.056 0z m-177.322667 307.114667a1061.717333 1061.717333 0 0 1-22.528-38.997334c-4.053333 10.965333-7.808 21.76-11.221333 32.469334 10.965333 2.389333 22.229333 4.565333 33.706667 6.528z m82.432 9.984a976.938667 976.938667 0 0 0 144.725334 0A976.938667 976.938667 0 0 0 656.725333 512a976.938667 976.938667 0 0 0-72.362666-125.354667 976.938667 976.938667 0 0 0-144.725334 0A976.938667 976.938667 0 0 0 367.274667 512a976.938667 976.938667 0 0 0 72.362666 125.354667z m249.685334-201.728c4.053333-10.965333 7.808-21.76 11.221333-32.469334a766.890667 766.890667 0 0 0-33.706667-6.528 1061.717333 1061.717333 0 0 1 22.485334 38.997334zM261.546667 419.712c-14.506667 4.693333-28.245333 9.813333-41.130667 15.36C157.909333 461.866667 128 492.16 128 512c0 19.84 29.866667 50.133333 92.416 76.928 12.885333 5.546667 26.624 10.666667 41.130667 15.36 9.472-29.866667 21.205333-60.842667 35.2-92.288a882.261333 882.261333 0 0 1-35.2-92.288z m61.866666-16.554667c3.456 10.666667 7.210667 21.504 11.264 32.426667a1061.717333 1061.717333 0 0 1 22.528-38.954667c-11.52 1.962667-22.784 4.138667-33.749333 6.528z m439.04 201.130667c14.506667-4.693333 28.245333-9.813333 41.130667-15.36C866.090667 562.133333 896 531.84 896 512c0-19.84-29.866667-50.133333-92.416-76.928a484.693333 484.693333 0 0 0-41.130667-15.36c-9.472 29.866667-21.205333 60.842667-35.2 92.288 13.994667 31.445333 25.728 62.378667 35.2 92.288z m-61.866666 16.554667a817.92 817.92 0 0 0-11.264-32.426667 1061.717333 1061.717333 0 0 1-22.528 38.954667c11.52-1.962667 22.784-4.138667 33.749333-6.528z" /></svg>