<?xml version="1.0" standalone="no"?><!DOCTYPE svg PUBLIC "-//W3C//DTD SVG 1.1//EN" "http://www.w3.org/Graphics/SVG/1.1/DTD/svg11.dtd"><svg class="icon" width="128px" height="128.00px" viewBox="0 0 1024 1024" version="1.1" xmlns="http://www.w3.org/2000/svg"><path d="M945.578667 241.322667a357.717333 357.717333 0 0 1-102.485334 28.074666A179.029333 179.029333 0 0 0 921.6 170.666667c-34.986667 20.821333-73.344 35.413333-113.322667 43.306666a178.432 178.432 0 0 0-304.042666 162.730667 506.624 506.624 0 0 1-367.786667-186.453333 177.834667 177.834667 0 0 0-24.149333 89.728c0 61.866667 31.488 116.522667 79.36 148.522666a177.834667 177.834667 0 0 1-80.810667-22.314666v2.218666a178.56 178.56 0 0 0 143.146667 174.976 179.626667 179.626667 0 0 1-80.64 3.072A178.56 178.56 0 0 0 340.053333 710.4a358.144 358.144 0 0 1-264.149333 73.898667 504.746667 504.746667 0 0 0 273.493333 80.213333c328.234667 0 507.733333-271.914667 507.733334-507.733333 0-7.68-0.213333-15.445333-0.554667-23.04a362.496 362.496 0 0 0 89.045333-92.373334z" /></svg>