<?xml version="1.0" standalone="no"?><!DOCTYPE svg PUBLIC "-//W3C//DTD SVG 1.1//EN" "http://www.w3.org/Graphics/SVG/1.1/DTD/svg11.dtd"><svg class="icon" width="128px" height="128.00px" viewBox="0 0 1024 1024" version="1.1" xmlns="http://www.w3.org/2000/svg"><path d="M919.168 277.248C938.666667 353.28 938.666667 512 938.666667 512s0 158.72-19.498667 234.752c-10.837333 42.026667-42.538667 75.093333-82.688 86.272C763.562667 853.333333 512 853.333333 512 853.333333s-251.434667 0-324.48-20.309333c-40.32-11.349333-71.978667-44.373333-82.688-86.272C85.333333 670.72 85.333333 512 85.333333 512s0-158.72 19.498667-234.752c10.837333-42.026667 42.538667-75.093333 82.688-86.272C260.565333 170.666667 512 170.666667 512 170.666667s251.562667 0 324.48 20.309333c40.32 11.349333 71.978667 44.373333 82.688 86.272zM426.666667 661.333333l256-149.333333-256-149.333333v298.666666z" /></svg>