<?xml version="1.0" standalone="no"?><!DOCTYPE svg PUBLIC "-//W3C//DTD SVG 1.1//EN" "http://www.w3.org/Graphics/SVG/1.1/DTD/svg11.dtd"><svg class="icon" width="128px" height="128.00px" viewBox="0 0 1024 1024" version="1.1" xmlns="http://www.w3.org/2000/svg"><path d="M419.328 213.333333l-85.333333 85.333334H170.666667v512h682.666666V298.666667h-163.328l-85.333333-85.333334H419.328zM384 128h256l85.333333 85.333333h170.666667a42.666667 42.666667 0 0 1 42.666667 42.666667v597.333333a42.666667 42.666667 0 0 1-42.666667 42.666667H128a42.666667 42.666667 0 0 1-42.666667-42.666667V256a42.666667 42.666667 0 0 1 42.666667-42.666667h170.666667l85.333333-85.333333z m128 640a234.666667 234.666667 0 1 1 0-469.333333 234.666667 234.666667 0 0 1 0 469.333333z m0-85.333333a149.333333 149.333333 0 1 0 0-298.666667 149.333333 149.333333 0 0 0 0 298.666667z" /></svg>