<?xml version="1.0" standalone="no"?><!DOCTYPE svg PUBLIC "-//W3C//DTD SVG 1.1//EN" "http://www.w3.org/Graphics/SVG/1.1/DTD/svg11.dtd"><svg class="icon" width="128px" height="128.00px" viewBox="0 0 1024 1024" version="1.1" xmlns="http://www.w3.org/2000/svg"><path d="M700.8 761.130667A381.482667 381.482667 0 0 1 554.666667 808.32V981.333333h-85.333334v-173.013333A384.170667 384.170667 0 0 1 130.346667 469.333333H216.32a298.752 298.752 0 0 0 421.12 228.437334l-66.176-66.133334A213.333333 213.333333 0 0 1 298.666667 426.666667V358.997333L59.434667 119.808l60.373333-60.373333 844.757333 844.8-60.373333 60.330666-203.392-203.434666z m-315.392-315.392l107.52 107.52a128.085333 128.085333 0 0 1-107.52-107.52z m441.258667 201.088l-61.568-61.525334c21.717333-34.56 36.522667-73.813333 42.538666-115.968h86.016a381.866667 381.866667 0 0 1-66.986666 177.493334z m-124.16-124.117334l-66.048-66.048c2.304-9.642667 3.541333-19.626667 3.541333-29.994666V256a128 128 0 0 0-248.234667-44.032L327.936 148.096A213.333333 213.333333 0 0 1 725.333333 256v170.666667a212.48 212.48 0 0 1-22.784 96.042666z" /></svg>