<?xml version="1.0" standalone="no"?><!DOCTYPE svg PUBLIC "-//W3C//DTD SVG 1.1//EN" "http://www.w3.org/Graphics/SVG/1.1/DTD/svg11.dtd"><svg class="icon" width="128px" height="128.00px" viewBox="0 0 1024 1024" version="1.1" xmlns="http://www.w3.org/2000/svg"><path d="M85.333333 170.368A42.666667 42.666667 0 0 1 127.658667 128h768.682666c23.381333 0 42.325333 18.986667 42.325334 42.368v683.264a42.666667 42.666667 0 0 1-42.325334 42.368H127.658667A42.368 42.368 0 0 1 85.333333 853.632V170.368zM170.666667 213.333333v597.333334h682.666666V213.333333H170.666667z m282.538666 145.706667l208.170667 138.752a17.066667 17.066667 0 0 1 0 28.416l-208.213333 138.752a17.066667 17.066667 0 0 1-26.496-14.165333V373.205333a17.066667 17.066667 0 0 1 26.538666-14.165333z" /></svg>