<?xml version="1.0" standalone="no"?><!DOCTYPE svg PUBLIC "-//W3C//DTD SVG 1.1//EN" "http://www.w3.org/Graphics/SVG/1.1/DTD/svg11.dtd"><svg class="icon" width="128px" height="128.00px" viewBox="0 0 1024 1024" version="1.1" xmlns="http://www.w3.org/2000/svg"><path d="M128 170.368C128 146.986667 146.986667 128 170.368 128h683.264c23.381333 0 42.368 18.986667 42.368 42.368v683.264a42.410667 42.410667 0 0 1-42.368 42.368H170.368A42.410667 42.410667 0 0 1 128 853.632V170.368zM213.333333 213.333333v597.333334h597.333334V213.333333H213.333333z m239.872 145.706667l208.170667 138.752a17.066667 17.066667 0 0 1 0 28.416l-208.213333 138.752a17.066667 17.066667 0 0 1-26.496-14.165333V373.205333a17.066667 17.066667 0 0 1 26.538666-14.165333z" /></svg>