<?xml version="1.0" standalone="no"?><!DOCTYPE svg PUBLIC "-//W3C//DTD SVG 1.1//EN" "http://www.w3.org/Graphics/SVG/1.1/DTD/svg11.dtd"><svg class="icon" width="128px" height="128.00px" viewBox="0 0 1024 1024" version="1.1" xmlns="http://www.w3.org/2000/svg"><path d="M725.333333 392.533333l222.421334-155.733333a21.333333 21.333333 0 0 1 33.578666 17.493333v515.413334a21.333333 21.333333 0 0 1-33.578666 17.493333L725.333333 631.466667V810.666667a42.666667 42.666667 0 0 1-42.666666 42.666666H85.333333a42.666667 42.666667 0 0 1-42.666666-42.666666V213.333333a42.666667 42.666667 0 0 1 42.666666-42.666666h597.333334a42.666667 42.666667 0 0 1 42.666666 42.666666v179.2z m0 134.784l170.666667 119.466667V377.173333l-170.666667 119.466667v30.634667zM128 256v512h512V256H128z m85.333333 85.333333h85.333334v85.333334H213.333333V341.333333z" /></svg>