<?xml version="1.0" standalone="no"?><!DOCTYPE svg PUBLIC "-//W3C//DTD SVG 1.1//EN" "http://www.w3.org/Graphics/SVG/1.1/DTD/svg11.dtd"><svg class="icon" width="128px" height="128.00px" viewBox="0 0 1024 1024" version="1.1" xmlns="http://www.w3.org/2000/svg"><path d="M251.264 682.666667H85.333333a42.666667 42.666667 0 0 1-42.666666-42.666667V384a42.666667 42.666667 0 0 1 42.666666-42.666667h165.930667l225.877333-184.832a21.333333 21.333333 0 0 1 34.858667 16.512v677.973334a21.333333 21.333333 0 0 1-34.858667 16.512L251.306667 682.666667z m619.733333-170.666667l150.869334 150.869333-60.330667 60.330667L810.666667 572.330667l-150.869334 150.869333-60.330666-60.330667L750.336 512 599.466667 361.130667l60.330666-60.330667L810.666667 451.669333l150.869333-150.869333 60.330667 60.330667L870.997333 512z" /></svg>