<?xml version="1.0" standalone="no"?><!DOCTYPE svg PUBLIC "-//W3C//DTD SVG 1.1//EN" "http://www.w3.org/Graphics/SVG/1.1/DTD/svg11.dtd"><svg class="icon" width="128px" height="128.00px" viewBox="0 0 1024 1024" version="1.1" xmlns="http://www.w3.org/2000/svg"><path d="M554.666667 421.290667v428.970666c154.410667-19.328 276.778667-142.336 296.021333-297.472H725.333333L883.370667 298.666667A428.416 428.416 0 0 1 938.666667 509.866667C938.666667 746.666667 747.648 938.666667 512 938.666667S85.333333 746.666667 85.333333 509.866667c0-76.8 20.096-148.864 55.296-211.2L298.666667 552.789333H173.312c19.242667 155.136 141.653333 278.144 296.021333 297.472V421.290667A170.752 170.752 0 0 1 512 85.333333a170.666667 170.666667 0 0 1 42.666667 335.957334zM512 341.333333a85.333333 85.333333 0 1 0 0-170.666666 85.333333 85.333333 0 0 0 0 170.666666z" /></svg>