<?xml version="1.0" standalone="no"?><!DOCTYPE svg PUBLIC "-//W3C//DTD SVG 1.1//EN" "http://www.w3.org/Graphics/SVG/1.1/DTD/svg11.dtd"><svg class="icon" width="128px" height="128.00px" viewBox="0 0 1024 1024" version="1.1" xmlns="http://www.w3.org/2000/svg"><path d="M661.333333 295.978667A298.538667 298.538667 0 0 1 810.666667 554.666667v341.333333h-177.92a128.042667 128.042667 0 0 1-241.493334 0H213.333333v-341.333333a298.538667 298.538667 0 0 1 149.333334-258.688A169.557333 169.557333 0 0 1 346.666667 256H213.333333V170.666667h133.376a170.752 170.752 0 0 1 330.581334 0H810.666667v85.333333h-133.376a171.52 171.52 0 0 1-15.914667 39.978667z m-61.994666 64A169.642667 169.642667 0 0 1 512 384a169.856 169.856 0 0 1-87.338667-24.021333A213.376 213.376 0 0 0 298.666667 554.666667v256h85.333333v-170.666667a128 128 0 0 1 256 0v170.666667h85.333333v-256a213.376 213.376 0 0 0-125.994666-194.688zM512 597.333333a42.666667 42.666667 0 0 0-42.666667 42.666667v213.333333a42.666667 42.666667 0 0 0 85.333334 0v-213.333333a42.666667 42.666667 0 0 0-42.666667-42.666667z m0-298.666666a85.333333 85.333333 0 1 0 0-170.666667 85.333333 85.333333 0 0 0 0 170.666667z" /></svg>