<?xml version="1.0" standalone="no"?><!DOCTYPE svg PUBLIC "-//W3C//DTD SVG 1.1//EN" "http://www.w3.org/Graphics/SVG/1.1/DTD/svg11.dtd"><svg class="icon" width="128px" height="128.00px" viewBox="0 0 1024 1024" version="1.1" xmlns="http://www.w3.org/2000/svg"><path d="M512 891.733333l211.2-211.2a298.666667 298.666667 0 1 0-422.4 0L512 891.733333z m0 120.661334l-271.530667-271.530667a384 384 0 1 1 543.061334 0L512 1012.394667zM512 554.666667a85.333333 85.333333 0 1 0 0-170.666667 85.333333 85.333333 0 0 0 0 170.666667z m0 85.333333a170.666667 170.666667 0 1 1 0-341.333333 170.666667 170.666667 0 0 1 0 341.333333z" /></svg>