<?xml version="1.0" standalone="no"?><!DOCTYPE svg PUBLIC "-//W3C//DTD SVG 1.1//EN" "http://www.w3.org/Graphics/SVG/1.1/DTD/svg11.dtd"><svg class="icon" width="128px" height="128.00px" viewBox="0 0 1024 1024" version="1.1" xmlns="http://www.w3.org/2000/svg"><path d="M425.6 382.933333a149.333333 149.333333 0 1 0-211.2 0L320 488.533333l105.6-105.6zM320 609.194667L154.026667 443.306667a234.666667 234.666667 0 1 1 331.946666 0L320 609.28zM320 341.333333a64 64 0 1 1 0-128 64 64 0 0 1 0 128z m384 531.2l105.6-105.6a149.333333 149.333333 0 1 0-211.2 0L704 872.533333z m165.973333-45.226666l-165.973333 165.888-165.973333-165.930667a234.666667 234.666667 0 1 1 331.946666 0zM704 725.333333a64 64 0 1 1 0-128 64 64 0 0 1 0 128z" /></svg>