<?xml version="1.0" standalone="no"?><!DOCTYPE svg PUBLIC "-//W3C//DTD SVG 1.1//EN" "http://www.w3.org/Graphics/SVG/1.1/DTD/svg11.dtd"><svg class="icon" width="128px" height="128.00px" viewBox="0 0 1024 1024" version="1.1" xmlns="http://www.w3.org/2000/svg"><path d="M234.666667 896a192 192 0 1 1 0-384 192 192 0 0 1 0 384z m0-85.333333a106.666667 106.666667 0 1 0 0-213.333334 106.666667 106.666667 0 0 0 0 213.333334z m554.666666 85.333333a192 192 0 1 1 0-384 192 192 0 0 1 0 384z m0-85.333333a106.666667 106.666667 0 1 0 0-213.333334 106.666667 106.666667 0 0 0 0 213.333334z m-319.018666-370.986667L554.666667 512v256h-85.333334v-213.333333l-116.010666-96.682667A85.333333 85.333333 0 0 1 341.333333 327.296l120.661334-120.661333a85.333333 85.333333 0 0 1 120.704 0l60.330666 60.330666a297.344 297.344 0 0 0 167.125334 84.266667l-0.426667 85.973333a382.378667 382.378667 0 0 1-227.029333-109.866666l-112.384 112.341333zM682.666667 213.333333a85.333333 85.333333 0 1 1 0-170.666666 85.333333 85.333333 0 0 1 0 170.666666z" /></svg>