<?xml version="1.0" standalone="no"?><!DOCTYPE svg PUBLIC "-//W3C//DTD SVG 1.1//EN" "http://www.w3.org/Graphics/SVG/1.1/DTD/svg11.dtd"><svg class="icon" width="128px" height="128.00px" viewBox="0 0 1024 1024" version="1.1" xmlns="http://www.w3.org/2000/svg"><path d="M213.333333 554.666667c0-217.088 123.861333-402.602667 298.666667-477.098667C686.805333 152.064 810.666667 337.578667 810.666667 554.666667c0 35.114667-3.242667 69.376-9.386667 102.528l82.773333 78.165333a21.333333 21.333333 0 0 1 4.053334 25.728l-106.453334 195.2a21.333333 21.333333 0 0 1-33.834666 4.864l-95.317334-95.317333a42.666667 42.666667 0 0 0-30.165333-12.501334H401.664a42.666667 42.666667 0 0 0-30.165333 12.501334l-95.317334 95.317333a21.333333 21.333333 0 0 1-33.834666-4.864l-106.453334-195.2a21.333333 21.333333 0 0 1 4.053334-25.728l82.773333-78.165333C216.618667 624.042667 213.333333 589.781333 213.333333 554.666667z m62.976 285.696l34.858667-34.858667A128 128 0 0 1 401.664 768h220.672a128 128 0 0 1 90.496 37.504l34.858667 34.858667 41.898666-76.8-46.933333-44.373334a85.333333 85.333333 0 0 1-25.301333-77.653333c5.290667-28.330667 7.978667-57.386667 7.978666-86.869333 0-165.12-85.12-311.466667-213.333333-382.293334C383.786667 243.2 298.666667 389.546667 298.666667 554.666667c0 29.482667 2.688 58.538667 7.978666 86.912a85.333333 85.333333 0 0 1-25.301333 77.653333l-46.933333 44.330667 41.898666 76.8zM512 554.666667a85.333333 85.333333 0 1 1 0-170.666667 85.333333 85.333333 0 0 1 0 170.666667z" /></svg>