<?xml version="1.0" standalone="no"?><!DOCTYPE svg PUBLIC "-//W3C//DTD SVG 1.1//EN" "http://www.w3.org/Graphics/SVG/1.1/DTD/svg11.dtd"><svg class="icon" width="128px" height="128.00px" viewBox="0 0 1024 1024" version="1.1" xmlns="http://www.w3.org/2000/svg"><path d="M170.666667 443.733333V170.666667a42.666667 42.666667 0 0 1 42.666666-42.666667h213.333334V42.666667h170.666666v85.333333h213.333334a42.666667 42.666667 0 0 1 42.666666 42.666667v273.066666l46.336 13.909334a42.666667 42.666667 0 0 1 29.098667 51.2l-64.682667 258.901333a212.992 212.992 0 0 1-81.152-11.605333l53.333334-228.352L512 426.666667l-324.266667 101.12 53.333334 228.309333a212.992 212.992 0 0 1-81.152 11.648l-64.682667-258.901333a42.666667 42.666667 0 0 1 29.098667-51.2L170.666667 443.733333z m85.333333-25.6L512 341.333333l256 76.8V213.333333H256v204.8zM170.666667 853.333333a255.061333 255.061333 0 0 0 170.666666-65.194666A255.061333 255.061333 0 0 0 512 853.333333a255.061333 255.061333 0 0 0 170.666667-65.194666A255.061333 255.061333 0 0 0 853.333333 853.333333h85.333334v85.333334h-85.333334a339.754667 339.754667 0 0 1-170.666666-45.653334A339.754667 339.754667 0 0 1 512 938.666667a339.754667 339.754667 0 0 1-170.666667-45.653334A339.754667 339.754667 0 0 1 170.666667 938.666667H85.333333v-85.333334h85.333334z" /></svg>