<?xml version="1.0" standalone="no"?><!DOCTYPE svg PUBLIC "-//W3C//DTD SVG 1.1//EN" "http://www.w3.org/Graphics/SVG/1.1/DTD/svg11.dtd"><svg class="icon" width="128px" height="128.00px" viewBox="0 0 1024 1024" version="1.1" xmlns="http://www.w3.org/2000/svg"><path d="M733.866667 853.333333l76.8 64v21.333334H213.333333v-21.333334L290.133333 853.333333H213.333333a85.333333 85.333333 0 0 1-85.333333-85.333333V298.666667a170.666667 170.666667 0 0 1 170.666667-170.666667h426.666666a170.666667 170.666667 0 0 1 170.666667 170.666667v469.333333a85.333333 85.333333 0 0 1-85.333333 85.333333h-76.8zM554.666667 213.333333v256h256V298.666667a85.333333 85.333333 0 0 0-85.333334-85.333334h-170.666666z m-85.333334 0H298.666667a85.333333 85.333333 0 0 0-85.333334 85.333334v170.666666h256V213.333333z m341.333334 341.333334H213.333333v213.333333h597.333334v-213.333333zM320 725.333333a64 64 0 1 1 0-128 64 64 0 0 1 0 128z m384 0a64 64 0 1 1 0-128 64 64 0 0 1 0 128z" /></svg>