<?xml version="1.0" standalone="no"?><!DOCTYPE svg PUBLIC "-//W3C//DTD SVG 1.1//EN" "http://www.w3.org/Graphics/SVG/1.1/DTD/svg11.dtd"><svg class="icon" width="128px" height="128.00px" viewBox="0 0 1024 1024" version="1.1" xmlns="http://www.w3.org/2000/svg"><path d="M938.666667 469.333333v426.666667a42.666667 42.666667 0 0 1-42.666667 42.666667h-42.666667a42.666667 42.666667 0 0 1-42.666666-42.666667v-42.666667H213.333333v42.666667a42.666667 42.666667 0 0 1-42.666666 42.666667H128a42.666667 42.666667 0 0 1-42.666667-42.666667V469.333333l104.405334-208.810666A85.333333 85.333333 0 0 1 266.112 213.333333H384V128h256v85.333333h117.930667a85.333333 85.333333 0 0 1 76.330666 47.189334L938.666667 469.333333z m-85.333334 85.333334H170.666667v213.333333h682.666666v-213.333333zM180.736 469.333333h662.528l-85.333333-170.666666H266.069333l-85.333333 170.666666zM277.333333 725.333333a64 64 0 1 1 0-128 64 64 0 0 1 0 128z m469.333334 0a64 64 0 1 1 0-128 64 64 0 0 1 0 128z" /></svg>