<?xml version="1.0" standalone="no"?><!DOCTYPE svg PUBLIC "-//W3C//DTD SVG 1.1//EN" "http://www.w3.org/Graphics/SVG/1.1/DTD/svg11.dtd"><svg class="icon" width="128px" height="128.00px" viewBox="0 0 1024 1024" version="1.1" xmlns="http://www.w3.org/2000/svg"><path d="M298.666667 170.666667V128a42.666667 42.666667 0 0 1 42.666666-42.666667h341.333334a42.666667 42.666667 0 0 1 42.666666 42.666667v42.666667h128c0 106.666667-106.666667 149.333333-128 149.333333V426.666667h128c0 106.666667-106.666667 149.333333-128 149.333333V682.666667h128c0 106.666667-106.666667 149.333333-128 149.333333V896a42.666667 42.666667 0 0 1-42.666666 42.666667H341.333333a42.666667 42.666667 0 0 1-42.666666-42.666667v-64c-21.333333 0-128-42.666667-128-149.333333h128v-106.666667c-21.333333 0-128-42.666667-128-149.333333h128V320c-21.333333 0-128-42.666667-128-149.333333h128z m213.333333 682.666666a85.333333 85.333333 0 1 0 0-170.666666 85.333333 85.333333 0 0 0 0 170.666666z m0-256a85.333333 85.333333 0 1 0 0-170.666666 85.333333 85.333333 0 0 0 0 170.666666z m0-256a85.333333 85.333333 0 1 0 0-170.666666 85.333333 85.333333 0 0 0 0 170.666666z" /></svg>