<?xml version="1.0" standalone="no"?><!DOCTYPE svg PUBLIC "-//W3C//DTD SVG 1.1//EN" "http://www.w3.org/Graphics/SVG/1.1/DTD/svg11.dtd"><svg class="icon" width="128px" height="128.00px" viewBox="0 0 1024 1024" version="1.1" xmlns="http://www.w3.org/2000/svg"><path d="M382.506667 768a149.333333 149.333333 0 0 1-295.68 0H42.666667V256a42.666667 42.666667 0 0 1 42.666666-42.666667h597.333334a42.666667 42.666667 0 0 1 42.666666 42.666667v85.333333h128l128 173.056V768h-86.826666a149.333333 149.333333 0 0 1-295.68 0h-216.32zM640 298.666667H128v343.466666a149.333333 149.333333 0 0 1 241.621333 40.533334h242.090667c7.168-15.061333 16.768-28.757333 28.288-40.533334V298.666667z m85.333333 256h170.666667v-12.16L810.325333 426.666667H725.333333v128z m21.333334 256a64 64 0 1 0 0-128.042667 64 64 0 0 0 0 128.042667zM298.666667 746.666667a64 64 0 1 0-128 0 64 64 0 0 0 128 0z" /></svg>