<?xml version="1.0" standalone="no"?><!DOCTYPE svg PUBLIC "-//W3C//DTD SVG 1.1//EN" "http://www.w3.org/Graphics/SVG/1.1/DTD/svg11.dtd"><svg class="icon" width="128px" height="128.00px" viewBox="0 0 1024 1024" version="1.1" xmlns="http://www.w3.org/2000/svg"><path d="M792.774194 320.412903h-82.580646v-29.729032c0-109.006452-89.187097-198.193548-198.193548-198.193548s-198.193548 89.187097-198.193548 198.193548v29.729032h-82.580646c-54.503226 0-99.096774 44.593548-99.096774 99.096774v412.903226c0 54.503226 44.593548 99.096774 99.096774 99.096774h561.548388c54.503226 0 99.096774-44.593548 99.096774-99.096774v-412.903226c0-54.503226-44.593548-99.096774-99.096774-99.096774z m-135.432259 173.419355c4.954839-4.954839 13.212903-8.258065 19.819355-8.258064s14.864516 3.303226 19.819355 8.258064c4.954839 4.954839 8.258065 13.212903 8.258065 19.819355s-3.303226 14.864516-8.258065 19.819355c-11.56129 11.56129-29.729032 11.56129-41.290322 0-4.954839-4.954839-8.258065-13.212903-8.258065-19.819355s3.303226-14.864516 9.909677-19.819355zM379.870968 290.683871c0-72.670968 59.458065-132.129032 132.129032-132.129032s132.129032 59.458065 132.129032 132.129032v29.729032H379.870968v-29.729032z m-52.851613 203.148387c4.954839-4.954839 13.212903-8.258065 19.819355-8.258064s14.864516 3.303226 19.819355 8.258064c4.954839 4.954839 8.258065 13.212903 8.258064 19.819355s-3.303226 14.864516-8.258064 19.819355c-11.56129 11.56129-29.729032 11.56129-41.290323 0-4.954839-4.954839-8.258065-13.212903-8.258065-19.819355s3.303226-14.864516 9.909678-19.819355zM825.806452 832.412903c0 18.167742-14.864516 33.032258-33.032258 33.032258H231.225806c-18.167742 0-33.032258-14.864516-33.032258-33.032258v-412.903226c0-18.167742 14.864516-33.032258 33.032258-33.032258h82.580646v39.63871c-13.212903 4.954839-24.774194 11.56129-34.683871 21.470968-18.167742 18.167742-28.077419 41.290323-28.07742 67.716129 0 24.774194 9.909677 49.548387 28.07742 67.716129C297.290323 601.187097 322.064516 611.096774 346.83871 611.096774c24.774194 0 47.896774-9.909677 67.716129-28.077419 18.167742-18.167742 28.077419-41.290323 28.077419-67.716129 0-24.774194-9.909677-49.548387-28.077419-67.716129-9.909677-9.909677-21.470968-16.516129-34.683871-21.470968v-39.63871h264.258064v39.63871c-13.212903 4.954839-24.774194 11.56129-34.683871 21.470968-18.167742 18.167742-28.077419 41.290323-28.077419 67.716129 0 24.774194 9.909677 49.548387 28.077419 67.716129C627.612903 601.187097 650.735484 611.096774 677.16129 611.096774s49.548387-9.909677 67.716129-28.077419c18.167742-18.167742 28.077419-41.290323 28.07742-67.716129 0-24.774194-9.909677-49.548387-28.07742-67.716129-9.909677-9.909677-21.470968-16.516129-34.683871-21.470968v-39.63871h82.580646c18.167742 0 33.032258 14.864516 33.032258 33.032258v412.903226z" /><path d="M776.258065 706.890323c-9.909677 0-16.516129 6.606452-16.51613 16.516129v61.109677c0 9.909677-6.606452 16.516129-16.516129 16.516129H558.245161c-9.909677 0-16.516129 6.606452-16.516129 16.516129s6.606452 16.516129 16.516129 16.516129H743.225806c28.077419 0 49.548387-21.470968 49.548388-49.548387v-61.109677c0-9.909677-6.606452-16.516129-16.516129-16.516129zM776.258065 607.793548c-9.909677 0-16.516129 6.606452-16.51613 16.516129v33.032258c0 9.909677 6.606452 16.516129 16.51613 16.51613s16.516129-6.606452 16.516129-16.51613v-33.032258c0-9.909677-6.606452-16.516129-16.516129-16.516129z" /></svg>