<?xml version="1.0" standalone="no"?><!DOCTYPE svg PUBLIC "-//W3C//DTD SVG 1.1//EN" "http://www.w3.org/Graphics/SVG/1.1/DTD/svg11.dtd"><svg class="icon" width="128px" height="128.00px" viewBox="0 0 1024 1024" version="1.1" xmlns="http://www.w3.org/2000/svg"><path d="M825.806452 315.458065h-66.064517V297.290323c19.819355-21.470968 33.032258-49.548387 33.032259-80.929033 0-31.380645-11.56129-59.458065-34.683871-82.580645-21.470968-21.470968-51.2-33.032258-80.929033-33.032258H267.56129c-33.032258 0-64.412903 13.212903-87.535484 36.335484-21.470968 23.122581-33.032258 51.2-33.032258 82.580645 1.651613 29.729032 13.212903 56.154839 33.032258 75.974194v505.393548c0 54.503226 44.593548 99.096774 99.096775 99.096774h379.870967c54.503226 0 99.096774-44.593548 99.096775-99.096774V710.193548h66.064516c54.503226 0 99.096774-44.593548 99.096774-99.096774V412.903226c1.651613-52.851613-42.941935-97.445161-97.445161-97.445161z m-132.129033 396.387096v90.83871c0 18.167742-14.864516 33.032258-33.032258 33.032258H280.774194c-18.167742 0-33.032258-14.864516-33.032259-33.032258V331.974194c4.954839 0 11.56129 1.651613 16.51613 1.651612h16.516129v36.335484c0 23.122581 9.909677 44.593548 28.077419 59.458065 13.212903 11.56129 31.380645 18.167742 49.548387 18.167742 4.954839 0 9.909677 0 14.864516-1.651613 36.335484-6.606452 62.76129-39.63871 62.76129-77.625807v-34.683871H677.16129c4.954839 0 11.56129 0 16.516129-1.651612v379.870967z m19.819355-462.451613c-8.258065 9.909677-21.470968 16.516129-36.335484 16.516129H434.374194c-31.380645 0-56.154839 21.470968-64.412904 49.548388-1.651613 4.954839-1.651613 11.56129-1.651613 16.516129v34.683871c0 6.606452-3.303226 11.56129-8.258064 13.212903-4.954839 1.651613-8.258065 0-9.909678-1.651613-1.651613-1.651613-3.303226-3.303226-3.303225-8.258065v-36.335484c0-4.954839 0-11.56129-1.651613-16.516129-6.606452-28.077419-33.032258-49.548387-64.412903-49.548387h-16.516129c-13.212903 0-26.425806-4.954839-34.683871-14.864516l-1.651613-1.651613c-8.258065-9.909677-13.212903-19.819355-13.212904-33.032258s4.954839-24.774194 13.212904-34.683871c9.909677-11.56129 24.774194-16.516129 39.638709-16.516129H677.16129c13.212903 0 24.774194 4.954839 34.683871 14.864516 9.909677 9.909677 14.864516 21.470968 14.864516 34.683871s-4.954839 24.774194-13.212903 33.032258z m145.341936 363.354839c0 18.167742-14.864516 33.032258-33.032258 33.032258h-66.064517v-264.258064h66.064517c18.167742 0 33.032258 14.864516 33.032258 33.032258v198.193548z" /><path d="M475.664516 406.296774c-9.909677 0-16.516129 6.606452-16.516129 16.516129v290.683871c0 9.909677 6.606452 16.516129 16.516129 16.516129s16.516129-6.606452 16.516129-16.516129V422.812903c0-8.258065-6.606452-16.516129-16.516129-16.516129zM330.322581 663.948387c-9.909677 0-16.516129 6.606452-16.516129 16.516129v33.032258c0 9.909677 6.606452 16.516129 16.516129 16.516129s16.516129-6.606452 16.516129-16.516129v-33.032258c0-8.258065-6.606452-16.516129-16.516129-16.516129zM330.322581 477.316129c-9.909677 0-16.516129 6.606452-16.516129 16.516129v120.567742c0 9.909677 6.606452 16.516129 16.516129 16.516129s16.516129-6.606452 16.516129-16.516129v-120.567742c0-9.909677-6.606452-16.516129-16.516129-16.516129zM611.096774 505.393548c-9.909677 0-16.516129 6.606452-16.516129 16.516129v191.587097c0 9.909677 6.606452 16.516129 16.516129 16.516129s16.516129-6.606452 16.516129-16.516129V521.909677c0-8.258065-6.606452-16.516129-16.516129-16.516129zM611.096774 406.296774c-9.909677 0-16.516129 6.606452-16.516129 16.516129v33.032258c0 9.909677 6.606452 16.516129 16.516129 16.516129s16.516129-6.606452 16.516129-16.516129v-33.032258c0-8.258065-6.606452-16.516129-16.516129-16.516129z" /></svg>