<?xml version="1.0" standalone="no"?><!DOCTYPE svg PUBLIC "-//W3C//DTD SVG 1.1//EN" "http://www.w3.org/Graphics/SVG/1.1/DTD/svg11.dtd"><svg class="icon" width="128px" height="128.00px" viewBox="0 0 1024 1024" version="1.1" xmlns="http://www.w3.org/2000/svg"><path d="M369.96129 779.56129c6.606452 19.819355 26.425806 33.032258 46.245162 33.032258H478.967742c9.909677 0 16.516129-6.606452 16.516129-16.516129s-6.606452-16.516129-16.516129-16.516129h-62.76129c-6.606452 0-13.212903-4.954839-14.864517-11.56129l-9.909677-28.077419c-3.303226-8.258065-11.56129-13.212903-21.470968-9.909678-8.258065 3.303226-13.212903 13.212903-9.909677 21.470968l9.909677 28.077419zM545.032258 812.593548h33.032258c9.909677 0 16.516129-6.606452 16.516129-16.516129s-6.606452-16.516129-16.516129-16.516129h-33.032258c-9.909677 0-16.516129 6.606452-16.516129 16.516129s6.606452 16.516129 16.516129 16.516129z" /><path d="M797.729032 386.477419c6.606452-14.864516 11.56129-31.380645 11.561291-49.548387v-3.303226c0-62.76129-51.2-113.96129-113.961291-113.96129h-77.625806v-1.651613c0-34.683871-16.516129-64.412903-41.290323-84.232258 13.212903-8.258065 28.077419-13.212903 44.593549-13.212903 18.167742 0 33.032258-14.864516 33.032258-33.032258s-14.864516-33.032258-33.032258-33.032258c-47.896774 0-90.83871 23.122581-118.916129 57.806451-54.503226 4.954839-95.793548 49.548387-95.793549 105.703226v1.651613h-77.625806c-62.76129 0-113.96129 51.2-113.961291 113.96129v3.303226c0 18.167742 4.954839 34.683871 11.561291 49.548387-52.851613 9.909677-94.141935 56.154839-94.141936 113.961291 0 47.896774 29.729032 89.187097 72.670968 107.354838l82.580645 239.483871c13.212903 39.63871 51.2 66.064516 94.141936 66.064516H644.129032c42.941935 0 79.277419-26.425806 94.141936-66.064516l82.580645-239.483871c42.941935-16.516129 72.670968-59.458065 72.670968-107.354838-1.651613-57.806452-42.941935-104.051613-95.793549-113.961291zM472.36129 214.709677c1.651613-21.470968 18.167742-37.987097 39.63871-37.987096 9.909677 0 19.819355 3.303226 26.425806 9.909677 8.258065 6.606452 13.212903 18.167742 13.212904 29.729032v1.651613c-1.651613 21.470968-18.167742 37.987097-39.63871 37.987097s-37.987097-16.516129-39.63871-37.987097V214.709677z m201.496775 609.445162c-4.954839 13.212903-16.516129 21.470968-31.380646 21.470967H381.522581c-14.864516 0-26.425806-8.258065-31.380646-21.470967l-72.670967-209.754839h469.058064l-72.670967 209.754839zM776.258065 548.335484H247.741935c-26.425806 0-49.548387-21.470968-49.548387-49.548387 0-26.425806 21.470968-49.548387 49.548387-49.548387H490.529032c18.167742 0 33.032258-14.864516 33.032258-33.032258s-14.864516-33.032258-33.032258-33.032258h-161.858064c-26.425806 0-47.896774-21.470968-47.896774-47.896775v-3.303225c0-26.425806 21.470968-47.896774 47.896774-47.896775h366.658064c26.425806 0 47.896774 21.470968 47.896774 47.896775v3.303225c0 26.425806-21.470968 47.896774-47.896774 47.896775h-74.32258c-18.167742 0-33.032258 14.864516-33.032258 33.032258s14.864516 33.032258 33.032258 33.032258H776.258065c26.425806 0 49.548387 21.470968 49.548387 49.548387s-21.470968 49.548387-49.548387 49.548387z" /></svg>