<?xml version="1.0" standalone="no"?><!DOCTYPE svg PUBLIC "-//W3C//DTD SVG 1.1//EN" "http://www.w3.org/Graphics/SVG/1.1/DTD/svg11.dtd"><svg class="icon" width="128px" height="128.00px" viewBox="0 0 1024 1024" version="1.1" xmlns="http://www.w3.org/2000/svg"><path d="M548.335484 698.632258c-14.864516 3.303226-31.380645 4.954839-47.896774 4.954839-9.909677 0-16.516129 6.606452-16.516129 16.516129s6.606452 16.516129 16.516129 16.516129c18.167742 0 37.987097-1.651613 56.154838-6.606452 8.258065-1.651613 14.864516-11.56129 11.561291-19.819355-1.651613-8.258065-9.909677-13.212903-19.819355-11.56129zM723.406452 454.193548c-9.909677 0-16.516129 6.606452-16.516129 16.516129v26.425807c0 77.625806-42.941935 148.645161-112.309678 183.329032-8.258065 4.954839-11.56129 14.864516-6.606451 21.470968 3.303226 4.954839 8.258065 8.258065 14.864516 8.258064 3.303226 0 4.954839 0 8.258064-1.651613 79.277419-41.290323 130.477419-122.219355 130.47742-213.058064v-26.425806c-1.651613-6.606452-8.258065-14.864516-18.167742-14.864517z" /><path d="M848.929032 396.387097h-9.909677v-56.154839c0-36.335484-29.729032-66.064516-66.064516-66.064516h-545.032258c-36.335484 0-66.064516 29.729032-66.064516 66.064516v156.903226c0 186.632258 151.948387 338.580645 338.580645 338.580645 145.341935 0 269.212903-92.490323 317.109677-222.967742h31.380645c59.458065 0 109.006452-49.548387 109.006452-109.006452 0-57.806452-47.896774-107.354839-109.006452-107.354838zM500.43871 771.303226c-150.296774 0-272.516129-122.219355-272.516129-272.516129v-156.903226h545.032258V497.135484c0 151.948387-122.219355 274.167742-272.516129 274.167742z m348.490322-222.967742h-9.909677V462.451613h9.909677c23.122581 0 42.941935 19.819355 42.941936 42.941935s-19.819355 42.941935-42.941936 42.941936zM715.148387 872.051613h-429.419355c-18.167742 0-33.032258 14.864516-33.032258 33.032258s14.864516 33.032258 33.032258 33.032258h429.419355c18.167742 0 33.032258-14.864516 33.032258-33.032258s-14.864516-33.032258-33.032258-33.032258zM437.677419 254.348387c18.167742 0 33.032258-14.864516 33.032258-33.032258v-132.129032c0-18.167742-14.864516-33.032258-33.032258-33.032258s-33.032258 14.864516-33.032258 33.032258v132.129032c0 18.167742 14.864516 33.032258 33.032258 33.032258zM564.851613 254.348387c18.167742 0 33.032258-14.864516 33.032258-33.032258V143.690323c0-18.167742-14.864516-33.032258-33.032258-33.032258s-33.032258 14.864516-33.032258 33.032258v79.277419c0 16.516129 14.864516 31.380645 33.032258 31.380645z" /></svg>