<?xml version="1.0" standalone="no"?><!DOCTYPE svg PUBLIC "-//W3C//DTD SVG 1.1//EN" "http://www.w3.org/Graphics/SVG/1.1/DTD/svg11.dtd"><svg class="icon" width="128px" height="128.00px" viewBox="0 0 1024 1024" version="1.1" xmlns="http://www.w3.org/2000/svg"><path d="M867.096774 706.890323c39.63871-34.683871 66.064516-74.322581 66.064516-117.264517 0-47.896774-29.729032-90.83871-74.32258-127.174193 52.851613-39.63871 71.019355-102.4 72.670967-146.993548 23.122581-24.774194 37.987097-56.154839 37.987097-92.490323 0-36.335484-13.212903-71.019355-39.638709-97.445161-26.425806-26.425806-61.109677-41.290323-97.445162-41.290323h-33.032258v33.032258c0 39.63871-31.380645 71.019355-71.019355 71.019355h-33.032258v33.032258c0 36.335484 14.864516 71.019355 41.290323 97.445161 26.425806 24.774194 59.458065 39.63871 95.793548 39.63871h1.651613c8.258065 0 14.864516-1.651613 23.122581-1.651613-8.258065 24.774194-24.774194 49.548387-57.806452 64.412903-21.470968-13.212903-44.593548-24.774194-67.716129-34.683871v-8.258064c0-46.245161-36.335484-82.580645-82.580645-82.580645-29.729032 0-54.503226 14.864516-69.367742 37.987096-29.729032-6.606452-54.503226-11.56129-69.367742-11.56129s-39.63871 3.303226-69.367742 11.56129c-14.864516-23.122581-39.63871-37.987097-69.367742-37.987096-46.245161 0-82.580645 36.335484-82.580645 82.580645v8.258064c-23.122581 9.909677-46.245161 21.470968-67.716129 34.683871-33.032258-13.212903-49.548387-39.63871-57.806452-64.412903 6.606452 1.651613 14.864516 1.651613 23.122581 1.651613h1.651613c36.335484 0 71.019355-13.212903 95.793548-39.63871 26.425806-26.425806 41.290323-61.109677 41.290323-97.445161v-33.032258h-33.032258c-39.63871 0-71.019355-31.380645-71.019355-71.019355v-33.032258h-33.032258c-34.683871 0-69.367742 14.864516-95.793548 41.290323-26.425806 26.425806-39.63871 61.109677-39.63871 97.445161 0 34.683871 14.864516 67.716129 37.987097 92.490323 1.651613 42.941935 19.819355 107.354839 72.670967 146.993548-44.593548 36.335484-74.322581 79.277419-74.32258 127.174193 0 42.941935 26.425806 82.580645 66.064516 117.264517-26.425806 0-51.2 14.864516-62.76129 41.290322-11.56129 26.425806-3.303226 57.806452 18.167742 75.974194l94.141935 79.277419c6.606452 4.954839 13.212903 8.258065 21.470968 8.258065 9.909677 0 18.167742-3.303226 24.774193-11.561291 11.56129-13.212903 9.909677-34.683871-3.303226-46.245161l-94.141935-79.277419 125.522581 11.56129c94.141935 44.593548 196.541935 71.019355 231.225806 71.019355s137.083871-24.774194 231.225807-71.019355l125.52258-11.56129-94.141935 79.277419c-13.212903 11.56129-16.516129 33.032258-3.303226 46.245161 6.606452 8.258065 16.516129 11.56129 24.774193 11.561291s14.864516-3.303226 21.470968-8.258065l94.141936-79.277419c21.470968-18.167742 29.729032-49.548387 18.167742-75.974194-8.258065-26.425806-33.032258-41.290323-61.109678-41.290322z m-33.032258-414.554839c-19.819355 0-36.335484-6.606452-51.2-19.819355-6.606452-6.606452-11.56129-14.864516-14.864516-23.122581 44.593548-13.212903 79.277419-47.896774 92.490323-92.490322 8.258065 3.303226 16.516129 8.258065 23.12258 14.864516 13.212903 13.212903 19.819355 31.380645 19.819355 51.2 0 36.335484-31.380645 69.367742-69.367742 69.367742z m-693.677419-120.567742c6.606452-6.606452 13.212903-11.56129 23.12258-14.864516 13.212903 44.593548 47.896774 79.277419 92.490323 92.490322-3.303226 8.258065-8.258065 16.516129-14.864516 23.122581-13.212903 13.212903-31.380645 19.819355-51.2 19.819355-37.987097 0-69.367742-33.032258-69.367742-69.367742-1.651613-19.819355 6.606452-37.987097 19.819355-51.2z m526.864516 204.8c0 9.909677-6.606452 16.516129-16.516129 16.516129-4.954839 0-8.258065-1.651613-11.56129-4.954839-3.303226-3.303226-4.954839-6.606452-4.954839-11.56129 0-9.909677 8.258065-16.516129 16.516129-16.516129 6.606452 0 13.212903 4.954839 14.864516 9.909677 0 1.651613 1.651613 4.954839 1.651613 6.606452z m-293.987097-16.516129c8.258065 0 16.516129 6.606452 16.516129 16.516129 0 4.954839-1.651613 8.258065-4.954839 11.56129-3.303226 3.303226-6.606452 4.954839-11.56129 4.954839-9.909677 0-16.516129-6.606452-16.516129-16.516129 0-1.651613 0-4.954839 1.651613-6.606452 3.303226-4.954839 8.258065-9.909677 14.864516-9.909677z m-71.019355 92.490322c6.606452-3.303226 14.864516-6.606452 21.470968-9.909677 13.212903 9.909677 31.380645 16.516129 49.548387 16.516129 37.987097 0 71.019355-26.425806 79.277419-62.76129 26.425806-6.606452 46.245161-9.909677 57.806452-9.909678s33.032258 3.303226 57.806452 9.909678c9.909677 36.335484 41.290323 62.76129 79.277419 62.76129 18.167742 0 36.335484-6.606452 49.548387-16.516129 6.606452 3.303226 14.864516 6.606452 21.470968 9.909677 90.83871 44.593548 145.341935 95.793548 145.341935 135.432259 0 37.987097-52.851613 87.535484-143.690322 132.129032-1.651613 1.651613-3.303226 1.651613-4.954839 3.303226-31.380645-51.2-112.309677-87.535484-206.451613-87.535484-29.729032 0-57.806452 3.303226-84.232258 9.909677-8.258065 1.651613-14.864516 11.56129-11.56129 19.819355 1.651613 8.258065 11.56129 14.864516 19.819355 11.56129 24.774194-6.606452 49.548387-9.909677 77.625806-9.909677 80.929032 0 150.296774 28.077419 176.722581 67.716129-28.077419 11.56129-54.503226 21.470968-79.27742 29.729032-46.245161 14.864516-82.580645 23.122581-97.445161 23.122581s-51.2-8.258065-97.445161-23.122581c-24.774194-8.258065-51.2-18.167742-79.27742-29.729032 8.258065-13.212903 21.470968-24.774194 37.987097-34.683871 8.258065-4.954839 9.909677-14.864516 4.954839-23.122581-4.954839-8.258065-14.864516-9.909677-23.122581-4.954838-23.122581 13.212903-41.290323 31.380645-51.2 49.548387-1.651613-1.651613-3.303226-1.651613-4.954838-3.303226-89.187097-44.593548-143.690323-92.490323-143.690323-132.129032 3.303226-37.987097 57.806452-89.187097 148.645161-133.780646z" /></svg>