<?xml version="1.0" standalone="no"?><!DOCTYPE svg PUBLIC "-//W3C//DTD SVG 1.1//EN" "http://www.w3.org/Graphics/SVG/1.1/DTD/svg11.dtd"><svg class="icon" width="128px" height="128.00px" viewBox="0 0 1024 1024" version="1.1" xmlns="http://www.w3.org/2000/svg"><path d="M839.019355 155.251613c18.167742 0 33.032258-14.864516 33.032258-33.032258s-14.864516-33.032258-33.032258-33.032258h-138.735484c-31.380645 0-59.458065 23.122581-64.412903 52.851613l-18.167742 92.490322H411.251613c-18.167742-62.76129-75.974194-107.354839-142.03871-107.354838-82.580645 0-148.645161 66.064516-148.645161 148.645161 0 71.019355 47.896774 128.825806 113.96129 143.690322l1.651613 23.122581 16.516129 320.412903 3.303226 74.322581c1.651613 16.516129 4.954839 31.380645 13.212903 42.941935 0 0 0 1.651613 1.651613 1.651613 0 1.651613 1.651613 1.651613 1.651613 3.303226 9.909677 14.864516 23.122581 26.425806 37.987097 34.683871 3.303226 1.651613 4.954839 3.303226 8.258064 3.303226 11.56129 4.954839 24.774194 6.606452 37.987097 6.606452H726.709677c16.516129 0 31.380645-3.303226 46.245162-11.561291 29.729032-16.516129 51.2-46.245161 52.851613-82.580645L845.625806 495.483871l9.909678-188.283871c1.651613-18.167742-4.954839-36.335484-18.167742-49.548387-13.212903-13.212903-29.729032-21.470968-47.896774-21.470968h-104.051613l16.516129-80.929032h137.083871z m-592.929032 102.4c-13.212903 13.212903-19.819355 31.380645-18.167742 49.548387l1.651613 44.593548c-26.425806-14.864516-42.941935-41.290323-42.941936-72.670967 0-46.245161 36.335484-82.580645 82.580645-82.580646 29.729032 0 56.154839 16.516129 71.019355 41.290323h-46.245161c-18.167742-1.651613-36.335484 6.606452-47.896774 19.819355z m47.896774 44.593548h310.503226l-28.07742 142.03871c-28.077419-8.258065-57.806452-16.516129-87.535484-21.470968-57.806452-9.909677-120.567742-6.606452-188.283871 6.606452l-6.606451-127.174194zM759.741935 835.716129c0 11.56129-6.606452 21.470968-16.516129 26.425806-4.954839 3.303226-11.56129 4.954839-18.167741 4.954839H355.096774c-18.167742 0-33.032258-13.212903-33.032258-31.380645l-1.651613-37.987097-16.516129-302.245161c64.412903-13.212903 120.567742-16.516129 173.419355-6.606452 41.290323 6.606452 80.929032 19.819355 122.219355 33.032258 28.077419 9.909677 59.458065 19.819355 89.187097 26.425807 29.729032 8.258065 57.806452 11.56129 85.883871 13.212903L759.741935 835.716129z m29.729033-533.470968l-9.909678 194.890323c-23.122581-1.651613-46.245161-4.954839-72.670967-11.56129-23.122581-4.954839-44.593548-13.212903-67.716129-19.819355l33.032258-163.509678h117.264516z" /><path d="M462.451613 801.032258h-59.458065c-8.258065 0-16.516129-6.606452-16.516129-16.516129l-3.303225-51.2c0-9.909677-8.258065-16.516129-18.167742-14.864516-9.909677 0-16.516129 8.258065-14.864517 18.167742l3.303226 51.2c1.651613 26.425806 23.122581 47.896774 49.548387 47.896774H462.451613c9.909677 0 16.516129-6.606452 16.516129-16.516129s-8.258065-18.167742-16.516129-18.167742zM561.548387 801.032258h-33.032258c-9.909677 0-16.516129 6.606452-16.516129 16.516129s6.606452 16.516129 16.516129 16.516129h33.032258c9.909677 0 16.516129-6.606452 16.516129-16.516129s-6.606452-16.516129-16.516129-16.516129z" /></svg>