<?xml version="1.0" standalone="no"?><!DOCTYPE svg PUBLIC "-//W3C//DTD SVG 1.1//EN" "http://www.w3.org/Graphics/SVG/1.1/DTD/svg11.dtd"><svg class="icon" width="128px" height="128.00px" viewBox="0 0 1024 1024" version="1.1" xmlns="http://www.w3.org/2000/svg"><path d="M890.219355 630.916129c-29.729032-29.729032-75.974194-36.335484-112.309678-19.819355l-42.941935-42.941935c59.458065-117.264516 39.63871-264.258065-59.458065-361.703226l-102.4-102.4-4.954838-4.954839C513.651613 54.503226 388.129032 79.277419 247.741935 221.316129c-56.154839 56.154839-99.096774 118.916129-123.870967 175.070968-28.077419 66.064516-24.774194 120.567742 6.606451 151.948387l100.748387 100.748387c61.109677 61.109677 142.03871 92.490323 221.316129 92.490323 47.896774 0 95.793548-11.56129 140.387097-33.032259l42.941936 42.941936c-18.167742 37.987097-9.909677 82.580645 19.819355 112.309677 18.167742 18.167742 42.941935 29.729032 69.367742 29.729033s51.2-9.909677 69.367741-29.729033c16.516129-16.516129 23.122581-41.290323 19.819355-72.670967 31.380645 3.303226 56.154839-3.303226 72.670968-19.819355 18.167742-18.167742 29.729032-42.941935 29.729032-69.367742 3.303226-26.425806-6.606452-51.2-26.425806-71.019355z m-713.496774-128.825806c-8.258065-8.258065-11.56129-34.683871 8.258064-79.27742 19.819355-49.548387 59.458065-104.051613 109.006452-153.6 84.232258-84.232258 168.464516-123.870968 211.406451-123.870968 9.909677 0 18.167742 1.651613 23.122581 6.606452 23.122581 23.122581-11.56129 128.825806-117.264516 232.877419-49.548387 49.548387-104.051613 89.187097-153.6 109.006452-46.245161 19.819355-72.670968 16.516129-80.929032 8.258065z m452.541935 100.748387c-24.774194 24.774194-54.503226 42.941935-84.232258 56.154838-89.187097 34.683871-194.890323 16.516129-265.909677-56.154838l-34.683871-34.683871c13.212903-3.303226 24.774194-6.606452 39.638709-13.212904 56.154839-23.122581 118.916129-67.716129 175.070968-123.870967 79.277419-79.277419 122.219355-153.6 137.083871-213.058065l34.683871 34.683871c71.019355 71.019355 89.187097 176.722581 54.503226 265.909678-13.212903 31.380645-31.380645 59.458065-56.154839 84.232258z m214.709678 122.219355s-4.954839 3.303226-19.819355 1.651612c-19.819355-1.651613-39.63871 4.954839-52.851613 19.819355-13.212903 13.212903-21.470968 33.032258-18.167742 52.851613v8.258065c0 8.258065-1.651613 11.56129-1.651613 11.56129-13.212903 13.212903-34.683871 13.212903-46.245161 0-11.56129-11.56129-13.212903-28.077419-4.954839-41.290323 13.212903-19.819355 11.56129-46.245161-6.606452-62.76129l-42.941935-42.941935c8.258065-6.606452 16.516129-14.864516 24.774193-21.470968 8.258065-8.258065 14.864516-16.516129 21.470968-24.774194l42.941936 42.941936c16.516129 16.516129 42.941935 19.819355 62.76129 6.606451 13.212903-8.258065 29.729032-6.606452 41.290323 4.954839 6.606452 6.606452 9.909677 14.864516 9.909677 23.122581 0 6.606452-3.303226 14.864516-9.909677 21.470968z" /><path d="M602.83871 530.167742c-6.606452 9.909677-13.212903 18.167742-21.470968 26.425806-6.606452 6.606452-6.606452 16.516129 0 23.122581 3.303226 3.303226 8.258065 4.954839 11.56129 4.954839s8.258065-1.651613 11.561291-4.954839c9.909677-9.909677 18.167742-19.819355 24.774193-29.729032 4.954839-8.258065 3.303226-18.167742-4.954839-23.122581-4.954839-4.954839-14.864516-3.303226-21.470967 3.303226zM602.83871 295.63871c-6.606452 4.954839-8.258065 16.516129-3.303226 23.12258 36.335484 47.896774 46.245161 109.006452 26.425806 166.812904-3.303226 8.258065 1.651613 18.167742 9.909678 21.470967 1.651613 0 3.303226 1.651613 4.954838 1.651613 6.606452 0 13.212903-4.954839 14.864517-11.56129 21.470968-67.716129 9.909677-140.387097-31.380646-196.541936-4.954839-8.258065-14.864516-9.909677-21.470967-4.954838zM300.593548 414.554839c26.425806 0 62.76129-21.470968 90.83871-49.548387 19.819355-19.819355 34.683871-41.290323 42.941936-59.458065 13.212903-33.032258 3.303226-49.548387-3.303226-56.154839-24.774194-26.425806-77.625806 0-117.264516 39.63871-37.987097 37.987097-64.412903 90.83871-39.63871 117.264516 6.606452 4.954839 16.516129 8.258065 26.425806 8.258065z m36.335484-104.051613c29.729032-29.729032 56.154839-39.63871 66.064516-39.63871h3.303226c3.303226 4.954839-4.954839 36.335484-39.638709 71.019355-34.683871 34.683871-64.412903 42.941935-71.019355 39.63871-1.651613-6.606452 6.606452-36.335484 41.290322-71.019355z" /></svg>