<?xml version="1.0" standalone="no"?><!DOCTYPE svg PUBLIC "-//W3C//DTD SVG 1.1//EN" "http://www.w3.org/Graphics/SVG/1.1/DTD/svg11.dtd"><svg class="icon" width="128px" height="128.00px" viewBox="0 0 1024 1024" version="1.1" xmlns="http://www.w3.org/2000/svg"><path d="M663.948387 581.367742c-8.258065-4.954839-18.167742-1.651613-23.122581 6.606452-6.606452 11.56129-14.864516 21.470968-23.12258 31.380645-6.606452 6.606452-6.606452 16.516129 0 23.12258 3.303226 3.303226 8.258065 4.954839 11.56129 4.954839s8.258065-1.651613 11.56129-4.954839c11.56129-11.56129 21.470968-24.774194 29.729033-37.987096 3.303226-8.258065 1.651613-18.167742-6.606452-23.122581zM658.993548 530.167742c-1.651613 8.258065 4.954839 16.516129 14.864517 18.167742h1.651612c8.258065 0 14.864516-6.606452 16.516129-14.864516 8.258065-71.019355-18.167742-150.296774-72.670967-213.058065-6.606452-6.606452-16.516129-8.258065-23.122581-1.651613-6.606452 6.606452-8.258065 16.516129-1.651613 23.122581 47.896774 56.154839 72.670968 127.174194 64.412903 188.283871zM312.154839 373.264516c14.864516 0 31.380645-6.606452 42.941935-18.167742 11.56129-11.56129 18.167742-26.425806 18.167742-42.941935s-6.606452-31.380645-18.167742-42.941936c-23.122581-23.122581-62.76129-23.122581-84.232258 0-11.56129 11.56129-18.167742 26.425806-18.167742 42.941936s6.606452 31.380645 18.167742 42.941935c9.909677 11.56129 24.774194 18.167742 41.290323 18.167742z m-19.819355-79.277419c4.954839-4.954839 11.56129-8.258065 18.167742-8.258065s13.212903 3.303226 18.167742 8.258065c4.954839 4.954839 8.258065 11.56129 8.258064 18.167742s-3.303226 13.212903-8.258064 18.167742c-9.909677 9.909677-28.077419 9.909677-37.987097 0-4.954839-4.954839-8.258065-11.56129-8.258065-18.167742s4.954839-13.212903 9.909678-18.167742z" /><path d="M888.567742 622.658065c-28.077419-28.077419-62.76129-44.593548-99.096774-51.2 3.303226-18.167742 6.606452-37.987097 6.606451-56.154839 8.258065-44.593548 44.593548-251.045161-23.12258-318.761291C711.845161 133.780645 601.187097 148.645161 563.2 156.903226c-4.954839-1.651613-9.909677-3.303226-13.212903-4.954839-4.954839-3.303226-8.258065-4.954839-13.212903-4.954839h-1.651613c-36.335484-11.56129-75.974194-19.819355-118.916129-19.819354-92.490323-3.303226-176.722581 23.122581-222.967742 69.367741s-72.670968 130.477419-69.367742 222.967742c1.651613 41.290323 8.258065 80.929032 19.819355 117.264517v1.651612c0 4.954839 3.303226 8.258065 4.954838 11.561291 18.167742 49.548387 44.593548 92.490323 80.929033 128.825806 79.277419 79.277419 180.025806 118.916129 275.819354 118.916129 21.470968 0 42.941935-1.651613 62.761291-6.606451 6.606452 36.335484 24.774194 69.367742 51.2 97.445161 8.258065 6.606452 29.729032 28.077419 56.154838 28.077419h8.258065c31.380645-4.954839 46.245161-33.032258 62.76129-64.412903 11.56129-19.819355 23.122581-44.593548 41.290323-62.76129 18.167742-18.167742 41.290323-31.380645 62.76129-41.290323 29.729032-16.516129 59.458065-31.380645 64.412903-62.76129V677.16129c1.651613-24.774194-19.819355-46.245161-26.425806-54.503225z m-161.858065-379.870968c13.212903 13.212903 18.167742 42.941935 19.819355 80.929032-18.167742-33.032258-41.290323-62.76129-69.367742-90.83871-4.954839-4.954839-9.909677-9.909677-16.516129-14.864516 26.425806 1.651613 51.2 8.258065 66.064516 24.774194z m-485.574193 0c29.729032-29.729032 92.490323-51.2 165.16129-51.2 28.077419 0 57.806452 3.303226 85.883871 9.909677-18.167742 62.76129-57.806452 127.174194-110.658064 180.025807s-117.264516 92.490323-180.025807 110.658064c-6.606452-29.729032-9.909677-56.154839-9.909677-75.974193-3.303226-72.670968 16.516129-142.03871 49.548387-173.419355z m327.019355 482.270968c-94.141935 24.774194-206.451613-8.258065-290.683871-92.490323-23.122581-24.774194-41.290323-51.2-54.503226-77.625807 71.019355-21.470968 143.690323-64.412903 204.8-125.52258 61.109677-61.109677 105.703226-132.129032 127.174193-204.8 28.077419 13.212903 52.851613 31.380645 75.974194 54.503226 66.064516 66.064516 100.748387 151.948387 100.748387 231.225806 0 21.470968-3.303226 41.290323-8.258064 61.109678-9.909677 36.335484-28.077419 71.019355-56.154839 99.096774-28.077419 26.425806-61.109677 44.593548-99.096774 54.503226z m252.696774-33.032259c-23.122581 13.212903-52.851613 28.077419-77.625807 52.851613-24.774194 24.774194-41.290323 54.503226-52.851612 77.625807-4.954839 8.258065-9.909677 19.819355-14.864517 26.425806-1.651613-1.651613-4.954839-3.303226-6.606451-6.606451-19.819355-19.819355-31.380645-46.245161-34.683871-71.019355 29.729032-13.212903 57.806452-31.380645 80.929032-56.154839 23.122581-23.122581 42.941935-51.2 56.154839-80.929032 26.425806 3.303226 51.2 14.864516 72.670968 34.683871l6.606451 6.606451c-8.258065 4.954839-19.819355 11.56129-29.729032 16.516129z" /></svg>