<?xml version="1.0" standalone="no"?><!DOCTYPE svg PUBLIC "-//W3C//DTD SVG 1.1//EN" "http://www.w3.org/Graphics/SVG/1.1/DTD/svg11.dtd"><svg class="icon" width="128px" height="128.00px" viewBox="0 0 1024 1024" version="1.1" xmlns="http://www.w3.org/2000/svg"><path d="M867.096774 396.387097c-11.56129-14.864516-29.729032-21.470968-49.548387-21.470968h-46.245161c-9.909677 0-19.819355 3.303226-29.729032 6.606452l1.651612-1.651613 8.258065-77.625807c4.954839-44.593548-26.425806-84.232258-71.019355-89.187096H677.16129c-21.470968-3.303226-42.941935 3.303226-59.458064 16.516129s-28.077419 33.032258-29.729032 54.503225l-9.909678 84.232258v-198.193548c0-44.593548-36.335484-80.929032-80.929032-80.929032h-3.303226c-44.593548 0-80.929032 36.335484-80.929032 80.929032v85.883871c-4.954839-8.258065-11.56129-16.516129-19.819355-23.122581-16.516129-13.212903-37.987097-19.819355-59.458065-18.167742H330.322581c-44.593548 4.954839-77.625806 44.593548-72.670968 89.187097l6.606452 74.322581h1.651612c-6.606452-1.651613-13.212903-3.303226-19.819354-3.303226h-46.245162c-18.167742 0-36.335484 8.258065-49.548387 21.470968-11.56129 14.864516-18.167742 33.032258-14.864516 51.2l51.2 404.645161c6.606452 47.896774 47.896774 84.232258 95.793548 84.232258h447.587097c47.896774 0 89.187097-36.335484 95.793549-84.232258l51.2-404.645161c8.258065-19.819355 3.303226-37.987097-9.909678-51.2z m-132.129032-9.909678l-1.651613 1.651613c0-1.651613 1.651613-1.651613 1.651613-1.651613z m-11.56129 9.909678l-1.651613 1.651613s1.651613 0 1.651613-1.651613z m-6.606452 11.56129c0 1.651613-1.651613 1.651613-1.651613 3.303226 0-1.651613 0-1.651613 1.651613-3.303226zM662.296774 280.774194c1.651613-1.651613 4.954839-3.303226 11.561291-3.303226h3.303225c8.258065 1.651613 14.864516 8.258065 13.212904 16.516129l-21.470968 186.632258c-9.909677 6.606452-21.470968 9.909677-34.683871 9.909677l23.12258-201.496774c0-4.954839 3.303226-8.258065 4.954839-8.258064z m13.212903 194.890322c-1.651613 1.651613-3.303226 1.651613-4.954838 3.303226 1.651613-1.651613 3.303226-1.651613 4.954838-3.303226zM497.135484 155.251613h3.303226c8.258065 0 14.864516 6.606452 14.864516 14.864516v322.064516h-33.032258V170.116129c0-8.258065 6.606452-14.864516 14.864516-14.864516z m-156.903226 123.870968H345.187097c4.954839 0 8.258065 1.651613 9.909677 3.303225 1.651613 1.651613 4.954839 4.954839 4.954839 9.909678l19.819355 198.193548c-13.212903-3.303226-24.774194-8.258065-34.683871-16.516129L327.019355 297.290323c0-9.909677 4.954839-16.516129 13.212903-18.167742z m44.593548 211.406451h-3.303225 3.303225z m-39.638709-16.516129c-1.651613-1.651613-4.954839-3.303226-6.606452-6.606451l6.606452 6.606451z m-11.561291-11.56129l-3.303225-3.303226 3.303225 3.303226z m-21.470967-41.290323c0-1.651613-1.651613-3.303226-1.651613-4.954838 1.651613 1.651613 1.651613 3.303226 1.651613 4.954838z m-3.303226-9.909677c0-1.651613-1.651613-3.303226-3.303226-4.954839 1.651613 1.651613 3.303226 3.303226 3.303226 4.954839z m-4.954839-8.258065c-1.651613-1.651613-3.303226-3.303226-3.303226-4.954838 1.651613 1.651613 3.303226 3.303226 3.303226 4.954838z m-4.954839-8.258064l-6.606451-6.606452c1.651613 1.651613 3.303226 4.954839 6.606451 6.606452z m-8.258064-6.606452c-1.651613-1.651613-4.954839-3.303226-8.258065-4.954838 3.303226 1.651613 6.606452 3.303226 8.258065 4.954838z m-9.909677-6.606451c-1.651613-1.651613-3.303226-1.651613-6.606452-3.303226 1.651613 1.651613 4.954839 1.651613 6.606452 3.303226zM766.348387 842.322581c-1.651613 14.864516-14.864516 26.425806-31.380645 26.425806h-445.935484c-14.864516 0-28.077419-11.56129-29.729032-26.425806l-51.2-402.993549h42.941935c14.864516 69.367742 77.625806 118.916129 146.993549 118.916129H627.612903c39.63871 0 77.625806-16.516129 107.354839-44.593548 19.819355-19.819355 34.683871-46.245161 41.290323-74.322581h42.941935L766.348387 842.322581z" /><path d="M513.651613 802.683871h-33.032258c-9.909677 0-16.516129 6.606452-16.516129 16.516129s6.606452 16.516129 16.516129 16.516129h33.032258c9.909677 0 16.516129-6.606452 16.516129-16.516129s-6.606452-16.516129-16.516129-16.516129zM414.554839 802.683871h-72.670968c-8.258065 0-14.864516-6.606452-16.516129-14.864516l-4.954839-34.683871c-1.651613-8.258065-9.909677-14.864516-18.167742-13.212903-8.258065 1.651613-14.864516 9.909677-13.212903 18.167742l4.954839 34.683871c3.303226 24.774194 24.774194 42.941935 49.548387 42.941935h72.670968c9.909677 0 16.516129-6.606452 16.516129-16.516129s-8.258065-16.516129-18.167742-16.516129z" /></svg>