<?xml version="1.0" standalone="no"?><!DOCTYPE svg PUBLIC "-//W3C//DTD SVG 1.1//EN" "http://www.w3.org/Graphics/SVG/1.1/DTD/svg11.dtd"><svg class="icon" width="128px" height="128.00px" viewBox="0 0 1024 1024" version="1.1" xmlns="http://www.w3.org/2000/svg"><path d="M792.774194 711.845161H231.225806c-36.335484 0-66.064516 29.729032-66.064516 66.064516v41.290323c0 54.503226 44.593548 99.096774 99.096775 99.096774h495.48387c54.503226 0 99.096774-44.593548 99.096775-99.096774v-41.290323c0-36.335484-29.729032-66.064516-66.064516-66.064516z m0 107.354839c0 18.167742-14.864516 33.032258-33.032259 33.032258H264.258065c-18.167742 0-33.032258-14.864516-33.032259-33.032258v-41.290323h561.548388v41.290323zM858.83871 602.83871c-49.548387 0-75.974194 9.909677-99.096775 18.167742-19.819355 8.258065-37.987097 14.864516-74.32258 14.864516s-54.503226-6.606452-74.322581-14.864516c-23.122581-8.258065-49.548387-18.167742-99.096774-18.167742s-75.974194 9.909677-99.096774 18.167742c-19.819355 8.258065-37.987097 14.864516-74.322581 14.864516-37.987097 0-54.503226-6.606452-74.32258-14.864516-23.122581-8.258065-49.548387-18.167742-99.096775-18.167742-18.167742 0-33.032258 14.864516-33.032258 33.032258s14.864516 33.032258 33.032258 33.032258c37.987097 0 54.503226 6.606452 74.322581 14.864516 23.122581 8.258065 49.548387 18.167742 99.096774 18.167742s75.974194-9.909677 99.096774-18.167742c19.819355-8.258065 37.987097-14.864516 74.322581-14.864516 37.987097 0 54.503226 6.606452 74.322581 14.864516 23.122581 8.258065 49.548387 18.167742 99.096774 18.167742s75.974194-9.909677 99.096774-18.167742c19.819355-8.258065 37.987097-14.864516 74.322581-14.864516 18.167742 0 33.032258-14.864516 33.032258-33.032258s-14.864516-33.032258-33.032258-33.032258zM222.967742 584.670968h578.064516c49.548387 0 90.83871-41.290323 90.83871-90.83871 0-29.729032-14.864516-56.154839-36.335484-72.670968 1.651613-4.954839 3.303226-11.56129 3.303226-18.167742 0-11.56129 1.651613-118.916129-77.625807-201.496774-59.458065-64.412903-150.296774-95.793548-269.212903-95.793548-118.916129 0-209.754839 33.032258-269.212903 97.445161-79.277419 82.580645-77.625806 189.935484-77.625807 201.496774 0 6.606452 1.651613 11.56129 3.303226 18.167742C146.993548 439.329032 132.129032 465.754839 132.129032 495.483871c0 47.896774 41.290323 89.187097 90.83871 89.187097z m67.716129-338.580645c47.896774-49.548387 122.219355-75.974194 221.316129-75.974194s173.419355 24.774194 221.316129 75.974194c62.76129 66.064516 59.458065 153.6 59.458065 153.6v1.651612H512l-280.774194-1.651612s-3.303226-87.535484 59.458065-153.6z m-67.716129 222.967742h578.064516c13.212903 0 24.774194 11.56129 24.774194 24.774193s-11.56129 24.774194-24.774194 24.774194h-578.064516c-13.212903 0-24.774194-11.56129-24.774194-24.774194s11.56129-24.774194 24.774194-24.774193z" /><path d="M589.625806 244.43871c41.290323 8.258065 74.322581 24.774194 95.793549 47.896774 4.954839 4.954839 9.909677 11.56129 14.864516 18.167742 3.303226 4.954839 8.258065 6.606452 13.212903 6.606451 3.303226 0 6.606452-1.651613 9.909678-3.303225 8.258065-4.954839 9.909677-14.864516 4.954838-23.122581-4.954839-8.258065-11.56129-16.516129-18.167742-23.122581-26.425806-28.077419-66.064516-47.896774-113.96129-57.806451-8.258065-1.651613-18.167742 3.303226-19.819355 13.212903-1.651613 11.56129 4.954839 19.819355 13.212903 21.470968zM512 237.832258h29.729032c8.258065 0 16.516129-6.606452 16.516129-14.864516 0-9.909677-6.606452-16.516129-14.864516-18.167742h-29.729032c-9.909677 0-16.516129 6.606452-16.516129 16.516129s4.954839 16.516129 14.864516 16.516129z" /></svg>