<?xml version="1.0" standalone="no"?><!DOCTYPE svg PUBLIC "-//W3C//DTD SVG 1.1//EN" "http://www.w3.org/Graphics/SVG/1.1/DTD/svg11.dtd"><svg class="icon" width="128px" height="128.00px" viewBox="0 0 1024 1024" version="1.1" xmlns="http://www.w3.org/2000/svg"><path d="M426.116129 556.593548c-3.303226 0-4.954839 0-8.258064-1.651613-8.258065-4.954839-11.56129-14.864516-6.606452-23.12258 9.909677-18.167742 24.774194-33.032258 44.593548-44.593549 8.258065-4.954839 18.167742-1.651613 23.122581 6.606452 4.954839 8.258065 1.651613 18.167742-6.606452 23.122581-13.212903 8.258065-23.122581 18.167742-31.380645 31.380645-3.303226 4.954839-9.909677 8.258065-14.864516 8.258064z" /><path d="M512 703.587097c-62.76129 0-113.96129-49.548387-115.612903-112.309678 0-9.909677 6.606452-16.516129 16.516129-16.516129 8.258065 0 16.516129 6.606452 16.516129 16.516129 1.651613 44.593548 37.987097 80.929032 82.580645 80.929033 46.245161 0 82.580645-36.335484 82.580645-82.580646s-36.335484-82.580645-82.580645-82.580645c-9.909677 0-16.516129-6.606452-16.516129-16.516129s6.606452-16.516129 16.516129-16.516129c64.412903 0 115.612903 51.2 115.612903 115.612903s-51.2 113.96129-115.612903 113.961291z" /><path d="M858.83871 274.167742h-54.503226L786.167742 181.677419c-9.909677-46.245161-49.548387-79.277419-97.445161-79.277419H335.277419c-47.896774 0-87.535484 33.032258-97.445161 79.277419l-18.167742 92.490323H165.16129c-18.167742 0-33.032258 14.864516-33.032258 33.032258s14.864516 33.032258 33.032258 33.032258h52.851613l39.63871 474.012903c4.954839 49.548387 47.896774 87.535484 99.096774 87.535484h312.154839c51.2 0 92.490323-37.987097 99.096774-89.187097l39.63871-474.012903H858.83871c18.167742 0 33.032258-14.864516 33.032258-33.032258s-14.864516-31.380645-33.032258-31.380645z m-556.593549-80.929032c3.303226-14.864516 16.516129-26.425806 33.032258-26.425807h95.793549l3.303226 14.864516c8.258065 36.335484 41.290323 61.109677 77.625806 61.109678s69.367742-24.774194 77.625806-61.109678l3.303226-14.864516h95.793549c16.516129 0 29.729032 11.56129 33.032258 26.425807l14.864516 72.670967H287.380645l14.864516-72.670967z m254.348387-16.516129c-6.606452 19.819355-24.774194 33.032258-44.593548 33.032258-21.470968 0-37.987097-13.212903-44.593548-33.032258h89.187096z m143.690323 630.916129c-1.651613 16.516129-16.516129 29.729032-33.032258 29.729032H356.748387c-16.516129 0-31.380645-13.212903-33.032258-28.077419l-39.63871-467.406452h455.845162l-39.63871 465.754839z" /></svg>