<?xml version="1.0" standalone="no"?><!DOCTYPE svg PUBLIC "-//W3C//DTD SVG 1.1//EN" "http://www.w3.org/Graphics/SVG/1.1/DTD/svg11.dtd"><svg class="icon" width="128px" height="128.00px" viewBox="0 0 1024 1024" version="1.1" xmlns="http://www.w3.org/2000/svg"><path d="M825.806452 340.232258H528.516129V168.464516h292.335484c18.167742 0 33.032258-14.864516 33.032258-33.032258s-14.864516-33.032258-33.032258-33.032258H335.277419c-36.335484 0-66.064516 29.729032-66.064516 66.064516v171.767742H198.193548c-36.335484 0-66.064516 29.729032-66.064516 66.064516v49.548387c0 158.554839 97.445161 293.987097 234.529033 351.793549v46.245161c0 36.335484 29.729032 66.064516 66.064516 66.064516h156.903225c36.335484 0 66.064516-29.729032 66.064517-66.064516v-46.245161C794.425806 749.832258 891.870968 612.748387 891.870968 455.845161v-49.548387c0-37.987097-29.729032-66.064516-66.064516-66.064516z m-363.354839 0h-33.032258V168.464516h33.032258v171.767742z m-127.174194-171.767742H363.354839v171.767742h-28.07742V168.464516z m256 685.419355h-156.903225v-26.425806c24.774194 4.954839 51.2 8.258065 79.277419 8.258064s52.851613-3.303226 79.277419-8.258064v26.425806zM825.806452 455.845161c0 173.419355-140.387097 313.806452-313.806452 313.806452s-313.806452-140.387097-313.806452-313.806452v-49.548387h627.612904v49.548387z" /><path d="M512 738.270968c21.470968 0 42.941935-1.651613 62.76129-6.606452 8.258065-1.651613 14.864516-11.56129 13.212904-19.819355-1.651613-8.258065-11.56129-14.864516-19.819355-13.212903-18.167742 3.303226-36.335484 6.606452-56.154839 6.606452-9.909677 0-16.516129 6.606452-16.516129 16.516129s6.606452 16.516129 16.516129 16.516129zM630.916129 710.193548c1.651613 0 4.954839 0 6.606452-1.651613 75.974194-37.987097 132.129032-110.658065 150.296774-193.238709 1.651613-8.258065-3.303226-18.167742-13.212903-19.819355-8.258065-1.651613-18.167742 3.303226-19.819355 13.212903-16.516129 72.670968-66.064516 137.083871-133.780645 170.116129-8.258065 3.303226-11.56129 13.212903-6.606452 21.470968 3.303226 6.606452 9.909677 9.909677 16.516129 9.909677z" /></svg>