<?xml version="1.0" standalone="no"?><!DOCTYPE svg PUBLIC "-//W3C//DTD SVG 1.1//EN" "http://www.w3.org/Graphics/SVG/1.1/DTD/svg11.dtd"><svg class="icon" width="128px" height="128.00px" viewBox="0 0 1024 1024" version="1.1" xmlns="http://www.w3.org/2000/svg"><path d="M910.03871 753.135484c-11.56129-33.032258-39.63871-57.806452-72.670968-66.064516-1.651613 0-3.303226-1.651613-6.606452-1.651613l-8.258064-19.819355L606.141935 163.509677c-16.516129-36.335484-51.2-59.458065-90.838709-59.458064s-74.322581 23.122581-90.83871 59.458064L199.845161 685.419355c-39.63871 3.303226-74.322581 29.729032-87.535484 67.716129-8.258065 24.774194-4.954839 51.2 6.606452 74.322581 13.212903 24.774194 37.987097 44.593548 67.716129 52.851612 105.703226 28.077419 214.709677 41.290323 323.716129 41.290323s218.012903-13.212903 323.716129-41.290323c29.729032-8.258065 54.503226-26.425806 67.716129-52.851612 14.864516-23.122581 16.516129-49.548387 8.258065-74.322581zM763.045161 693.677419c-14.864516 3.303226-28.077419 6.606452-42.941935 9.909678 6.606452-14.864516 19.819355-24.774194 34.683871-28.07742l8.258064 18.167742zM573.109677 252.696774l34.683871 79.27742c-26.425806 0-46.245161-21.470968-46.245161-47.896775 0-11.56129 4.954839-23.122581 11.56129-31.380645z m-87.535483-64.412903c8.258065-18.167742 24.774194-19.819355 29.729032-19.819355s23.122581 1.651613 29.729032 19.819355l13.212903 31.380645c-19.819355 14.864516-31.380645 37.987097-31.380645 64.412903 0 44.593548 36.335484 80.929032 80.929032 80.929033 4.954839 0 8.258065 0 11.561291-1.651613l122.219355 280.774193c-29.729032 8.258065-52.851613 34.683871-57.806452 66.064516-97.445161 14.864516-198.193548 18.167742-297.290323 6.606452 0-4.954839 1.651613-9.909677 1.651613-14.864516 0-44.593548-36.335484-80.929032-80.929032-80.929032h-6.606452l184.980646-432.722581zM284.077419 658.993548c6.606452-3.303226 14.864516-6.606452 23.122581-6.606451 26.425806 0 47.896774 21.470968 47.896774 47.896774 0 3.303226 0 6.606452-1.651613 9.909677-29.729032-3.303226-57.806452-9.909677-85.883871-16.516129l16.516129-34.683871z m561.548387 137.083871c-4.954839 9.909677-14.864516 16.516129-26.425806 19.819355-201.496774 52.851613-412.903226 52.851613-614.4 0-11.56129-3.303226-21.470968-9.909677-26.425806-19.819355-3.303226-6.606452-4.954839-14.864516-1.651613-21.470967 3.303226-8.258065 9.909677-14.864516 18.167742-19.819355 4.954839-3.303226 11.56129-4.954839 18.167742-4.954839 3.303226 0 6.606452 0 9.909677 1.651613l19.819355 4.954839c3.303226 1.651613 4.954839 1.651613 8.258064 1.651613 29.729032 6.606452 59.458065 13.212903 89.187097 16.516129 120.567742 18.167742 242.787097 16.516129 361.703226-3.303226 14.864516-1.651613 28.077419-4.954839 42.941935-8.258065 14.864516-3.303226 29.729032-6.606452 46.245162-9.909677 3.303226 0 8.258065-1.651613 11.56129-3.303226h1.651613c11.56129-3.303226 23.122581 0 31.380645 4.954839l1.651613 1.651613c4.954839 3.303226 9.909677 9.909677 11.56129 16.516129 1.651613 8.258065 0 16.516129-3.303226 23.12258z" /><path d="M445.935484 477.316129c4.954839 0 9.909677-1.651613 13.212903-4.954839 6.606452-8.258065 16.516129-14.864516 26.425807-19.819355 8.258065-3.303226 11.56129-13.212903 8.258064-21.470967-3.303226-8.258065-13.212903-11.56129-21.470968-8.258065-14.864516 6.606452-26.425806 16.516129-36.335484 28.07742-6.606452 6.606452-4.954839 16.516129 1.651613 23.12258 0 1.651613 3.303226 3.303226 8.258065 3.303226z" /><path d="M515.303226 632.567742c61.109677 0 110.658065-49.548387 110.658064-110.658065 0-54.503226-37.987097-99.096774-90.838709-109.006451-8.258065-1.651613-18.167742 4.954839-19.819355 13.212903-1.651613 8.258065 4.954839 18.167742 13.212903 19.819355 36.335484 6.606452 64.412903 37.987097 64.412903 75.974193 0 42.941935-34.683871 77.625806-77.625806 77.625807s-77.625806-34.683871-77.625807-77.625807v-6.606451c0-9.909677-6.606452-16.516129-14.864516-18.167742-9.909677-1.651613-16.516129 6.606452-18.167742 14.864516v8.258065c1.651613 62.76129 51.2 112.309677 110.658065 112.309677z" /></svg>