<?xml version="1.0" standalone="no"?><!DOCTYPE svg PUBLIC "-//W3C//DTD SVG 1.1//EN" "http://www.w3.org/Graphics/SVG/1.1/DTD/svg11.dtd"><svg class="icon" width="128px" height="128.00px" viewBox="0 0 1024 1024" version="1.1" xmlns="http://www.w3.org/2000/svg"><path d="M804.335484 634.219355l62.76129-62.76129 1.651613-1.651613c18.167742-18.167742 29.729032-42.941935 29.729032-69.367742s-9.909677-51.2-29.729032-69.367742l-1.651613-1.651613-75.974193-75.974194-132.129033-132.129032C536.774194 99.096774 340.232258 99.096774 218.012903 221.316129c-122.219355 122.219355-122.219355 318.76129 0 440.980645L429.419355 873.703226c18.167742 18.167742 42.941935 29.729032 69.367742 29.729032s51.2-9.909677 69.367742-29.729032l1.651613-1.651613 74.32258-74.322581 42.941936 42.941936c21.470968 21.470968 47.896774 31.380645 75.974193 31.380645s54.503226-9.909677 75.974194-31.380645l6.606451-6.606452c41.290323-41.290323 41.290323-110.658065 0-151.948387l-41.290322-47.896774z m-378.219355 94.141935c-8.258065 8.258065-16.516129 14.864516-23.122581 21.470968L264.258065 611.096774c-95.793548-95.793548-95.793548-251.045161 0-346.838709 47.896774-47.896774 110.658065-72.670968 173.419354-72.670968S563.2 216.36129 611.096774 264.258065l135.432258 135.432258c-36.335484 36.335484-59.458065 44.593548-87.535484 56.154838-29.729032 11.56129-64.412903 26.425806-109.006451 71.019355-46.245161 46.245161-57.806452 82.580645-69.367742 113.96129-9.909677 28.077419-19.819355 52.851613-54.503226 87.535484z m97.445161 92.490323c-13.212903 13.212903-37.987097 13.212903-51.2 0l-23.12258-23.122581c8.258065-6.606452 14.864516-13.212903 23.12258-21.470967 46.245161-46.245161 57.806452-82.580645 69.367742-113.961291 9.909677-28.077419 18.167742-52.851613 52.851613-87.535484 36.335484-36.335484 59.458065-44.593548 87.535484-56.154838 29.729032-11.56129 64.412903-26.425806 109.006452-71.019355l26.425806 26.425806c6.606452 6.606452 9.909677 16.516129 9.909678 26.425807 0 9.909677-3.303226 18.167742-9.909678 26.425806L523.56129 820.851613z m275.819355-37.987097l-6.606451 6.606452c-16.516129 16.516129-42.941935 16.516129-57.806452 0l-42.941936-42.941936 64.412904-64.412903 42.941935 42.941936c8.258065 8.258065 11.56129 18.167742 11.56129 29.729032 0 9.909677-3.303226 19.819355-11.56129 28.077419z" /><path d="M576.412903 315.458065c4.954839 0 8.258065-1.651613 11.561291-4.954839 6.606452-6.606452 6.606452-16.516129 0-23.122581-52.851613-52.851613-132.129032-74.322581-206.451613-54.503226-8.258065 1.651613-13.212903 11.56129-11.561291 19.819355 1.651613 8.258065 11.56129 14.864516 19.819355 11.561291 62.76129-16.516129 128.825806 1.651613 173.419355 46.245161 4.954839 3.303226 8.258065 4.954839 13.212903 4.954839zM320.412903 259.303226c-11.56129 8.258065-23.122581 16.516129-33.032258 26.425806-6.606452 6.606452-6.606452 16.516129 0 23.122581 3.303226 3.303226 8.258065 4.954839 11.56129 4.954839s8.258065-1.651613 11.561291-4.954839c8.258065-8.258065 18.167742-16.516129 28.077419-23.122581 8.258065-4.954839 9.909677-14.864516 4.954839-23.12258-4.954839-4.954839-14.864516-8.258065-23.122581-3.303226z" /></svg>