<?xml version="1.0" standalone="no"?><!DOCTYPE svg PUBLIC "-//W3C//DTD SVG 1.1//EN" "http://www.w3.org/Graphics/SVG/1.1/DTD/svg11.dtd"><svg class="icon" width="128px" height="128.00px" viewBox="0 0 1024 1024" version="1.1" xmlns="http://www.w3.org/2000/svg"><path d="M842.322581 411.251613h-33.032258v-51.2c0-36.335484-29.729032-66.064516-66.064517-66.064516H280.774194c-36.335484 0-66.064516 29.729032-66.064517 66.064516v51.2h-33.032258c-54.503226 0-99.096774 44.593548-99.096774 99.096774v33.032258c0 54.503226 44.593548 99.096774 99.096774 99.096774h33.032258v163.509678c0 54.503226 44.593548 99.096774 99.096775 99.096774h396.387096c54.503226 0 99.096774-44.593548 99.096775-99.096774v-163.509678h33.032258c54.503226 0 99.096774-44.593548 99.096774-99.096774v-33.032258c0-54.503226-44.593548-99.096774-99.096774-99.096774z m-627.612904 165.16129h-33.032258c-18.167742 0-33.032258-14.864516-33.032258-33.032258v-33.032258c0-18.167742 14.864516-33.032258 33.032258-33.032258h33.032258v99.096774z m528.516129-165.16129v394.735484c0 18.167742-14.864516 33.032258-33.032258 33.032258H313.806452c-18.167742 0-33.032258-14.864516-33.032258-33.032258v-445.935484h462.451612v51.2z m132.129033 132.129032c0 18.167742-14.864516 33.032258-33.032258 33.032258h-33.032258v-99.096774h33.032258c18.167742 0 33.032258 14.864516 33.032258 33.032258v33.032258z" /><path d="M396.387097 805.987097h49.548387c9.909677 0 16.516129-6.606452 16.516129-16.516129s-6.606452-16.516129-16.516129-16.516129h-49.548387c-28.077419 0-49.548387-21.470968-49.548387-49.548387v-16.516129c0-9.909677-6.606452-16.516129-16.516129-16.516129s-16.516129 6.606452-16.516129 16.516129v16.516129c0 46.245161 36.335484 82.580645 82.580645 82.580645zM512 805.987097h33.032258c9.909677 0 16.516129-6.606452 16.516129-16.516129s-6.606452-16.516129-16.516129-16.516129h-33.032258c-9.909677 0-16.516129 6.606452-16.516129 16.516129s8.258065 16.516129 16.516129 16.516129zM241.135484 221.316129l526.864516 46.245161h3.303226c16.516129 0 31.380645-13.212903 33.032258-29.729032 1.651613-18.167742-11.56129-34.683871-29.729032-36.335484l-148.645162-13.212903c-1.651613-24.774194-9.909677-47.896774-26.425806-67.716129-21.470968-23.122581-49.548387-37.987097-80.929032-41.290323-31.380645-3.303226-61.109677 6.606452-84.232258 26.425807-19.819355 16.516129-33.032258 37.987097-37.987097 62.76129l-148.645162-13.212903c-18.167742-1.651613-34.683871 11.56129-36.335483 29.729032-1.651613 18.167742 11.56129 34.683871 29.729032 36.335484z m272.516129-75.974194c13.212903 1.651613 24.774194 6.606452 33.032258 18.167742 4.954839 4.954839 8.258065 13.212903 9.909677 19.819355l-92.490322-8.258064c8.258065-19.819355 28.077419-31.380645 49.548387-29.729033z" /></svg>