<?xml version="1.0" standalone="no"?><!DOCTYPE svg PUBLIC "-//W3C//DTD SVG 1.1//EN" "http://www.w3.org/Graphics/SVG/1.1/DTD/svg11.dtd"><svg class="icon" width="128px" height="128.00px" viewBox="0 0 1024 1024" version="1.1" xmlns="http://www.w3.org/2000/svg"><path d="M891.870968 460.8c0-105.703226-79.277419-191.587097-180.025807-204.8-23.122581-89.187097-104.051613-155.251613-199.845161-155.251613s-176.722581 66.064516-199.845161 155.251613c-100.748387 13.212903-180.025806 99.096774-180.025807 204.8 0 9.909677 0 18.167742 1.651613 26.425806-1.651613 4.954839-1.651613 9.909677-1.651613 14.864517v41.290322c0 209.754839 170.116129 379.870968 379.870968 379.870968s379.870968-170.116129 379.870968-379.870968v-41.290322c0-4.954839 0-9.909677-1.651613-14.864517 1.651613-8.258065 1.651613-16.516129 1.651613-26.425806z m-206.451613-140.387097c11.56129 0 21.470968 1.651613 33.032258 3.303226 54.503226 13.212903 97.445161 57.806452 105.703226 113.96129h-33.032258c-8.258065-39.63871-39.63871-71.019355-77.625807-80.929032-8.258065-3.303226-18.167742-3.303226-26.425806-3.303226-16.516129 0-31.380645 3.303226-44.593549 9.909678-28.077419 13.212903-49.548387 36.335484-57.806451 66.064516 0 3.303226-1.651613 4.954839-1.651613 8.258064h-33.032258c1.651613-11.56129 4.954839-21.470968 9.909677-31.380645 11.56129-28.077419 33.032258-51.2 57.806452-66.064516 11.56129-6.606452 23.122581-11.56129 36.335484-14.864516 8.258065-3.303226 19.819355-4.954839 31.380645-4.954839z m71.019355 117.264516h-140.387097c9.909677-29.729032 37.987097-51.2 71.019355-51.2 4.954839 0 11.56129 0 16.516129 1.651613 23.122581 6.606452 44.593548 24.774194 52.851613 49.548387zM512 348.490323c-18.167742-28.077419-41.290323-49.548387-69.367742-66.064517 9.909677-28.077419 37.987097-49.548387 69.367742-49.548387s59.458065 19.819355 69.367742 49.548387c-28.077419 16.516129-51.2 39.63871-69.367742 66.064517z m0-181.67742c59.458065 0 112.309677 37.987097 132.129032 90.83871-11.56129 1.651613-21.470968 4.954839-31.380645 9.909677-16.516129-39.63871-54.503226-67.716129-99.096774-67.716129s-84.232258 28.077419-99.096774 67.716129c-9.909677-3.303226-21.470968-6.606452-31.380645-9.909677 16.516129-52.851613 69.367742-90.83871 128.825806-90.83871z m-206.451613 156.903226c9.909677-3.303226 21.470968-3.303226 33.032258-3.303226s23.122581 1.651613 34.683871 4.954839c13.212903 3.303226 24.774194 8.258065 36.335484 14.864516 26.425806 14.864516 46.245161 37.987097 57.806452 66.064516 4.954839 9.909677 8.258065 21.470968 9.909677 31.380645h-33.032258c0-3.303226-1.651613-4.954839-1.651613-8.258064-9.909677-29.729032-31.380645-52.851613-57.806452-66.064516-13.212903-6.606452-28.077419-9.909677-44.593548-9.909678-9.909677 0-18.167742 1.651613-26.425806 3.303226-37.987097 9.909677-69.367742 41.290323-77.625807 80.929032h-33.032258c6.606452-56.154839 47.896774-100.748387 102.4-113.96129z m104.051613 113.96129h-140.387097c8.258065-24.774194 28.077419-42.941935 54.503226-49.548387 4.954839-1.651613 11.56129-1.651613 16.516129-1.651613 31.380645 0 59.458065 21.470968 69.367742 51.2zM825.806452 543.380645c0 26.425806-3.303226 52.851613-9.909678 77.625807-34.683871 135.432258-156.903226 236.180645-303.896774 236.180645s-269.212903-100.748387-303.896774-236.180645c-6.606452-24.774194-9.909677-51.2-9.909678-77.625807v-39.63871H825.806452v39.63871z" /><path d="M568.154839 786.167742c-18.167742 4.954839-37.987097 6.606452-56.154839 6.606452-9.909677 0-16.516129 6.606452-16.516129 16.516129s6.606452 16.516129 16.516129 16.516129c21.470968 0 42.941935-1.651613 62.76129-6.606452 8.258065-1.651613 14.864516-11.56129 13.212904-19.819355-3.303226-9.909677-11.56129-14.864516-19.819355-13.212903zM776.258065 583.019355c-8.258065-1.651613-18.167742 3.303226-19.819355 13.212903-16.516129 72.670968-66.064516 137.083871-133.780645 170.116129-8.258065 3.303226-11.56129 13.212903-6.606452 21.470968 3.303226 6.606452 8.258065 9.909677 14.864516 9.909677 1.651613 0 4.954839 0 6.606452-1.651613 75.974194-37.987097 132.129032-110.658065 150.296774-193.238709 1.651613-9.909677-3.303226-18.167742-11.56129-19.819355z" /></svg>