<?xml version="1.0" standalone="no"?><!DOCTYPE svg PUBLIC "-//W3C//DTD SVG 1.1//EN" "http://www.w3.org/Graphics/SVG/1.1/DTD/svg11.dtd"><svg class="icon" width="128px" height="128.00px" viewBox="0 0 1024 1024" version="1.1" xmlns="http://www.w3.org/2000/svg"><path d="M602.83871 218.012903v-1.651613H269.212903c9.909677-33.032258 41.290323-57.806452 77.625807-57.806451h411.251613c18.167742 0 33.032258-14.864516 33.032258-33.032258s-14.864516-33.032258-33.032258-33.032258H346.83871c-72.670968 0-133.780645 52.851613-145.341936 123.870967H140.387097c-36.335484 0-66.064516 29.729032-66.064516 66.064516 0 173.419355 140.387097 313.806452 313.806451 313.806452h148.645162v90.83871h-117.264517c-85.883871 0-156.903226 71.019355-156.903225 156.903226 0 36.335484 29.729032 66.064516 66.064516 66.064516h274.167742V908.387097c175.070968-16.516129 313.806452-165.16129 313.806451-345.187097s-138.735484-328.670968-313.806451-345.187097z m-66.064516 625.961291H328.670968c0-49.548387 41.290323-90.83871 90.838709-90.83871h117.264517v90.83871z m0-313.806452h-148.645162c-137.083871 0-247.741935-110.658065-247.741935-247.741936h396.387097v247.741936z m312.154838 0h-198.193548l140.387097-140.387097c29.729032 39.63871 51.2 87.535484 57.806451 140.387097zM602.83871 284.077419c52.851613 6.606452 100.748387 26.425806 140.387096 57.806452l-140.387096 140.387097v-198.193549z m0 558.245162V644.129032l140.387096 140.387097c-39.63871 31.380645-87.535484 51.2-140.387096 57.806452z m186.632258-105.703226l-140.387097-140.387097h198.193548c-4.954839 52.851613-26.425806 100.748387-57.806451 140.387097z" /><path d="M188.283871 361.703226c24.774194 61.109677 75.974194 107.354839 137.083871 127.174193h4.954839c6.606452 0 13.212903-4.954839 16.516129-11.56129 3.303226-8.258065-1.651613-18.167742-11.561291-19.819355-52.851613-16.516129-95.793548-56.154839-117.264516-107.354839-3.303226-8.258065-13.212903-13.212903-21.470968-9.909677-6.606452 3.303226-11.56129 13.212903-8.258064 21.470968zM388.129032 497.135484h33.032258c9.909677 0 16.516129-6.606452 16.516129-16.516129s-6.606452-16.516129-16.516129-16.516129h-33.032258c-9.909677 0-16.516129 6.606452-16.516129 16.516129s6.606452 16.516129 16.516129 16.516129z" /></svg>