<?xml version="1.0" standalone="no"?><!DOCTYPE svg PUBLIC "-//W3C//DTD SVG 1.1//EN" "http://www.w3.org/Graphics/SVG/1.1/DTD/svg11.dtd"><svg class="icon" width="128px" height="128.00px" viewBox="0 0 1024 1024" version="1.1" xmlns="http://www.w3.org/2000/svg"><path d="M350.18271573333334 898.3387658666664c-56.63604906666666 0-113.27209919999997-22.249876266666657-155.749136-64.72691413333334-78.88592639999999-76.86320959999999-86.9767904-202.27160533333333-18.204443733333335-287.2256789333333l8.090864-10.113579733333331 2.0227157333333334-2.0227167999999995 364.08888959999996-360.04345599999994c64.72691306666665-62.70419733333333 167.8854325333333-62.70419733333333 232.6123455999999 0 30.340740266666668 30.340740266666668 48.54518506666666 70.79506133333331 48.54518506666666 115.29481386666663s-16.181728 84.95407359999997-48.54518506666666 115.29481493333331L427.0459264 756.7486421333333c-42.477036799999986 42.477036799999986-111.2493824 42.477036799999986-153.72642026666662 0-20.22716053333333-20.22716053333333-32.36345706666667-46.522469333333326-32.36345706666667-76.86320959999999 0-28.31802453333333 12.136296533333333-56.63604906666666 32.36345706666667-76.86321066666666L572.6814816 307.70567893333333c8.090864-8.090864 20.22716053333333-8.090864 28.31802453333333 0 8.090864 8.090864 8.090864 20.22716053333333 0 28.31802453333333L301.63753066666663 633.3629632c-12.136296533333333 12.136296533333333-20.22716053333333 30.340740266666668-20.22716053333333 46.522469333333326s6.068148266666666 34.38617279999999 20.22716053333333 46.52246826666668c26.2953088 26.2953088 70.79506133333331 26.2953088 97.09037013333332 0L754.7259263999999 374.45530880000007c24.272593066666666-22.249876266666657 36.40888853333332-54.61333333333334 36.40888853333332-86.9767904s-12.136296533333333-62.70419733333333-36.40888853333332-86.9767904c-48.54518506666666-48.54518506666666-127.43111146666665-48.54518506666666-175.97629653333334 0L216.68345706666673 560.5451850666666l-8.090864 10.113580799999996c-54.61333333333334 70.79506133333331-48.54518506666666 171.930864 14.159012266666664 234.63506133333334 64.72691306666665 62.70419733333333 165.86271573333332 68.77234559999998 238.6804938666666 14.159012266666664l10.113579733333331-8.090864L855.8617279999999 431.0913578666666c8.090864-8.090864 20.22716053333333-8.090864 28.3180256 0 8.090864 8.090864 8.090864 20.22716053333333 0 28.31802453333333l-384.31605013333325 382.29333333333324-2.0227157333333334 2.0227167999999995-10.113580799999996 8.090864c-42.477036799999986 30.340740266666668-88.99950613333333 46.522469333333326-137.54469119999996 46.522469333333326z" /></svg>