<?xml version="1.0" standalone="no"?><!DOCTYPE svg PUBLIC "-//W3C//DTD SVG 1.1//EN" "http://www.w3.org/Graphics/SVG/1.1/DTD/svg11.dtd"><svg class="icon" width="128px" height="128.00px" viewBox="0 0 1024 1024" version="1.1" xmlns="http://www.w3.org/2000/svg"><path d="M683.712 800l-89.408 148.992a96 96 0 0 1-164.608 0L340.288 800H192A160 160 0 0 1 32 640V192A160 160 0 0 1 192 32h640A160 160 0 0 1 992 192v448a160 160 0 0 1-160 160h-148.288z m148.288-64a96 96 0 0 0 96-96V192A96 96 0 0 0 832 96H192A96 96 0 0 0 96 192v448A96 96 0 0 0 192 736h184.512l108.032 180.096a32 32 0 0 0 54.912 0l108.032-180.096H832zM256 416m-64 0a64 64 0 1 0 128 0 64 64 0 1 0-128 0ZM512 416m-64 0a64 64 0 1 0 128 0 64 64 0 1 0-128 0ZM768 416m-64 0a64 64 0 1 0 128 0 64 64 0 1 0-128 0Z" /></svg>