<?xml version="1.0" standalone="no"?><!DOCTYPE svg PUBLIC "-//W3C//DTD SVG 1.1//EN" "http://www.w3.org/Graphics/SVG/1.1/DTD/svg11.dtd"><svg t="1676290453526" class="icon" viewBox="0 0 1024 1024" version="1.1" xmlns="http://www.w3.org/2000/svg" p-id="1668" xmlns:xlink="http://www.w3.org/1999/xlink" width="128" height="128"><path d="M160 224 240 128 784 128 864 224 160 224ZM640 672 640 800 384 800 384 672 192 672 490.016 361.408C502.144 348.736 521.92 348.768 533.984 361.344L832 672 640 672ZM942.208 229.312 849.792 90.688C840 76 817.792 64 800.256 64L223.744 64C206.56 64 184.032 75.968 174.208 90.688L81.792 229.312C72 244 64 270.368 64 288.064L64 896.288C64 931.52 92.544 960 127.712 960L896.288 960C931.2 960 960 931.488 960 896.288L960 288.064C960 270.048 952.032 244.032 942.208 229.312" p-id="1669"></path></svg>