<?xml version="1.0" standalone="no"?><!DOCTYPE svg PUBLIC "-//W3C//DTD SVG 1.1//EN" "http://www.w3.org/Graphics/SVG/1.1/DTD/svg11.dtd"><svg class="icon" width="128px" height="128.00px" viewBox="0 0 1024 1024" version="1.1" xmlns="http://www.w3.org/2000/svg"><path d="M983.7 312.7C957.9 251.7 921 197 874 150S772.3 66.1 711.3 40.3C648.1 13.5 581.1 0 512 0S375.9 13.5 312.7 40.3C251.7 66.1 197 103 150 150S66.1 251.7 40.3 312.7C13.5 375.9 0 442.9 0 512s13.5 136.1 40.3 199.3C66.1 772.3 103 827 150 874s101.7 83.9 162.7 109.7c63.2 26.7 130.2 40.3 199.3 40.3s136.1-13.5 199.3-40.3C772.3 957.9 827 921 874 874s83.9-101.7 109.7-162.7c26.7-63.2 40.3-130.2 40.3-199.3s-13.5-136.1-40.3-199.3z m-66.3 370.6c-22.2 52.4-53.9 99.5-94.3 139.9-40.4 40.4-87.5 72.1-139.9 94.3C629 940.4 571.4 952 512 952s-117-11.6-171.3-34.6c-52.4-22.2-99.5-53.9-139.9-94.3-40.4-40.4-72.1-87.5-94.3-139.9C83.6 629 72 571.4 72 512s11.6-117 34.6-171.3c22.2-52.4 53.9-99.5 94.3-139.9s87.5-72.1 139.9-94.3C395 83.6 452.6 72 512 72s117 11.6 171.3 34.6c52.4 22.2 99.5 53.9 139.9 94.3 40.4 40.4 72.1 87.5 94.3 139.9C940.4 395 952 452.6 952 512s-11.6 117-34.6 171.3zM400.5 254.5c-14.1 14.1-14.1 36.9 0 50.9L607.1 512 400.5 718.5c-14.1 14.1-14.1 36.9 0 50.9 7 7 16.2 10.5 25.5 10.5s18.4-3.5 25.5-10.5l231.9-231.9c14.1-14.1 14.1-36.8 0-50.9l-232-232c-14-14.1-36.8-14.1-50.9-0.1z" /></svg>