<?xml version="1.0" standalone="no"?><!DOCTYPE svg PUBLIC "-//W3C//DTD SVG 1.1//EN" "http://www.w3.org/Graphics/SVG/1.1/DTD/svg11.dtd"><svg class="icon" width="128px" height="128.00px" viewBox="0 0 1024 1024" version="1.1" xmlns="http://www.w3.org/2000/svg"><path d="M512 1024c-69.1 0-136.1-13.5-199.3-40.3C251.7 957.9 197 921 150 874S66.1 772.3 40.3 711.3C13.5 648.1 0 581.1 0 512s13.5-136.1 40.3-199.3C66.1 251.7 103 197 150 150S251.7 66.1 312.7 40.3C375.9 13.5 442.9 0 512 0s136.1 13.5 199.3 40.3C772.3 66.1 827 103 874 150s83.9 101.7 109.7 162.7c26.7 63.2 40.3 130.2 40.3 199.3s-13.5 136.1-40.3 199.3C957.9 772.3 921 827 874 874s-101.7 83.9-162.7 109.7c-63.2 26.8-130.2 40.3-199.3 40.3z m0-952c-59.4 0-117 11.6-171.3 34.6-52.4 22.2-99.5 53.9-139.9 94.3s-72.1 87.5-94.3 139.9C83.6 395 72 452.6 72 512s11.6 117 34.6 171.3c22.2 52.4 53.9 99.5 94.3 139.9 40.4 40.4 87.5 72.1 139.9 94.3C395 940.4 452.6 952 512 952s117-11.6 171.3-34.6c52.4-22.2 99.5-53.9 139.9-94.3 40.4-40.4 72.1-87.5 94.3-139.9C940.4 629 952 571.4 952 512s-11.6-117-34.6-171.3c-22.2-52.4-53.9-99.5-94.3-139.9-40.4-40.4-87.5-72.1-139.9-94.3C629 83.6 571.4 72 512 72zM537.5 683.5c-14.1 14.1-36.8 14.1-50.9 0l-232-232c-14.1-14.1-14.1-36.9 0-50.9 14.1-14.1 36.9-14.1 50.9 0L512 607.1l206.5-206.5c14.1-14.1 36.9-14.1 50.9 0 7 7 10.5 16.2 10.5 25.5s-3.5 18.4-10.5 25.5L537.5 683.5z" /></svg>