<?xml version="1.0" standalone="no"?><!DOCTYPE svg PUBLIC "-//W3C//DTD SVG 1.1//EN" "http://www.w3.org/Graphics/SVG/1.1/DTD/svg11.dtd"><svg fill="red" class="icon" width="128px" height="128.00px" viewBox="0 0 1024 1024" version="1.1" xmlns="http://www.w3.org/2000/svg"><path d="M721.49 610.5c12.88-12.66 12.88-33.4 0-46.28-12.66-12.88-33.4-12.88-46.28 0L545.98 693.45V128.94c0-18.12-14.63-32.74-32.74-32.74-18.12 0-32.74 14.63-32.74 32.74v564.72L351.27 564.44c-12.66-12.88-33.4-12.88-46.28 0-12.88 12.66-12.88 33.4 0 46.28l161.97 161.97 23.14 23.14c12.66 12.88 33.4 12.88 46.28 0l23.14-23.14L721.49 610.5zM895.25 667.23c-18.08 0-32.74 14.66-32.74 32.74v163.8H163.97v-163.8c0-18.08-14.66-32.74-32.74-32.74s-32.74 14.66-32.74 32.74v196.55c0 18.08 14.66 32.74 32.74 32.74h764.02c18.08 0 32.74-14.66 32.74-32.74V699.97c0.01-18.09-14.65-32.74-32.74-32.74z" /></svg>