<?xml version="1.0" standalone="no"?><!DOCTYPE svg PUBLIC "-//W3C//DTD SVG 1.1//EN" "http://www.w3.org/Graphics/SVG/1.1/DTD/svg11.dtd"><svg class="icon" width="128px" height="128.00px" viewBox="0 0 1024 1024" version="1.1" xmlns="http://www.w3.org/2000/svg"><path d="M714.624 468.48a32.170667 32.170667 0 0 1 0-45.226667l136.106667-136.106666-136.106667-136.106667a32 32 0 0 1 45.184-45.184l158.848 158.72a31.914667 31.914667 0 0 1 0 45.312l-158.72 158.72a33.536 33.536 0 0 1-22.613333 9.386667 31.658667 31.658667 0 0 1-22.698667-9.514667zM128 319.146667a32.213333 32.213333 0 0 1-32-32 32.213333 32.213333 0 0 1 32-32h768a32.213333 32.213333 0 0 1 32 32 32.213333 32.213333 0 0 1-32 32zM264.106667 918.613333l-158.72-158.592a31.914667 31.914667 0 0 1 0-45.226666l158.72-158.805334a32 32 0 0 1 45.226666 45.184l-136.106666 136.149334 136.106666 136.064a32.213333 32.213333 0 0 1 0 45.226666 30.293333 30.293333 0 0 1-22.613333 9.386667 31.658667 31.658667 0 0 1-22.613333-9.386667zM128 768.853333a32.213333 32.213333 0 0 1-32-32 32.213333 32.213333 0 0 1 32-32h768a32.213333 32.213333 0 0 1 32 32 32.213333 32.213333 0 0 1-32 32z" /></svg>