<?xml version="1.0" standalone="no"?><!DOCTYPE svg PUBLIC "-//W3C//DTD SVG 1.1//EN" "http://www.w3.org/Graphics/SVG/1.1/DTD/svg11.dtd"><svg class="icon" width="128px" height="128.00px" viewBox="0 0 1024 1024" version="1.1" xmlns="http://www.w3.org/2000/svg"><path d="M423.253333 309.333333L287.146667 173.226667 150.997333 309.333333A32 32 0 0 1 105.813333 264.106667L264.533333 105.386667a31.914667 31.914667 0 0 1 45.312 0l158.72 158.72a32.170667 32.170667 0 0 1 0 45.226666 31.914667 31.914667 0 0 1-45.226666 0zM255.146667 896V128a32.213333 32.213333 0 0 1 32-32 32.213333 32.213333 0 0 1 32 32v768a32.213333 32.213333 0 0 1-32 32 32.213333 32.213333 0 0 1-32-32zM714.666667 918.698667l-158.677334-158.848a32 32 0 0 1 45.184-45.184l136.106667 136.106666 136.106667-136.106666a32 32 0 0 1 45.226666 45.226666l-158.592 158.805334a32.725333 32.725333 0 0 1-22.613333 9.386666 31.957333 31.957333 0 0 1-22.741333-9.386666zM704.853333 896V128a32.213333 32.213333 0 0 1 32-32 32.213333 32.213333 0 0 1 32 32v768a32 32 0 0 1-64 0z" /></svg>