<?xml version="1.0" standalone="no"?><!DOCTYPE svg PUBLIC "-//W3C//DTD SVG 1.1//EN" "http://www.w3.org/Graphics/SVG/1.1/DTD/svg11.dtd"><svg class="icon" width="128px" height="128.00px" viewBox="0 0 1024 1024" version="1.1" xmlns="http://www.w3.org/2000/svg"><path d="M819.380706 683.610353l-42.526118-42.646588L875.881412 542.117647H542.117647v333.763765l98.846118-99.026824 42.646588 42.526118L512 991.352471l-171.610353-171.971765 42.646588-42.526118L481.882353 875.881412V542.117647H148.118588l99.026824 98.846118-42.526118 42.646588L32.647529 512l171.971765-171.610353 42.526118 42.646588L148.118588 481.882353H481.882353V148.118588L383.036235 247.145412l-42.646588-42.526118L512 32.647529l171.610353 171.971765-42.646588 42.526118L542.117647 148.118588V481.882353h333.763765l-99.026824-98.846118 42.526118-42.646588L991.352471 512l-171.971765 171.610353z" /></svg>