<?xml version="1.0" standalone="no"?><!DOCTYPE svg PUBLIC "-//W3C//DTD SVG 1.1//EN" "http://www.w3.org/Graphics/SVG/1.1/DTD/svg11.dtd"><svg class="icon" width="128px" height="128.00px" viewBox="0 0 1024 1024" version="1.1" xmlns="http://www.w3.org/2000/svg"><path d="M408.991951 584.501244 169.582303 823.919079l-0.983397-165.420517c-0.064468-11.446703-9.365298-20.677948-20.795629-20.677948-0.040932 0-0.080841 0-0.121773 0-11.487635 0.064468-20.742417 9.43079-20.675902 20.920472l1.396813 235.735979 235.769748 1.421372c0.040932 0 0.080841 0 0.121773 0 11.43033 0 20.723997-9.228175 20.797675-20.674878 0.064468-11.480472-9.188266-20.844747-20.675902-20.920472l-165.398004-0.99977 239.384066-239.391229c8.124028-8.124028 8.124028-21.285792 0-29.410843C430.27672 576.381309 417.114956 576.381309 408.991951 584.501244zM599.767949 443.907159c5.322216 0 10.643408-2.030239 14.706957-6.091742l239.383042-239.367693 1.00898 165.413354c0.072655 11.440563 9.365298 20.668739 20.795629 20.668739 0.041956 0 0.081864 0 0.12996 0 11.479449-0.070608 20.742417-9.438976 20.667715-20.928658l-1.445932-235.743142-235.704257-1.431605c-0.048095 0-0.089028 0-0.12996 0-11.43033 0-20.723997 9.228175-20.797675 20.668739-0.073678 11.489682 9.188266 20.852934 20.667715 20.927635l165.407214 1.00898L585.064063 408.407644c-8.124028 8.115841-8.124028 21.284769 0 29.40675C589.127611 441.876919 594.448804 443.907159 599.767949 443.907159zM875.785354 637.820614c-0.040932 0-0.080841 0-0.122797 0-11.43033 0-20.732184 9.231245-20.795629 20.677948l-0.983397 165.420517L614.474906 584.501244c-8.124028-8.119935-21.285792-8.119935-29.410843 0-8.124028 8.125051-8.124028 21.286816 0 29.410843l239.384066 239.391229-165.389818 0.99977c-11.487635 0.075725-20.74037 9.44-20.675902 20.920472 0.073678 11.446703 9.367345 20.674878 20.797675 20.674878 0.040932 0 0.081864 0 0.121773 0l235.761562-1.421372 1.396813-235.735979C896.525724 647.252427 887.271966 637.885082 875.785354 637.820614zM438.400748 408.407644c8.124028 8.119935 8.124028 21.284769 0 29.40675-4.062526 4.062526-9.382695 6.091742-14.703887 6.091742-5.322216 0-10.643408-2.030239-14.70491-6.091742L169.607886 198.439538l-1.00898 165.420517c-0.072655 11.440563-9.365298 20.668739-20.795629 20.668739-0.040932 0-0.080841 0-0.12996 0-11.479449-0.070608-20.741393-9.438976-20.667715-20.928658l1.445932-235.743142 235.712443-1.431605c0.049119 0 0.089028 0 0.12996 0 11.43033 0 20.723997 9.228175 20.797675 20.668739 0.073678 11.489682-9.188266 20.852934-20.667715 20.927635l-165.406191 1.00898L438.400748 408.407644z" /></svg>