<?xml version="1.0" standalone="no"?><!DOCTYPE svg PUBLIC "-//W3C//DTD SVG 1.1//EN" "http://www.w3.org/Graphics/SVG/1.1/DTD/svg11.dtd"><svg class="icon" width="128px" height="128.00px" viewBox="0 0 1024 1024" version="1.1" xmlns="http://www.w3.org/2000/svg"><path d="M305.84 294.32c-12.86 12.64-12.86 33.35 0 46.21 12.64 12.86 33.35 12.86 46.21 0l129.04-129.04v563.67c0 18.09 14.6 32.7 32.7 32.7 18.09 0 32.7-14.6 32.7-32.7V211.27l129.04 129.04c12.64 12.86 33.35 12.86 46.21 0 12.86-12.64 12.86-33.35 0-46.21L559.99 132.37l-23.1-23.1c-12.64-12.86-33.35-12.86-46.21 0l-23.1 23.1-161.74 161.95zM895.22 669.8c-18.06 0-32.7 14.64-32.7 32.7v163.56h-697.5V702.49c0-18.06-14.64-32.7-32.7-32.7s-32.7 14.64-32.7 32.7v196.26c0 18.06 14.64 32.7 32.7 32.7H895.22c18.06 0 32.7-14.64 32.7-32.7V702.49c0-18.05-14.64-32.69-32.7-32.69z" /></svg>