<?xml version="1.0" standalone="no"?><!DOCTYPE svg PUBLIC "-//W3C//DTD SVG 1.1//EN" "http://www.w3.org/Graphics/SVG/1.1/DTD/svg11.dtd"><svg class="icon" width="128px" height="128.00px" viewBox="0 0 1024 1024" version="1.1" xmlns="http://www.w3.org/2000/svg"><path d="M155.3 490.8l-21.2-21.2c-44.7-44.7-69.3-104-69.3-167.2 0-63.2 24.6-122.5 69.3-167.2 44.7-44.7 104-69.3 167.2-69.3s122.5 24.6 167.2 69.3l21.2 21.2-334.4 334.4z m146-364.8c-45.2 0-90.4 17.2-124.8 51.6-33.3 33.3-51.7 77.6-51.7 124.8 0 37 11.3 72.2 32.3 101.8L282 279.3l121.1-121.1C372.7 136.7 337 126 301.3 126zM221.8 627.4L118 443.2 303.2 258 447 402.2 221.8 627.4z m-29.2-174l42.6 75.6 126.9-126.9-59-59.2-110.5 110.5zM404.5 444.7L260.8 300.4 442.2 119l184.2 103.7-221.9 222z m-58.9-144.2l59 59.2 123.5-123.5-75.7-42.6-106.8 106.9zM287.1 743.1l-95.9-170 213.4-213.4 132.7 133.2-250.2 250.2z m-21.2-159.8l34.7 61.5 152-152-48-48.2-138.7 138.7zM494.9 535.3L362.2 402.2l209.9-209.9L742.2 288 494.9 535.3zM447 402.2l48 48.2 148.9-148.9-61.5-34.7L447 402.2zM434.9 958.5c-16.2 0-31.2-8.7-39.3-23L256.5 688.9l431.4-431.4 247.5 139.4c15.7 8.8 24.6 26.2 22.7 44.1-1.9 17.9-14.4 32.9-31.6 38.2l-154.4 47.1 1.1 194.4c0.1 13.7-5.2 26.6-14.9 36.3-9.6 9.6-22.4 14.9-36 14.9h-0.2l-196.9-0.6L478 926.5c-5.3 17.3-20.3 29.7-38.2 31.7-1.6 0.2-3.3 0.3-4.9 0.3zM331.2 699.1l99.6 176.7 50.1-164.6 232.3 0.8-1.4-230 163.7-50-177.4-99.9-366.9 367z m586.6-248.6z m-8.8-28.7zM720.9 749.6c-7.7 0-15.4-2.9-21.2-8.8l-226-226.7c-11.7-11.7-11.7-30.7 0.1-42.4 11.7-11.7 30.7-11.7 42.4 0.1l226 226.7c11.7 11.7 11.7 30.7-0.1 42.4-5.9 5.8-13.5 8.7-21.2 8.7z" /></svg>