<?xml version="1.0" standalone="no"?><!DOCTYPE svg PUBLIC "-//W3C//DTD SVG 1.1//EN" "http://www.w3.org/Graphics/SVG/1.1/DTD/svg11.dtd"><svg class="icon" width="128px" height="128.00px" viewBox="0 0 1024 1024" version="1.1" xmlns="http://www.w3.org/2000/svg"><path d="M725.3 821.2c-24.2 0-48.4-9.1-66.9-27.4L117.5 297.1c-2.7-2.3-5.1-4.5-7.3-6.7-49.4-49.5-49.3-130 0.1-179.5 49.5-49.5 130-49.5 179.5 0 2.2 2.2 4.3 4.5 6.7 7.3L793.3 659c36.6 37.3 36.5 97.4-0.5 134.4-18.6 18.5-43.1 27.8-67.5 27.8zM152.6 247.9c1.2 1.2 2.6 2.4 4.2 3.8l0.9 0.8 542.2 497.9 0.5 0.5c13.8 13.8 36.3 13.8 50.1 0 13.7-13.7 13.7-36.2-0.1-50.1l-0.8-0.9-497.8-542-0.3-0.4c-1.5-1.8-2.8-3.2-3.9-4.3-26.1-26.1-68.6-26.1-94.7 0-26.3 26.1-26.3 68.6-0.3 94.7zM802.5 951c-10.7 0-20.8-4.2-28.4-11.7l-46.8-46.8c-7.6-7.5-11.7-17.6-11.7-28.4 0-10.7 4.2-20.8 11.7-28.4l108.4-108.4c15.6-15.6 41.1-15.6 56.7 0l46.8 46.8c7.6 7.5 11.7 17.6 11.7 28.4 0 10.7-4.2 20.8-11.7 28.4L830.8 939.3c-7.5 7.6-17.6 11.7-28.3 11.7z m-18.7-86.8l18.7 18.7 80.3-80.3-18.8-18.7-80.2 80.3zM608.8 749l-138-127.6 150.3-150.3 126.7 139-139 138.9z m-51.4-129.2l49.8 46.1 57.6-57.6-45.7-50.3-61.7 61.8z" /></svg>