<?xml version="1.0" standalone="no"?><!DOCTYPE svg PUBLIC "-//W3C//DTD SVG 1.1//EN" "http://www.w3.org/Graphics/SVG/1.1/DTD/svg11.dtd"><svg class="icon" width="128px" height="128.00px" viewBox="0 0 1024 1024" version="1.1" xmlns="http://www.w3.org/2000/svg"><path d="M515.2 982.4c-60.3 0-118.9-11.8-174-35.1-53.2-22.5-101-54.7-142.1-95.8s-73.3-88.8-95.8-142.1c-23.3-55.1-35.1-113.7-35.1-174s11.8-118.9 35.1-174c22.5-53.2 54.7-101 95.8-142.1s88.8-73.3 142.1-95.8c55.1-23.3 113.7-35.1 174-35.1s118.9 11.8 174 35.1c53.2 22.5 101 54.7 142.1 95.8s73.3 88.8 95.8 142.1c23.3 55.1 35.1 113.7 35.1 174s-11.8 118.9-35.1 174c-22.5 53.2-54.7 101-95.8 142.1s-88.8 73.3-142.1 95.8c-55.1 23.3-113.7 35.1-174 35.1z m0-834c-213.4 0-387 173.6-387 387s173.6 387 387 387 387-173.6 387-387-173.6-387-387-387zM515.1 982.5c-53.5 0-105.9-9.4-155.6-27.8-48-17.8-92.4-43.7-131.8-76.8l-27.4-23 27.4-23C315.6 758.1 366 650 366 535.4S315.6 312.8 227.8 239l-27.3-23 27.3-23c39.4-33.1 83.8-58.9 131.8-76.8 49.7-18.5 102.1-27.8 155.6-27.8s105.9 9.4 155.6 27.8c48 17.8 92.4 43.7 131.8 76.8l27.3 23-27.3 23c-87.8 73.8-138.2 181.9-138.2 296.4 0 114.6 50.3 222.7 138.1 296.5l27.3 23-27.3 23c-39.4 33.1-83.8 58.9-131.8 76.8-49.7 18.4-102.1 27.8-155.6 27.8zM293.7 852.9c64.6 45.1 142.1 69.6 221.4 69.6 79.4 0 156.8-24.5 221.5-69.6-84.4-83.8-132.2-197.5-132.2-317.5 0-119.9 47.8-233.7 132.2-317.4-64.6-45.1-142.1-69.6-221.4-69.6-79.4 0-156.8 24.5-221.4 69.6C378.2 301.7 426 415.5 426 535.4c0 120-47.8 233.8-132.3 317.5zM98.1 505.4h834.1v60H98.1z" /></svg>