<?xml version="1.0" standalone="no"?><!DOCTYPE svg PUBLIC "-//W3C//DTD SVG 1.1//EN" "http://www.w3.org/Graphics/SVG/1.1/DTD/svg11.dtd"><svg class="icon" width="128px" height="128.00px" viewBox="0 0 1024 1024" version="1.1" xmlns="http://www.w3.org/2000/svg"><path d="M511.7 959.3c-77.9 0-154.6-20.4-221.8-58.9l-0.8-0.5c-0.4-0.2-0.8-0.5-1.2-0.7-0.8-0.5-1.6-0.9-2.4-1.4C219.8 859.2 164.6 804 126 738.3c-39.8-67.8-61-145.5-61.3-224.6v-4.3c0.5-79.3 22.1-157.1 62.3-224.9 39-65.7 94.5-120.7 160.5-159 0 0 0.1 0 0.1-0.1l0.4-0.3 0.9-0.5c67.6-38.9 144.6-59.4 222.9-59.4 78.2 0 155.3 20.5 222.9 59.4l0.3 0.2c0.1 0.1 0.3 0.2 0.4 0.2l0.2 0.1c0.3 0.2 0.7 0.4 1 0.6 65.9 38.4 121.3 93.4 160.2 159 40.3 68 61.7 145.9 62.1 225.4v2.5l-0.1 0.7c-0.2 79.1-21.4 156.7-61.1 224.6-38.6 65.9-93.8 121.2-159.6 159.9-0.8 0.5-1.6 1-2.4 1.4-0.4 0.2-0.8 0.5-1.2 0.7l-0.8 0.5c-67.5 38.5-144.2 58.9-222 58.9zM320.1 848.6c58.1 33.2 124.3 50.7 191.6 50.7 67.2 0 133.5-17.5 191.7-50.7 0.7-0.4 1.5-0.9 2.2-1.3 0.4-0.2 0.8-0.5 1.2-0.7l0.5-0.3c117.8-69.2 191.1-197 191.4-333.4v-0.6c0-0.7 0-1.8 0.1-3.2-1.1-136.4-75.1-263.5-193.3-331.9l-3.4-2c-57.8-32.6-123.5-49.9-190.2-49.9-67.6 0-134.1 17.7-192.4 51.1l-0.4 0.3-0.8 0.5c-118.4 68.5-192.5 196-193.4 332.6v3.9c0.4 136.1 73.8 263.6 191.4 332.6l0.5 0.3c0.4 0.2 0.8 0.5 1.2 0.7 0.6 0.4 1.3 0.8 2.1 1.3z m414.1-724.3c0 0.1 0 0.1 0 0 0 0.1 0 0.1 0 0zM633 721.8H390.2L268.9 511.6l121.3-210.3H633l121.4 210.3L633 721.8z m-208.2-60h173.6l86.8-150.2-86.8-150.3H424.8l-86.7 150.3 86.7 150.2zM633 361.3H390.2L268.7 150.8l13.4-22.3 6.8-3.9c67.6-38.9 144.6-59.4 222.9-59.4S667 85.7 734.6 124.6l9 5.2 9.5 23.7L633 361.3z m-208.2-60h173.6l80-138.5c-51.8-24.7-108.9-37.6-166.7-37.6-57.8 0-114.9 13-166.8 37.7l79.9 138.4zM511.7 959.3c-77.9 0-154.6-20.4-221.8-58.9l-7.1-4.1-13.2-23.1 7.7-15.4L390.4 662h242.7l121.3 210.2-13.8 24.2-7.1 4.1c-67.3 38.4-144 58.8-221.8 58.8z m-167.2-97.9c51.9 24.9 109.1 37.9 167.2 37.9 58 0 115.2-13 167.2-37.9L598.5 722H425l-80.5 139.4zM730.7 902.1h-28.3L581.1 691.8l121.4-210.3h242.8l13.4 23.5v8c-0.2 79.2-21.3 157-61.1 225-38.7 65.9-93.9 121.3-159.9 160l-7 4.1z m-80.4-210.3l80.4 139.5c96.1-66.3 157.8-173.5 166.8-289.8H737.1l-86.8 150.3zM944.6 541.6H702.4L581.1 331.3 702.5 121h26l7 4.1c66.3 38.5 122 93.7 161.1 159.7 40.3 68 61.7 146 62.1 225.4v8.6l-14.1 22.8z m-207.6-60h160.4c-9.3-116-71-222.8-167.1-288.8l-80 138.5L737 481.6zM321.2 902.1h-28.6l-7-4.1c-65.8-38.6-121.1-93.9-159.7-159.7-39.8-67.8-61-145.5-61.3-224.6v-8.4l14.2-23.7h242.4L442 690.8l-7.7 15.4-113.1 195.9zM125.7 541.6c9 116.3 70.8 223.6 167 289.8l80.6-139.6-86.8-150.2H125.7zM321.2 541.6H78.7l-14.3-23.8 0.1-8.4c0.5-79.3 22.1-157.1 62.3-224.9 39.1-65.9 94.8-121 161.1-159.3l7-4h26.3l121.5 210.2-121.5 210.2z m-195.5-60h160.9l86.8-150.3-80.2-138.6C197 258.6 135.1 365.4 125.7 481.6z" /></svg>