<?xml version="1.0" standalone="no"?><!DOCTYPE svg PUBLIC "-//W3C//DTD SVG 1.1//EN" "http://www.w3.org/Graphics/SVG/1.1/DTD/svg11.dtd"><svg class="icon" width="128px" height="128.00px" viewBox="0 0 1024 1024" version="1.1" xmlns="http://www.w3.org/2000/svg"><path d="M881.2 892.2H141.8c-24.5 0-44.4-19.9-44.4-44.4V288.6c0-24.5 19.9-44.4 44.4-44.4h739.4c24.5 0 44.4 19.9 44.4 44.4v559.2c0 24.5-19.9 44.4-44.4 44.4z m-723.8-60h708.2v-528H157.4v528zM398.9 731.8H270.1c-21.6 0-39.1-17.5-39.1-39.1V454.6c0-21.6 17.5-39.1 39.1-39.1h128.8c21.6 0 39.1 17.5 39.1 39.1v238.1c0 21.6-17.5 39.1-39.1 39.1z m-107.9-60h87V475.5h-87v196.3zM882.9 304.2H140.2c-23.5 0-42.7-19.2-42.7-42.7V173c0-23.5 19.2-42.7 42.7-42.7h742.7c23.5 0 42.7 19.2 42.7 42.7v88.5c0 23.5-19.2 42.7-42.7 42.7z m-725.4-60h708.1v-53.9H157.5v53.9zM703.8 731.8c-16.6 0-30-13.4-30-30V445.5c0-16.6 13.4-30 30-30s30 13.4 30 30v256.3c0 16.6-13.4 30-30 30zM537.8 894.1c-16.6 0-30-13.4-30-30V274.2c0-16.6 13.4-30 30-30s30 13.4 30 30v589.9c0 16.6-13.4 30-30 30z" /></svg>