<?xml version="1.0" standalone="no"?><!DOCTYPE svg PUBLIC "-//W3C//DTD SVG 1.1//EN" "http://www.w3.org/Graphics/SVG/1.1/DTD/svg11.dtd"><svg class="icon" width="128px" height="128.00px" viewBox="0 0 1024 1024" version="1.1" xmlns="http://www.w3.org/2000/svg"><path d="M960 739.6H64c-16.6 0-30-13.4-30-30V595.4c0-20.2 12-38.4 30.5-46.3l435.6-187c4.6-2 9.5-2.7 14.3-2.3H961c8 0 15.6 3.2 21.2 8.8 5.6 5.6 8.8 13.3 8.8 21.3l-1 319.8c-0.1 16.5-13.5 29.9-30 29.9z m-866-60h836.1l0.8-259.8h-413L94 601.8v77.8z m-5.8-75.3c-0.1 0 0 0 0 0zM946.9 836.8H77c-23.8 0-43.1-19.3-43.1-43.1v-71c0-23.8 19.3-43.1 43.1-43.1h869.9c23.8 0 43.1 19.3 43.1 43.1v71c0 23.8-19.3 43.1-43.1 43.1z m-853-60H930v-37.2H93.9v37.2zM946 419.7H528.6c-24.8 0-45-20.2-45-45v-98.2c0-24.8 20.2-45 45-45H946c24.8 0 45 20.2 45 45v98.2c0 24.8-20.2 45-45 45z m-402.4-60H931v-68.2H543.6v68.2zM576.7 509.6H302.4c-16.6 0-30-13.4-30-30s13.4-30 30-30h274.3c16.6 0 30 13.4 30 30s-13.4 30-30 30zM511.4 611.9H64.8c-16.6 0-30-13.4-30-30s13.4-30 30-30h446.6c16.6 0 30 13.4 30 30s-13.4 30-30 30zM768.8 739.3c-16.6 0-30-13.4-30-30V389.7c0-16.6 13.4-30 30-30s30 13.4 30 30v319.6c0 16.6-13.4 30-30 30z" /></svg>