<?xml version="1.0" standalone="no"?><!DOCTYPE svg PUBLIC "-//W3C//DTD SVG 1.1//EN" "http://www.w3.org/Graphics/SVG/1.1/DTD/svg11.dtd"><svg class="icon" width="128px" height="128.00px" viewBox="0 0 1024 1024" version="1.1" xmlns="http://www.w3.org/2000/svg"><path d="M288.4 810.4h538.9v60H288.4zM288.4 870.6c-67.4 0-130.8-26.3-178.5-73.9S36 685.6 36 618.2s26.3-130.8 73.9-178.5c47.7-47.7 111.1-73.9 178.5-73.9s130.8 26.3 178.5 73.9c47.7 47.7 73.9 111.1 73.9 178.5S514.5 749 466.9 796.7c-47.7 47.6-111.1 73.9-178.5 73.9z m0-444.8C182.3 425.8 96 512.1 96 618.2s86.3 192.4 192.4 192.4 192.4-86.3 192.4-192.4-86.3-192.4-192.4-192.4zM288.4 747.3c-71.2 0-129.1-57.9-129.1-129.1 0-71.2 57.9-129.1 129.1-129.1S417.5 547 417.5 618.2c0 71.2-57.9 129.1-129.1 129.1z m0-198.2c-38.1 0-69.1 31-69.1 69.1 0 38.1 31 69.1 69.1 69.1s69.1-31 69.1-69.1c0-38.1-31-69.1-69.1-69.1zM833.1 870.7c-86 0-155.9-69.9-155.9-155.9s69.9-155.9 155.9-155.9S989 628.8 989 714.8s-69.9 155.9-155.9 155.9z m0-251.8c-52.9 0-95.9 43-95.9 95.9 0 52.9 43 95.9 95.9 95.9 52.9 0 95.9-43 95.9-95.9 0-52.9-43-95.9-95.9-95.9zM815 618.9c-3.6 0-7.4-0.7-10.9-2.1L390.6 454.6c-15.4-6.1-23-23.5-17-38.9s23.5-23 38.9-17L826 561c15.4 6.1 23 23.5 17 38.9-4.7 11.8-16 19-28 19zM938.5 456.7H697.3c-25.4 0-46-20.6-46-46V306.8c0-25.4 20.6-46 46-46h241.1c25.4 0 46 20.6 46 46v103.8c0.1 12.2-4.6 23.8-13.2 32.5-8.7 8.8-20.3 13.6-32.7 13.6z m-227.2-60h213.1v-75.9H711.3v75.9zM787.9 425.2h60v165.6h-60zM436 263H94.6c-12.1 0-23.1-7.3-27.7-18.5-4.6-11.2-2.1-24.1 6.5-32.7l68.2-68.4c11.7-11.7 30.7-11.8 42.4-0.1 11.7 11.7 11.8 30.7 0.1 42.4L166.9 203h256.7l59.4-59.6c11.7-11.7 30.7-11.8 42.4-0.1 11.7 11.7 11.8 30.7 0.1 42.4l-68.2 68.4c-5.7 5.7-13.3 8.9-21.3 8.9zM298.6 426.4h-0.1c-16.6-0.1-30-13.5-29.9-30.1l0.6-163.4c0.1-16.5 13.5-29.9 30-29.9h0.1c16.6 0.1 30 13.5 29.9 30.1l-0.6 163.4c-0.1 16.5-13.5 29.9-30 29.9z" /></svg>