<?xml version="1.0" standalone="no"?><!DOCTYPE svg PUBLIC "-//W3C//DTD SVG 1.1//EN" "http://www.w3.org/Graphics/SVG/1.1/DTD/svg11.dtd"><svg class="icon" width="128px" height="128.00px" viewBox="0 0 1024 1024" version="1.1" xmlns="http://www.w3.org/2000/svg"><path d="M894 349.7c-2.3 0-4.7-0.2-7-0.8h-0.2c-0.6-0.1-1.3-0.3-1.9-0.4L685.4 295c-8.5-2.2-15.8-7.8-20.2-15.4-4.4-7.6-5.6-16.7-3.4-25.1v-0.1c0-0.2 0.1-0.4 0.1-0.6l0.8-3 0.6-2.5c0-0.1 0.1-0.3 0.1-0.4L691.3 143c0-0.2 0.1-0.4 0.2-0.5 5.5-19.2 25-30.4 44.4-25.4 0.1 0 0.2 0.1 0.3 0.1l191.5 51.6c12.8 3.4 23.7 12 29.9 23.7 6.2 11.8 7.2 25.8 2.7 38.4l-35 96.9c0 0.1-0.1 0.2-0.1 0.3-5.1 13.3-17.6 21.6-31.2 21.6zM726.6 243.9l150.5 40.4 22.1-61.1-156-42-16.6 62.7z m-7 26.5z m0 0zM851.9 466.4c-2.3 0-4.7-0.2-7-0.8h-0.1c-0.6-0.1-1.3-0.3-1.9-0.4l-192.3-51.5c-15.9-4.3-25.4-20.5-21.3-36.5l0.8-3.1c0-0.1 0.1-0.3 0.1-0.4l0.8-3 0.6-2.5c0-0.1 0.1-0.3 0.1-0.4l28.4-107.3c0.1-0.3 0.1-0.5 0.2-0.8 2.4-8.3 7.9-15.2 15.4-19.5 7.6-4.3 16.8-5.5 25.2-3.2l199.3 53.4c8.8 2.2 16.3 8 20.7 16 4.6 8.3 5.4 18.1 2.3 27 0 0.1 0 0.1-0.1 0.2l-40 110.8c0 0.1-0.1 0.2-0.1 0.4-5 13.3-17.5 21.6-31.1 21.6z m-157-102.9L835 401l21.7-60.1-145.5-39-16.3 61.6z m-10.3-68.7z m-0.1 0s0.1 0 0 0c0.1 0 0 0 0 0zM338.6 938.1c-26.3 0-53-2.4-79.7-7.1-71.3-12.5-136-40.5-182.1-78.8-23.7-19.7-41.5-41.2-52.9-64.1-12.8-25.6-17-51.6-12.5-77.2 17-95.9 152.2-149.6 308-122.2l6.6 1.2 40.9-259.5c0-0.2 0.1-0.4 0.1-0.5 3.1-17.9 20.3-30 38.2-27h0.3l196.1 34.6 60.2 10.6c9.2 1.6 17.3 7 22.3 14.8 4.9 7.7 6.4 17.1 4.2 25.9-0.1 0.5-0.3 1.1-0.5 1.6-0.1 0.7-0.3 1.3-0.5 2l-0.8 3c-0.1 0.2-0.1 0.4-0.2 0.6L566.6 810.5c-7.1 37-31.9 68.6-71.7 91.4-35.7 20.5-81.9 32.8-133.6 35.5-7.4 0.5-15 0.7-22.7 0.7z m-99.1-296.6c-35.8 0-69.3 5.2-98 15.5-40.4 14.5-66.3 37.9-70.9 64.3-4.7 26.4 11.6 57.2 44.6 84.6 38.2 31.7 93 55.1 154.2 65.9 29.9 5.3 59.8 7.2 88.8 5.7 41.7-2.3 79.7-12.1 106.9-27.7 17.1-9.8 38.3-26.6 42.7-51.5 0.2-1 0.4-2.1 0.7-3.1L622.1 402l-31-5.5-169.2-29.9-39.6 251.7c2.3 7.7 1.5 16.1-2.7 23.5-6.8 11.9-20.8 17.7-34 14.1-11.4-3.1-23.7-5.9-36.6-8.2-23.7-4.1-47-6.2-69.5-6.2zM506.1 964.9c-36.1 0-74.9-5-114.6-15.7-14-3.7-28.1-8.2-42.1-13.3-13.3-4.9-21.4-18.6-19.2-32.6 2.1-14.1 13.8-24.7 28-25.5 41.7-2.3 79.7-12.1 106.9-27.7 17.1-9.8 38.4-26.7 42.8-51.4 0.2-1 0.4-2.1 0.7-3.1l120.1-415.9v-0.1c5.1-17.4 23.3-27.5 40.6-22.7l188.3 50.5c8.8 2.1 16.4 7.7 20.9 15.7 4.9 8.7 5.7 19 2 28.4-0.1 0.3-0.2 0.6-0.4 0.9l-172 404.3c-19.6 68.1-100.3 108.1-202 108.2z m-15.6-60.4c30.2 1.4 58.8-1.2 84.2-7.9 41.5-10.9 69.3-32 76.3-57.9 0.4-1.4 0.8-2.7 1.4-4L813 457.3l-134-35.8-112.4 389.2c-7.5 38.9-34.8 71.3-76.1 93.8zM845.6 466zM888.338 349.304l15.474-57.972 1.546 0.412-15.474 57.972zM618.013 276.78l19.002-56.91 0.569 0.19-19.002 56.91zM846.115 466.066l15.492-57.966 11.594 3.098-15.492 57.966zM584.318 395.657l22.302-55.704 0.464 0.186-22.302 55.704zM571.1 875.9h-0.1v-60zM689.5 287.8c-2 0-4.1-0.2-6.1-0.6-0.1 0-0.2 0-0.4-0.1h-0.2l-59.7-10.5L416.4 240c-17.9-3.1-30-20.3-27-38.2v-0.3l18.1-102.7c4.6-25.9 29.4-43.1 55.1-38.5L722 106.5c10.1 1.8 19 7.8 24.5 16.4 5.5 8.6 7.1 19.2 4.5 29.1v0.2l-1.7 6.2L721.5 263c-3.8 14.8-17.2 24.8-32 24.8z m-26.1-39.7z m0-0.1z m-210.2-62.4l180.4 31.8 36.2 6.4 16.6-62.8-222-39.5-11.2 64.1zM657.8 407.8c-2 0-4.1-0.2-6.1-0.6-0.1 0-0.2 0-0.4-0.1h-0.1l-60-10.5L395 361.9c-17.9-3.1-30-20.3-27-38.2v-0.3l20.4-115.6c3.1-17.9 20.3-30 38.2-27h0.3l206.7 36.5 60 10.6c9.1 1.6 17.2 7 22.2 14.8 4.7 7.4 6.3 16.5 4.4 25-0.1 0.3-0.1 0.6-0.2 0.9-0.2 0.8-0.4 1.5-0.6 2.2-0.1 0.6-0.3 1.2-0.4 1.7l-0.8 3L689.8 383c-3.8 14.8-17.2 24.8-32 24.8z m-26.1-39.7z m-199.9-60.6l169.7 29.9 36.6 6.4 16.4-61.8-211.6-37.4-11.1 62.9zM685.928 287.675l11.76-58.836 1.47 0.294-11.76 58.836zM412.097 239.383l11.778-58.83 0.49 0.098-11.778 58.83zM654.783 407.772l10.512-59.07 11.814 2.103-10.512 59.07zM390.592 361.282l11.778-58.83 0.49 0.098-11.778 58.83z" /></svg>