<?xml version="1.0" standalone="no"?><!DOCTYPE svg PUBLIC "-//W3C//DTD SVG 1.1//EN" "http://www.w3.org/Graphics/SVG/1.1/DTD/svg11.dtd"><svg class="icon" width="128px" height="128.00px" viewBox="0 0 1024 1024" version="1.1" xmlns="http://www.w3.org/2000/svg"><path d="M609.1 418.8l-21.2-21.2c-30.5-30.5-70.9-47.2-114-47.2s-83.5 16.8-114 47.2l-21.2 21.2-202.1-202.1 21.2-21.2c42.7-42.7 92.4-75.7 147.9-98.2 53.6-21.7 110.2-32.7 168.2-32.7 58.1 0 114.6 11 168.2 32.7 55.5 22.5 105.2 55.5 147.9 98.2l21.2 21.2-202.1 202.1zM222.2 217.5l117.9 117.9c38.3-29.2 84.8-45 133.8-45s95.5 15.8 133.8 45l117.9-117.9c-70-60.2-158.3-93-251.6-93-93.4 0-181.7 32.8-251.8 93zM768.8 848.9L566.7 646.8l21.2-21.2c30.5-30.5 47.2-70.9 47.2-114 0-43-16.8-83.5-47.2-114l-21.2-21.2 202.1-202.1 21.2 21.2c42.7 42.7 75.7 92.4 98.2 147.9C910 397 921 453.6 921 511.6c0 58-11 114.6-32.7 168.2-22.6 55.5-55.6 105.2-98.3 147.9l-21.2 21.2zM650.1 645.4L768 763.3c60.2-70.1 93-158.4 93-251.7S828.2 330 768 259.9L650.1 377.8c29.2 38.3 45 84.8 45 133.8s-15.8 95.5-45 133.8zM473.9 958.7c-58.1 0-114.7-11-168.2-32.7-55.5-22.5-105.3-55.5-147.9-98.2l-21.2-21.2 202.1-202.1 21.2 21.2c30.5 30.5 70.9 47.2 114 47.2s83.5-16.8 114-47.2l21.2-21.2 202.1 202.1-21.2 21.1c-42.6 42.7-92.4 75.7-147.9 98.2-53.5 21.8-110.1 32.8-168.2 32.8z m-251.7-153c70.1 60.2 158.4 93 251.7 93 93.3 0 181.6-32.8 251.6-93L607.7 687.8c-38.3 29.2-84.8 45-133.8 45s-95.5-15.8-133.8-45L222.2 805.7zM179 848.9l-21.2-21.2c-42.6-42.7-75.7-92.4-98.2-147.9-21.7-53.6-32.7-110.2-32.7-168.2 0-58 11-114.6 32.7-168.2 22.5-55.5 55.5-105.2 98.2-147.9l21.2-21.2 202.1 202.1-21.2 21.2c-62.8 62.9-62.8 165.2 0.1 228l21.2 21.2L179 848.9z m0.8-589c-123.6 144.4-123.6 359 0 503.3l118-117.9c-29.2-38.3-45-84.8-45-133.8 0-48.9 15.8-95.5 44.9-133.8L179.8 259.9zM473.9 732.8c-59.1 0-114.6-23-156.4-64.8-41.8-41.8-64.8-97.3-64.8-156.4s23-114.6 64.8-156.4 97.3-64.8 156.4-64.8 114.6 23 156.4 64.8c41.8 41.8 64.8 97.3 64.8 156.4s-23 114.6-64.8 156.4c-41.8 41.8-97.3 64.8-156.4 64.8z m0-382.3c-41.3 0-82.6 15.7-114 47.1-62.9 62.9-62.9 165.1 0 228 31.4 31.4 72.7 47.1 114 47.1s82.6-15.7 114-47.1c62.9-62.9 62.9-165.1 0-228-31.4-31.4-72.7-47.1-114-47.1z" /></svg>