<?xml version="1.0" standalone="no"?><!DOCTYPE svg PUBLIC "-//W3C//DTD SVG 1.1//EN" "http://www.w3.org/Graphics/SVG/1.1/DTD/svg11.dtd"><svg class="icon" width="128px" height="128.00px" viewBox="0 0 1024 1024" version="1.1" xmlns="http://www.w3.org/2000/svg"><path d="M428.9 794.1c-51.6 0-101.6-10.1-148.7-30-45.5-19.2-86.3-46.8-121.4-81.9-35.1-35.1-62.6-75.9-81.9-121.4-19.9-47.1-30-97.1-30-148.7 0-51.6 10.1-101.6 30-148.7 19.2-45.5 46.8-86.3 81.9-121.4 35.1-35.1 75.9-62.6 121.4-81.9 47.1-19.9 97.1-30 148.7-30s101.6 10.1 148.7 30c45.5 19.2 86.3 46.8 121.4 81.9 35.1 35.1 62.6 75.9 81.9 121.4 19.9 47.1 30 97.1 30 148.7 0 51.6-10.1 101.6-30 148.7-19.2 45.5-46.8 86.3-81.9 121.4-35.1 35.1-75.9 62.6-121.4 81.9-47.1 19.9-97.1 30-148.7 30z m0-704c-177.6 0-322 144.4-322 322s144.4 322 322 322 322-144.4 322-322-144.4-322-322-322zM656.43 682.401l42.427-42.426 85.064 85.064-42.426 42.426zM876.4 961.4c-13.1 0-25.5-5.1-34.8-14.3l-0.1-0.1-117.6-117.6c-19.2-19.2-19.2-50.5 0-69.7l50.6-50.6c19.2-19.2 50.5-19.2 69.7 0l117.6 117.6c9.3 9.3 14.4 21.7 14.4 34.9s-5.1 25.6-14.4 34.9L911.3 947c-9.3 9.3-21.7 14.4-34.9 14.4zM773.9 794.5L876.3 897l35.5-35.5-102.5-102.4-35.4 35.4zM123.4 207.3h611v60h-611zM76.9 382.1h704v60h-704zM126.4 542.4h611v60h-611zM566.4 113.1h60v597.2h-60zM391.6 52.8h60v704h-60zM231.3 102.3h60v611h-60z" /></svg>