<?xml version="1.0" standalone="no"?><!DOCTYPE svg PUBLIC "-//W3C//DTD SVG 1.1//EN" "http://www.w3.org/Graphics/SVG/1.1/DTD/svg11.dtd"><svg class="icon" width="128px" height="128.00px" viewBox="0 0 1024 1024" version="1.1" xmlns="http://www.w3.org/2000/svg"><path d="M502.6 972.6c-60.3 0-118.9-11.8-174-35.1-53.2-22.5-101-54.7-142.1-95.8s-73.3-88.8-95.8-142.1c-23.3-55.1-35.1-113.7-35.1-174s11.8-118.9 35.1-174c22.5-53.2 54.7-101 95.8-142.1s88.8-73.3 142.1-95.8c55.1-23.3 113.7-35.1 174-35.1s118.9 11.8 174 35.1c53.2 22.5 101 54.7 142.1 95.8s73.3 88.8 95.8 142.1c23.3 55.1 35.1 113.7 35.1 174s-11.8 118.9-35.1 174c-22.5 53.2-54.7 101-95.8 142.1s-88.8 73.3-142.1 95.8c-55.1 23.3-113.7 35.1-174 35.1z m0-834c-213.4 0-387 173.6-387 387s173.6 387 387 387 387-173.6 387-387-173.6-387-387-387zM472.6 108.5h60v417.1h-60zM862.6 738.4l-360-179.3-360.1 179.1-26.8-53.8 386.9-192.3 386.8 192.5zM246.3 683c-16.6 0-30-13.4-30-30V198.8c0-16.6 13.4-30 30-30s30 13.4 30 30V653c0 16.6-13.4 30-30 30zM374.3 618.8c-16.6 0-30-13.4-30-30V132.7c0-16.6 13.4-30 30-30s30 13.4 30 30v456.1c0 16.6-13.4 30-30 30zM915.9 616.6c-4.5 0-9.1-1-13.4-3.2L489 406.2c-14.8-7.4-20.8-25.4-13.4-40.3 7.4-14.8 25.4-20.8 40.3-13.4l413.5 207.2c14.8 7.4 20.8 25.4 13.4 40.3a30.15 30.15 0 0 1-26.9 16.6zM909.9 465.3c-4.6 0-9.2-1.1-13.6-3.3L488.8 254.6c-14.8-7.5-20.6-25.6-13.1-40.3 7.5-14.8 25.6-20.6 40.3-13.1l407.5 207.4c14.8 7.5 20.6 25.6 13.1 40.3-5.3 10.4-15.8 16.4-26.7 16.4zM320 930.1c-10.6 0-20.9-5.6-26.3-15.6-8-14.5-2.7-32.8 11.8-40.7L749 630.2c14.5-8 32.8-2.7 40.7 11.8 8 14.5 2.7 32.8-11.8 40.7L334.4 926.4c-4.5 2.5-9.5 3.7-14.4 3.7zM207.1 849.9c-10.8 0-21.2-5.8-26.6-16-7.7-14.7-2.1-32.8 12.6-40.5l431.3-226.7c14.7-7.7 32.8-2.1 40.5 12.6 7.7 14.7 2.1 32.8-12.6 40.5L221.1 846.5c-4.5 2.3-9.3 3.4-14 3.4z" /></svg>