<?xml version="1.0" standalone="no"?><!DOCTYPE svg PUBLIC "-//W3C//DTD SVG 1.1//EN" "http://www.w3.org/Graphics/SVG/1.1/DTD/svg11.dtd"><svg class="icon" width="128px" height="128.00px" viewBox="0 0 1024 1024" version="1.1" xmlns="http://www.w3.org/2000/svg"><path d="M895.9 930.6H127.8c-24.8 0-45-20.2-45-45V117.5c0-24.8 20.2-45 45-45H896c24.8 0 45 20.2 45 45v768.6c-0.3 24.5-20.5 44.5-45.1 44.5z m-753.1-60H881V132.5H142.8v738.1zM642.6 483.3l-18.4-7.2c-31.3-12.2-64.4-18.4-98.4-18.4-33.5 0-66.1 6-97.1 17.8l-18.2 6.9-148-147.8 19.6-21.2c30.7-33.3 67.2-59.5 108.4-77.9 42.7-19.1 88.2-28.7 135.3-28.7 47.1 0 92.6 9.7 135.3 28.7 41.2 18.4 77.6 44.6 108.4 77.9l19.4 21-146.3 148.9z m-116.8-85.5c34.7 0 68.7 5.3 101.3 15.7l77.9-79.3c-49.4-43.7-112.1-67.4-179.2-67.4-66 0-129.8 24.2-179 67.3l79.1 79c32.2-10.2 65.7-15.3 99.9-15.3zM282.86 354.989l42.427-42.426 113.772 113.772-42.426 42.426zM647.7 478.2h-12.6l-0.1-30-21.3-21L726 312.8l42.8 42zM499.266 413.753l93.326-176.339 53.034 28.068L552.3 441.821zM112.8 742.3h798.1v60H112.8z" /></svg>