<?xml version="1.0" standalone="no"?><!DOCTYPE svg PUBLIC "-//W3C//DTD SVG 1.1//EN" "http://www.w3.org/Graphics/SVG/1.1/DTD/svg11.dtd"><svg class="icon" width="128px" height="128.00px" viewBox="0 0 1024 1024" version="1.1" xmlns="http://www.w3.org/2000/svg"><path d="M447.2 908.2c-80.8 0-156.8-31.5-214-88.6-57.2-57.2-88.6-133.1-88.6-214s31.5-156.8 88.6-214c57.2-57.2 133.1-88.6 214-88.6 80.8 0 156.8 31.5 214 88.6 57.2 57.2 88.6 133.1 88.6 214s-31.5 156.8-88.6 214c-57.2 57.1-133.2 88.6-214 88.6z m0-545.2c-133.8 0-242.6 108.8-242.6 242.6s108.8 242.6 242.6 242.6 242.6-108.8 242.6-242.6S581 363 447.2 363zM447.2 759.9c-85.1 0-154.3-69.2-154.3-154.3 0-85.1 69.2-154.3 154.3-154.3 85.1 0 154.3 69.2 154.3 154.3 0 85.1-69.2 154.3-154.3 154.3z m0-248.6c-52 0-94.3 42.3-94.3 94.3s42.3 94.3 94.3 94.3 94.3-42.3 94.3-94.3-42.3-94.3-94.3-94.3zM710.4 509.8l-44.6-40.1 236.3-262.5L780.3 86.9 352.7 381.8l-34.1-49.4L752.4 33.3c20.1-13.8 47.2-11.5 64.6 5.5l0.2 0.2 133.2 131.5c19.5 19.2 20.4 50.2 2.1 70.5L710.4 509.8z m197.5-309.1zM670.922 130.477l43.134-41.706 174.887 180.876-43.134 41.706zM206.7 950c-12 0-23.3-4.7-31.8-13.1l-68.9-69c-8.5-8.5-13.1-19.8-13.1-31.8s4.7-23.3 13.1-31.8l68.9-68.9c17.5-17.5 46.1-17.5 63.6 0l68.8 68.8c8.6 8.5 13.3 19.8 13.3 31.9 0 12.1-4.7 23.4-13.3 31.9l-68.8 68.8c-8.5 8.5-19.8 13.2-31.8 13.2zM159 836.1l47.7 47.7 47.7-47.7-47.7-47.7-47.7 47.7z" /></svg>